<svg xmlns="http://www.w3.org/2000/svg" width="83" height="83" viewBox="0 0 83 83">
  <g id="Group_1210728" data-name="Group 1210728" transform="translate(-759.561 -2637.172)">
    <g id="Group_1209639" data-name="Group 1209639" transform="translate(0.51 -5897.828)">
      <g id="Group_1208694" data-name="Group 1208694" transform="translate(421 5452)">
        <circle id="Ellipse_12656" data-name="Ellipse 12656" cx="41.5" cy="41.5" r="41.5" transform="translate(338.051 3083)" fill="#b7a8f1"/>
      </g>
    </g>
    <g id="Layer_x0020_1" transform="translate(776 2655.752)">
      <path id="Path_1249588" data-name="Path 1249588" d="M395,404.663v.09l5.728,5.549,2.6-2.685-5.639-5.46C397.685,401.531,395,404.663,395,404.663Z" transform="translate(-355.093 -366.087)" fill="#ff700d" fill-rule="evenodd"/>
      <path id="Path_1249589" data-name="Path 1249589" d="M34.716,43.32H7.506A2.5,2.5,0,0,1,5,40.814V2.506A2.561,2.561,0,0,1,7.506,0H34.716a2.5,2.5,0,0,1,2.506,2.506V21.123a8.826,8.826,0,0,1,1.164,12.441l2.327,2.327c.627-.716.985-1.253,1.88-1.253a1.86,1.86,0,0,1,1.074.448l6.086,6a.678.678,0,0,1,0,.9l-3.58,3.58c-.358.358-.716.358-.985.09l-6.086-6a1.539,1.539,0,0,1,0-2.148l.716-.716L37.49,34.549c-.09.09-.179.09-.269.179v6.086A2.5,2.5,0,0,1,34.716,43.32Zm-3.043-9.04a6.421,6.421,0,0,1-6.355-6.265,6.345,6.345,0,1,1,6.355,6.265ZM28,24.435a5.024,5.024,0,1,0,7.16-.09A5.029,5.029,0,0,0,28,24.435Zm11.9,14.142v.09l5.728,5.549,2.6-2.685-5.639-5.46C42.592,35.444,39.907,38.577,39.907,38.577ZM35.879,20.228V2.506a1.185,1.185,0,0,0-1.164-1.164H7.506A1.128,1.128,0,0,0,6.343,2.506V40.814a1.185,1.185,0,0,0,1.164,1.164H34.716a1.185,1.185,0,0,0,1.164-1.164V35.623a8.409,8.409,0,0,1-4.117,1.164A9.275,9.275,0,0,1,24.691,33.3H9.923a.627.627,0,0,1,0-1.253H23.8a9.682,9.682,0,0,1-.985-4.207H9.923a.675.675,0,0,1,0-1.343H22.99a8.531,8.531,0,0,1,1.88-4.207H9.923a.675.675,0,0,1,0-1.343H26.3A8.692,8.692,0,0,1,35.879,20.228Zm.179,13.784a7.518,7.518,0,1,0-11.9-6A7.532,7.532,0,0,0,36.058,34.012Zm-3.849,4.833H9.923a.627.627,0,0,1,0-1.253H32.209A.628.628,0,1,1,32.209,38.845Zm0-22.108H9.923a.675.675,0,0,1,0-1.343H32.209A.671.671,0,0,1,32.209,16.737Zm-6.086-5.549H16.1a.671.671,0,1,1,0-1.343H26.123A.671.671,0,0,1,26.123,11.188Z" fill-rule="evenodd"/>
      <path id="Path_1249590" data-name="Path 1249590" d="M247.551,257.178a5.024,5.024,0,1,0,7.16-.09A5.029,5.029,0,0,0,247.551,257.178Z" transform="translate(-219.548 -232.743)" fill="#d9f2f2" fill-rule="evenodd"/>
      <path id="Path_1249591" data-name="Path 1249591" d="M220.164,235.608a6.345,6.345,0,1,1,6.355,6.265A6.421,6.421,0,0,1,220.164,235.608Zm-1.164,0a7.488,7.488,0,1,0,2.148-5.37A7.532,7.532,0,0,0,219,235.608Z" transform="translate(-194.846 -207.593)" fill="#99a4ac" fill-rule="evenodd"/>
      <path id="Path_1249592" data-name="Path 1249592" d="M49.537,54.472V49.28a8.409,8.409,0,0,1-4.117,1.164,9.275,9.275,0,0,1-7.071-3.491H23.58a.627.627,0,0,1,0-1.253H37.453a9.682,9.682,0,0,1-.985-4.207H23.58a.675.675,0,0,1,0-1.343H36.648a8.531,8.531,0,0,1,1.88-4.207H23.58a.675.675,0,0,1,0-1.343H39.96a8.692,8.692,0,0,1,9.577-.716V16.164A1.185,1.185,0,0,0,48.373,15H21.164A1.128,1.128,0,0,0,20,16.164V54.472a1.185,1.185,0,0,0,1.164,1.164H48.373A1.185,1.185,0,0,0,49.537,54.472Zm-3.67-3.222a.628.628,0,1,1,0,1.253H23.58a.627.627,0,0,1,0-1.253Zm0-20.855H23.58a.675.675,0,0,1,0-1.343H45.867A.671.671,0,0,1,45.867,30.395Zm-6.086-5.549H29.756a.671.671,0,1,1,0-1.343H39.781A.671.671,0,1,1,39.781,24.846Z" transform="translate(-13.657 -13.657)" fill="#d9f2f2" fill-rule="evenodd"/>
    </g>
  </g>
</svg>
