<svg xmlns="http://www.w3.org/2000/svg" xmlns:xlink="http://www.w3.org/1999/xlink" width="98" height="98" viewBox="0 0 98 98">
  <defs>
    <filter id="Path_874925" x="0" y="0" width="98" height="98" filterUnits="userSpaceOnUse">
      <feOffset dy="3" input="SourceAlpha"/>
      <feGaussianBlur stdDeviation="3" result="blur"/>
      <feFlood flood-opacity="0.161"/>
      <feComposite operator="in" in2="blur"/>
      <feComposite in="SourceGraphic"/>
    </filter>
  </defs>
  <g id="Group_1210799" data-name="Group 1210799" transform="translate(-1118.051 -10529)">
    <g id="Group_1210792" data-name="Group 1210792" transform="translate(842.359 4438)">
      <g id="Group_1200231" data-name="Group 1200231" transform="translate(-0.309 -0.407)">
        <g id="Group_1187153" data-name="Group 1187153">
          <g id="Group_1182177" data-name="Group 1182177">
            <g id="Group_1181903" data-name="Group 1181903">
              <g id="Group_1181438" data-name="Group 1181438">
                <g id="Group_1111314" data-name="Group 1111314" transform="translate(-734.73 3020.407)">
                  <g transform="matrix(1, 0, 0, 1, 1010.73, 3071)" filter="url(#Path_874925)">
                    <g id="Path_874925-2" data-name="Path 874925" transform="translate(9 6)" fill="#fd9826">
                      <path d="M 39.99997329711914 79.50040435791016 C 34.66728591918945 79.50040435791016 29.494384765625 78.45610046386719 24.62495040893555 76.39649963378906 C 19.92138481140137 74.40706634521484 15.69705104827881 71.55889892578125 12.06927299499512 67.93113708496094 C 8.441506385803223 64.30335998535156 5.593339920043945 60.07902526855469 3.603906631469727 55.37545776367188 C 1.544306635856628 50.50602340698242 0.5000066161155701 45.33312606811523 0.5000066161155701 40.00043487548828 C 0.5000066161155701 34.66728973388672 1.544306635856628 29.4943904876709 3.603906631469727 24.62495803833008 C 5.593339920043945 19.92139053344727 8.441506385803223 15.69704627990723 12.06927299499512 12.06927967071533 C 15.69705104827881 8.441502571105957 19.92138481140137 5.59334659576416 24.62495040893555 3.603902101516724 C 29.494384765625 1.544302225112915 34.66728591918945 0.5000022053718567 39.99997329711914 0.5000022053718567 C 45.33266067504883 0.5000022053718567 50.50556182861328 1.544302225112915 55.37499618530273 3.603902101516724 C 60.07856369018555 5.59334659576416 64.30290985107422 8.441502571105957 67.93067169189453 12.06927967071533 C 71.55844879150391 15.69704627990723 74.40660858154297 19.92139053344727 76.39604949951172 24.62495803833008 C 78.45565032958984 29.4943904876709 79.49995422363281 34.66728973388672 79.49995422363281 39.99998092651367 C 79.49995422363281 45.33312606811523 78.45565032958984 50.50602340698242 76.39604949951172 55.37545776367188 C 74.40660858154297 60.07902526855469 71.55844879150391 64.30335998535156 67.93067169189453 67.93113708496094 C 64.30290985107422 71.55889892578125 60.07856369018555 74.40706634521484 55.37499618530273 76.39649963378906 C 50.50556182861328 78.45610046386719 45.33266067504883 79.50040435791016 39.99997329711914 79.50040435791016 Z" stroke="none"/>
                      <path d="M 39.99997329711914 1 C 34.73457336425781 1 29.627197265625 2.031013488769531 24.81972885131836 4.064399719238281 C 20.17576217651367 6.028633117675781 16.00484085083008 8.840812683105469 12.42282867431641 12.42282104492188 C 8.840805053710938 16.00483703613281 6.02862548828125 20.17575836181641 4.06439208984375 24.81973648071289 C 2.031005859375 29.62720108032227 0.9999923706054688 34.73456954956055 0.9999923706054688 40.00043487548828 C 0.9999923706054688 45.26583480834961 2.031005859375 50.37321472167969 4.06439208984375 55.18067932128906 C 6.02862548828125 59.82464599609375 8.840805053710938 63.99556732177734 12.42282867431641 67.57757568359375 C 16.00484085083008 71.15959167480469 20.17576217651367 73.97177124023438 24.81972885131836 75.93600463867188 C 29.627197265625 77.96939086914062 34.73457336425781 79.00040435791016 39.99997329711914 79.00040435791016 C 45.26537322998047 79.00040435791016 50.37274932861328 77.96939086914062 55.18021774291992 75.93600463867188 C 59.82418441772461 73.97177124023438 63.9951057434082 71.15959167480469 67.57711791992188 67.57757568359375 C 71.15912628173828 63.99556732177734 73.97130584716797 59.82464599609375 75.93553924560547 55.18067932128906 C 77.96892547607422 50.37321472167969 78.99993896484375 45.26583480834961 78.99993896484375 39.99998092651367 C 78.99993896484375 34.73456954956055 77.96892547607422 29.62720108032227 75.93553924560547 24.81973648071289 C 73.97130584716797 20.17575836181641 71.15912628173828 16.00483703613281 67.57711791992188 12.42282104492188 C 63.9951057434082 8.840812683105469 59.82418441772461 6.028633117675781 55.18021774291992 4.064399719238281 C 50.37274932861328 2.031013488769531 45.26537322998047 1 39.99997329711914 1 M 39.99997329711914 0 C 62.09135055541992 0 79.99993896484375 17.90859222412109 79.99993896484375 39.99998092651367 L 79.99993896484375 40.00043487548828 C 79.99993896484375 62.09181213378906 62.09135055541992 80.00040435791016 39.99997329711914 80.00040435791016 C 17.90859603881836 80.00040435791016 -7.62939453125e-06 62.09181213378906 -7.62939453125e-06 40.00043487548828 L -7.62939453125e-06 39.99998092651367 C -7.62939453125e-06 17.90859222412109 17.90859603881836 0 39.99997329711914 0 Z" stroke="none" fill="#af6a1a"/>
                    </g>
                  </g>
                </g>
              </g>
            </g>
          </g>
        </g>
      </g>
    </g>
    <g id="activos" transform="translate(1140.868 10548.889)">
      <path id="Path_1249788" data-name="Path 1249788" d="M14.239,28.955H24.412a4.239,4.239,0,0,0,4.239-4.239v-2.6C28.65,17.934,25.3,12,24.3,12H14.351C13.353,12,10,17.934,10,22.116v2.6A4.239,4.239,0,0,0,14.239,28.955Z" transform="translate(-1.218 -1.523)" fill="#febe07"/>
      <path id="Path_1249789" data-name="Path 1249789" d="M26.137,4.094l-1.772.886A.621.621,0,0,1,23.59,4.8L22.467,3.3a.622.622,0,0,0-.937-.067L20.057,4.7a.621.621,0,0,1-.937-.067l-1-1.339a.622.622,0,0,0-.937-.067L15.458,4.952a.623.623,0,0,1-.61.159l-2.573-.735a.622.622,0,0,0-.716.9l2.906,5.365H24.637l2.352-5.749a.622.622,0,0,0-.852-.8Z" transform="translate(-1.443 -0.16)" fill="#febe07"/>
      <path id="Path_1249790" data-name="Path 1249790" d="M25.186,28.955a4.239,4.239,0,0,0,4.239-4.239v-2.6C29.425,17.934,26.072,12,25.074,12H15.126c-.566,0,5.392.365,8.365,5.086C25.76,20.69,25.186,28.955,25.186,28.955Z" transform="translate(-1.993 -1.523)" fill="#b18300"/>
      <path id="Path_1249791" data-name="Path 1249791" d="M26.619,4.269l-1.2.6a18.2,18.2,0,0,1-8.472,4.808l-2.306.576.3.56H25.118l2.352-5.749a.622.622,0,0,0-.852-.8Z" transform="translate(-1.925 -0.335)" fill="#b18300"/>
      <path id="Path_1249792" data-name="Path 1249792" d="M35,4h8.477V27.737H35Z" transform="translate(-5.024 -0.305)" fill="#5aa2ff"/>
      <path id="Path_1249793" data-name="Path 1249793" d="M43.782,16l-3.391,3.391L37,22.782h1.7v6.782h5.086Z" transform="translate(-5.329 -2.132)" fill="#2b67b3"/>
      <path id="Path_1249794" data-name="Path 1249794" d="M28.8,16H26V29.564h7.63V16Z" transform="translate(-3.654 -2.132)" fill="#5aa2ff"/>
      <path id="Path_1249795" data-name="Path 1249795" d="M47,27h3.391v4.239H47Z" transform="translate(-6.852 -3.806)" fill="#5aa2ff"/>
      <path id="Path_1249796" data-name="Path 1249796" d="M50.6,30A2.342,2.342,0,0,0,48.5,31.295l-.2.4-2.543,5.086-5.934,2.543a3.391,3.391,0,0,0-3.391-3.391H24.226A22.753,22.753,0,0,0,11,40.173V52.889H31.012A21.857,21.857,0,0,0,52.534,34.832l.368-2.084A2.342,2.342,0,0,0,50.6,30Z" transform="translate(-1.37 -4.263)" fill="#ffe5cf"/>
      <path id="Path_1249797" data-name="Path 1249797" d="M53.173,24H43v6.782h3.391V26.543h3.391v4.239h3.391Z" transform="translate(-6.243 -3.35)" fill="#cbe6fe"/>
      <path id="Path_1249798" data-name="Path 1249798" d="M8.934,37H3.848A.848.848,0,0,0,3,37.848V56.5a.848.848,0,0,0,.848.848H8.934a.848.848,0,0,0,.848-.848V37.848A.848.848,0,0,0,8.934,37Z" transform="translate(-0.152 -5.329)" fill="#2b67b3"/>
      <path id="Path_1249799" data-name="Path 1249799" d="M54.564,22.782,47.782,16l-3.391,3.391L41,22.782Z" transform="translate(-5.938 -2.132)" fill="#b18300"/>
      <path id="Path_1249800" data-name="Path 1249800" d="M32,16h2.543V29.564H32Z" transform="translate(-4.568 -2.132)" fill="#2b67b3"/>
      <path id="Path_1249801" data-name="Path 1249801" d="M3.7,52.872H8.782a1.7,1.7,0,0,0,1.7-1.7v-1.7H29.642A22.7,22.7,0,0,0,52,30.724l.368-2.084a3.183,3.183,0,0,0-4.588-3.392V21.506h.848a.848.848,0,0,0,.6-1.447l-6.782-6.782a.847.847,0,0,0-1.2,0L39.3,15.22V3.7a.848.848,0,0,0-.848-.848H29.976a.848.848,0,0,0-.848.848v9.325H25.693A13.8,13.8,0,0,0,24.187,10.3l2.142-5.236a1.469,1.469,0,0,0-2.013-1.879l-1.6.8L21.7,2.638a1.47,1.47,0,0,0-2.216-.159L18.2,3.768l-.847-1.13a1.47,1.47,0,0,0-2.216-.159L13.508,4.107l-2.445-.7A1.469,1.469,0,0,0,9.369,5.522l2.564,4.733c-1.8,1.626-4,6.194-4,10.346v2.6a5.092,5.092,0,0,0,5.086,5.086H45.559l-1.79,3.582-4.662,2a4.233,4.233,0,0,0-4.045-3.037h-12.2a23.454,23.454,0,0,0-12.38,3.515V32.526a1.7,1.7,0,0,0-1.7-1.7H3.7a1.7,1.7,0,0,0-1.7,1.7v18.65a1.7,1.7,0,0,0,1.7,1.7Zm9.475-47.1A1.467,1.467,0,0,0,14.614,5.4l1.537-1.537L17,4.995a1.47,1.47,0,0,0,2.215.157L20.5,3.863l.967,1.289a1.465,1.465,0,0,0,1.833.434l1.233-.617L22.624,9.637h-2.3l1.082-2.164-1.517-.759L18.431,9.637H16.945L15.763,7.179l-1.528.735.828,1.723H13.525l-2.41-4.451Zm8.327,8.1V26.592H13.021A3.394,3.394,0,0,1,9.63,23.2V20.6c0-4.538,2.809-8.77,3.612-9.268h9.6a9.134,9.134,0,0,1,.975,1.7H22.346a.848.848,0,0,0-.848.848Zm1.7.848h5.934V26.592H23.194Zm18.65.351,4.735,4.735H37.108ZM30.823,4.551h6.782V16.916l-3.143,3.143a.848.848,0,0,0,.6,1.447h.848v5.086H30.823Zm6.782,16.955h8.477v5.086h-1.7V23.2a.848.848,0,0,0-.848-.848H40.148a.848.848,0,0,0-.848.848v3.391h-1.7Zm5.086,5.086H41V24.049h1.7ZM22.857,32.526h12.2a2.543,2.543,0,1,1,0,5.086H21.5v1.7H35.062a4.231,4.231,0,0,0,4.179-3.655l5.479-2.348a.842.842,0,0,0,.425-.4l2.743-5.487a1.5,1.5,0,0,1,2.809.928L50.33,30.43A21.008,21.008,0,0,1,29.642,47.786H10.477V36.373a21.776,21.776,0,0,1,12.38-3.847Zm-19.162,0H8.782v18.65H3.7Z" transform="translate(0 -0.008)"/>
      <path id="Path_1249802" data-name="Path 1249802" d="M6,41H7.7v2.543H6Z" transform="translate(-0.609 -5.938)"/>
      <path id="Path_1249803" data-name="Path 1249803" d="M38,7h.848V8.7H38Z" transform="translate(-5.481 -0.761)"/>
      <path id="Path_1249804" data-name="Path 1249804" d="M41,7h.848V8.7H41Z" transform="translate(-5.938 -0.761)"/>
      <path id="Path_1249805" data-name="Path 1249805" d="M38,11h.848v1.7H38Z" transform="translate(-5.481 -1.37)"/>
      <path id="Path_1249806" data-name="Path 1249806" d="M41,11h.848v1.7H41Z" transform="translate(-5.938 -1.37)"/>
      <path id="Path_1249807" data-name="Path 1249807" d="M38,15h.848v1.7H38Z" transform="translate(-5.481 -1.979)"/>
      <path id="Path_1249808" data-name="Path 1249808" d="M41,15h.848v1.7H41Z" transform="translate(-5.938 -1.979)"/>
      <path id="Path_1249809" data-name="Path 1249809" d="M29,19h.848v1.7H29Z" transform="translate(-4.111 -2.588)"/>
      <path id="Path_1249810" data-name="Path 1249810" d="M32,19h.848v1.7H32Z" transform="translate(-4.568 -2.588)"/>
      <path id="Path_1249811" data-name="Path 1249811" d="M29,23h.848v1.7H29Z" transform="translate(-4.111 -3.197)"/>
      <path id="Path_1249812" data-name="Path 1249812" d="M32,23h.848v1.7H32Z" transform="translate(-4.568 -3.197)"/>
      <path id="Path_1249813" data-name="Path 1249813" d="M29,27h.848v1.7H29Z" transform="translate(-4.111 -3.806)"/>
      <path id="Path_1249814" data-name="Path 1249814" d="M32,27h.848v1.7H32Z" transform="translate(-4.568 -3.806)"/>
      <path id="Path_1249815" data-name="Path 1249815" d="M38,19h.848v1.7H38Z" transform="translate(-5.481 -2.588)"/>
      <path id="Path_1249816" data-name="Path 1249816" d="M41,19h.848v1.7H41Z" transform="translate(-5.938 -2.588)"/>
      <path id="Path_1249817" data-name="Path 1249817" d="M21.239,17.848h-.848V17H18.7v.848h-.848A.848.848,0,0,0,17,18.7v2.543a.848.848,0,0,0,.848.848h2.543v.848H17v.848a.848.848,0,0,0,.848.848H18.7v.848h1.7V24.63h.848a.848.848,0,0,0,.848-.848V21.239a.848.848,0,0,0-.848-.848H18.7v-.848h3.391V18.7A.848.848,0,0,0,21.239,17.848Z" transform="translate(-2.284 -2.284)"/>
      <path id="Path_1249818" data-name="Path 1249818" d="M53,4h1.7V5.7H53Z" transform="translate(-7.765 -0.305)"/>
      <path id="Path_1249819" data-name="Path 1249819" d="M55,2h1.7V3.7H55Z" transform="translate(-8.07)"/>
      <path id="Path_1249820" data-name="Path 1249820" d="M57,4h1.7V5.7H57Z" transform="translate(-8.374 -0.305)"/>
      <path id="Path_1249821" data-name="Path 1249821" d="M55,6h1.7V7.7H55Z" transform="translate(-8.07 -0.609)"/>
      <path id="Path_1249822" data-name="Path 1249822" d="M60,9h1.7v1.7H60Z" transform="translate(-8.831 -1.066)"/>
      <path id="Path_1249823" data-name="Path 1249823" d="M53,12h1.7v1.7H53Z" transform="translate(-7.765 -1.523)"/>
      <path id="Path_1249824" data-name="Path 1249824" d="M2,11H3.7v1.7H2Z" transform="translate(0 -1.37)"/>
      <path id="Path_1249825" data-name="Path 1249825" d="M4,9H5.7v1.7H4Z" transform="translate(-0.305 -1.066)"/>
      <path id="Path_1249826" data-name="Path 1249826" d="M6,11H7.7v1.7H6Z" transform="translate(-0.609 -1.37)"/>
      <path id="Path_1249827" data-name="Path 1249827" d="M4,13H5.7v1.7H4Z" transform="translate(-0.305 -1.675)"/>
      <path id="Path_1249828" data-name="Path 1249828" d="M2,19H3.7v1.7H2Z" transform="translate(0 -2.588)"/>
      <path id="Path_1249829" data-name="Path 1249829" d="M6,2H7.7V3.7H6Z" transform="translate(-0.609)"/>
    </g>
  </g>
</svg>
