<svg xmlns="http://www.w3.org/2000/svg" width="83" height="83" viewBox="0 0 83 83">
  <g id="Group_1210731" data-name="Group 1210731" transform="translate(9229 8971)">
    <g id="Group_1209641" data-name="Group 1209641" transform="translate(-10319.051 -17506)">
      <g id="Group_1208695" data-name="Group 1208695" transform="translate(752 5452)">
        <circle id="Ellipse_12656" data-name="Ellipse 12656" cx="41.5" cy="41.5" r="41.5" transform="translate(338.051 3083)" fill="#b7a8f1"/>
      </g>
    </g>
    <g id="transaccion" transform="translate(-9212 -8956)">
      <path id="Path_1249593" data-name="Path 1249593" d="M75.189,59.024H47.917a2.639,2.639,0,0,1-2.639-2.639V37.91H40V10.639A2.639,2.639,0,0,1,42.639,8H71.67a3.519,3.519,0,0,1,3.519,3.519Zm0,0" transform="translate(-35.601 -7.12)" fill="#fbedbf"/>
      <path id="Path_1249594" data-name="Path 1249594" d="M165.278,217.759V216L160,220.4l5.278,4.4v-1.759H190.79v-5.278Zm0,0" transform="translate(-142.406 -192.248)" fill="#99d8aa"/>
      <path id="Path_1249595" data-name="Path 1249595" d="M112,429.278a2.639,2.639,0,0,0,2.639-2.639V424h26.392a2.639,2.639,0,0,1,0,5.278Zm0,0" transform="translate(-99.684 -377.375)" fill="#fbd699"/>
      <path id="Path_1249596" data-name="Path 1249596" d="M45.278,37.91H40V10.639a2.639,2.639,0,0,1,5.278,0Zm0,0" transform="translate(-35.601 -7.12)" fill="#f7ba61"/>
      <g id="Group_1210729" data-name="Group 1210729" transform="translate(14.076 5.278)">
        <path id="Path_1249597" data-name="Path 1249597" d="M128,48h8.8v1.759H128Zm0,0" transform="translate(-128 -48)" fill="#eee1b5"/>
        <path id="Path_1249598" data-name="Path 1249598" d="M128,80h8.8v1.759H128Zm0,0" transform="translate(-128 -76.481)" fill="#eee1b5"/>
        <path id="Path_1249599" data-name="Path 1249599" d="M160,352h17.594v1.759H160Zm0,0" transform="translate(-156.481 -318.571)" fill="#eee1b5"/>
        <path id="Path_1249600" data-name="Path 1249600" d="M160,384h17.594v1.759H160Zm0,0" transform="translate(-156.481 -347.052)" fill="#eee1b5"/>
        <path id="Path_1249601" data-name="Path 1249601" d="M272,320h5.278v1.759H272Zm0,0" transform="translate(-256.165 -290.09)" fill="#eee1b5"/>
      </g>
      <path id="Path_1249602" data-name="Path 1249602" d="M38.79,124.4,33.512,120v1.759H8v5.278H33.512V128.8Zm0,0" transform="translate(-7.12 -106.804)" fill="#4799cf"/>
      <path id="Path_1249603" data-name="Path 1249603" d="M48.385,24.632H40.467V4.4a4.4,4.4,0,0,0-4.4-4.4H7.038A3.519,3.519,0,0,0,3.519,3.519V14.076H.88a.88.88,0,0,0-.88.88v5.278a.88.88,0,0,0,.88.88H3.519V30.79a.88.88,0,0,0,.88.88H8.8V49.264a3.519,3.519,0,0,0,3.519,3.519H41.347a3.519,3.519,0,1,0,0-7.038h-.88V31.67h7.917a.88.88,0,0,0,.88-.88V25.512A.88.88,0,0,0,48.385,24.632ZM5.278,3.519a1.759,1.759,0,0,1,3.519,0V14.076H5.278ZM1.759,15.835H26.392a.88.88,0,0,0,.873-.767L30.3,17.594l-3.031,2.527a.88.88,0,0,0-.873-.767H1.759ZM5.278,29.91v-8.8H8.8v8.8ZM43.106,49.264a1.76,1.76,0,0,1-1.759,1.759H15.362a3.491,3.491,0,0,0,.473-1.759V47.5H41.347A1.76,1.76,0,0,1,43.106,49.264Zm-4.4-3.519H14.955a.88.88,0,0,0-.88.88v2.639a1.759,1.759,0,0,1-3.519,0V21.113H25.512v.88a.88.88,0,0,0,1.444.676l5.278-4.4a.88.88,0,0,0,0-1.351l-5.278-4.4a.88.88,0,0,0-1.444.676v.88H10.557V3.519a3.48,3.48,0,0,0-.488-1.759h26A2.639,2.639,0,0,1,38.708,4.4V24.632H23.752v-.88a.88.88,0,0,0-1.444-.676l-5.278,4.4a.88.88,0,0,0,0,1.351l5.278,4.4a.88.88,0,0,0,1.444-.676v-.88H38.708ZM47.5,29.91H22.873a.861.861,0,0,0-.33.067,3.051,3.051,0,0,0-.269.176.927.927,0,0,0-.078.1.834.834,0,0,0-.11.162.77.77,0,0,0-.04.128.758.758,0,0,0-.043.134l-3.033-2.527L22,25.624a.758.758,0,0,0,.043.134.731.731,0,0,0,.04.128.815.815,0,0,0,.11.162.927.927,0,0,0,.078.1,3.051,3.051,0,0,0,.269.176.853.853,0,0,0,.332.067H47.5Zm0,0"/>
      <path id="Path_1249604" data-name="Path 1249604" d="M128,48h8.8v1.759H128Zm0,0" transform="translate(-113.924 -42.722)"/>
      <path id="Path_1249605" data-name="Path 1249605" d="M128,80h8.8v1.759H128Zm0,0" transform="translate(-113.924 -71.203)"/>
      <path id="Path_1249606" data-name="Path 1249606" d="M160,352h17.594v1.759H160Zm0,0" transform="translate(-142.406 -313.292)"/>
      <path id="Path_1249607" data-name="Path 1249607" d="M160,384h17.594v1.759H160Zm0,0" transform="translate(-142.406 -341.773)"/>
      <path id="Path_1249608" data-name="Path 1249608" d="M272,320h5.278v1.759H272Zm0,0" transform="translate(-242.09 -284.811)"/>
    </g>
  </g>
</svg>
