<svg xmlns="http://www.w3.org/2000/svg" xmlns:xlink="http://www.w3.org/1999/xlink" width="98" height="98" viewBox="0 0 98 98">
  <defs>
    <filter id="Path_874925" x="0" y="0" width="98" height="98" filterUnits="userSpaceOnUse">
      <feOffset dy="3" input="SourceAlpha"/>
      <feGaussianBlur stdDeviation="3" result="blur"/>
      <feFlood flood-opacity="0.161"/>
      <feComposite operator="in" in2="blur"/>
      <feComposite in="SourceGraphic"/>
    </filter>
  </defs>
  <g id="Group_1210846" data-name="Group 1210846" transform="translate(734 963)">
    <g id="Group_1210795" data-name="Group 1210795" transform="translate(-1009.691 -7054)">
      <g id="Group_1200231" data-name="Group 1200231" transform="translate(-0.309 -0.407)">
        <g id="Group_1187153" data-name="Group 1187153">
          <g id="Group_1182177" data-name="Group 1182177">
            <g id="Group_1181903" data-name="Group 1181903">
              <g id="Group_1181438" data-name="Group 1181438">
                <g id="Group_1111314" data-name="Group 1111314" transform="translate(-734.73 3020.407)">
                  <g transform="matrix(1, 0, 0, 1, 1010.73, 3071)" filter="url(#Path_874925)">
                    <g id="Path_874925-2" data-name="Path 874925" transform="translate(9 6)" fill="#fd9826">
                      <path d="M 39.99997329711914 79.50040435791016 C 34.66728591918945 79.50040435791016 29.494384765625 78.45610046386719 24.62495040893555 76.39649963378906 C 19.92138481140137 74.40706634521484 15.69705104827881 71.55889892578125 12.06927299499512 67.93113708496094 C 8.441506385803223 64.30335998535156 5.593339920043945 60.07902526855469 3.603906631469727 55.37545776367188 C 1.544306635856628 50.50602340698242 0.5000066161155701 45.33312606811523 0.5000066161155701 40.00043487548828 C 0.5000066161155701 34.66728973388672 1.544306635856628 29.4943904876709 3.603906631469727 24.62495803833008 C 5.593339920043945 19.92139053344727 8.441506385803223 15.69704627990723 12.06927299499512 12.06927967071533 C 15.69705104827881 8.441502571105957 19.92138481140137 5.59334659576416 24.62495040893555 3.603902101516724 C 29.494384765625 1.544302225112915 34.66728591918945 0.5000022053718567 39.99997329711914 0.5000022053718567 C 45.33266067504883 0.5000022053718567 50.50556182861328 1.544302225112915 55.37499618530273 3.603902101516724 C 60.07856369018555 5.59334659576416 64.30290985107422 8.441502571105957 67.93067169189453 12.06927967071533 C 71.55844879150391 15.69704627990723 74.40660858154297 19.92139053344727 76.39604949951172 24.62495803833008 C 78.45565032958984 29.4943904876709 79.49995422363281 34.66728973388672 79.49995422363281 39.99998092651367 C 79.49995422363281 45.33312606811523 78.45565032958984 50.50602340698242 76.39604949951172 55.37545776367188 C 74.40660858154297 60.07902526855469 71.55844879150391 64.30335998535156 67.93067169189453 67.93113708496094 C 64.30290985107422 71.55889892578125 60.07856369018555 74.40706634521484 55.37499618530273 76.39649963378906 C 50.50556182861328 78.45610046386719 45.33266067504883 79.50040435791016 39.99997329711914 79.50040435791016 Z" stroke="none"/>
                      <path d="M 39.99997329711914 1 C 34.73457336425781 1 29.627197265625 2.031013488769531 24.81972885131836 4.064399719238281 C 20.17576217651367 6.028633117675781 16.00484085083008 8.840812683105469 12.42282867431641 12.42282104492188 C 8.840805053710938 16.00483703613281 6.02862548828125 20.17575836181641 4.06439208984375 24.81973648071289 C 2.031005859375 29.62720108032227 0.9999923706054688 34.73456954956055 0.9999923706054688 40.00043487548828 C 0.9999923706054688 45.26583480834961 2.031005859375 50.37321472167969 4.06439208984375 55.18067932128906 C 6.02862548828125 59.82464599609375 8.840805053710938 63.99556732177734 12.42282867431641 67.57757568359375 C 16.00484085083008 71.15959167480469 20.17576217651367 73.97177124023438 24.81972885131836 75.93600463867188 C 29.627197265625 77.96939086914062 34.73457336425781 79.00040435791016 39.99997329711914 79.00040435791016 C 45.26537322998047 79.00040435791016 50.37274932861328 77.96939086914062 55.18021774291992 75.93600463867188 C 59.82418441772461 73.97177124023438 63.9951057434082 71.15959167480469 67.57711791992188 67.57757568359375 C 71.15912628173828 63.99556732177734 73.97130584716797 59.82464599609375 75.93553924560547 55.18067932128906 C 77.96892547607422 50.37321472167969 78.99993896484375 45.26583480834961 78.99993896484375 39.99998092651367 C 78.99993896484375 34.73456954956055 77.96892547607422 29.62720108032227 75.93553924560547 24.81973648071289 C 73.97130584716797 20.17575836181641 71.15912628173828 16.00483703613281 67.57711791992188 12.42282104492188 C 63.9951057434082 8.840812683105469 59.82418441772461 6.028633117675781 55.18021774291992 4.064399719238281 C 50.37274932861328 2.031013488769531 45.26537322998047 1 39.99997329711914 1 M 39.99997329711914 0 C 62.09135055541992 0 79.99993896484375 17.90859222412109 79.99993896484375 39.99998092651367 L 79.99993896484375 40.00043487548828 C 79.99993896484375 62.09181213378906 62.09135055541992 80.00040435791016 39.99997329711914 80.00040435791016 C 17.90859603881836 80.00040435791016 -7.62939453125e-06 62.09181213378906 -7.62939453125e-06 40.00043487548828 L -7.62939453125e-06 39.99998092651367 C -7.62939453125e-06 17.90859222412109 17.90859603881836 0 39.99997329711914 0 Z" stroke="none" fill="#af6a1a"/>
                    </g>
                  </g>
                </g>
              </g>
            </g>
          </g>
        </g>
      </g>
    </g>
    <g id="depreciacion" transform="translate(-709.757 -945)">
      <g id="Group_1210809" data-name="Group 1210809" transform="translate(1.762 13.947)">
        <g id="Group_1210800" data-name="Group 1210800" transform="translate(0 12.185)">
          <path id="Path_1249830" data-name="Path 1249830" d="M46.934,55.325H2.762A.762.762,0,0,1,2,54.563v-19.8A.762.762,0,0,1,2.762,34H46.934a.762.762,0,0,1,.762.762v19.8A.762.762,0,0,1,46.934,55.325Z" transform="translate(-2 -34)" fill="#b4dd7f"/>
        </g>
        <g id="Group_1210801" data-name="Group 1210801" transform="translate(41.126 12.185)">
          <path id="Path_1249831" data-name="Path 1249831" d="M60.57,34.762V38.57A4.573,4.573,0,0,1,56,34h3.808A.764.764,0,0,1,60.57,34.762Z" transform="translate(-56 -34)" fill="#a0d468"/>
        </g>
        <g id="Group_1210802" data-name="Group 1210802" transform="translate(41.126 28.941)">
          <path id="Path_1249832" data-name="Path 1249832" d="M60.57,56v3.808a.764.764,0,0,1-.762.762H56A4.573,4.573,0,0,1,60.57,56Z" transform="translate(-56 -56)" fill="#a0d468"/>
        </g>
        <g id="Group_1210803" data-name="Group 1210803" transform="translate(0 28.941)">
          <path id="Path_1249833" data-name="Path 1249833" d="M6.57,60.57H2.762A.764.764,0,0,1,2,59.808V56A4.573,4.573,0,0,1,6.57,60.57Z" transform="translate(-2 -56)" fill="#a0d468"/>
        </g>
        <g id="Group_1210804" data-name="Group 1210804" transform="translate(0 12.185)">
          <path id="Path_1249834" data-name="Path 1249834" d="M6.57,34A4.573,4.573,0,0,1,2,38.57V34.762A.764.764,0,0,1,2.762,34Z" transform="translate(-2 -34)" fill="#a0d468"/>
        </g>
        <g id="Group_1210805" data-name="Group 1210805" transform="translate(38.08 21.325)">
          <circle id="Ellipse_12797" data-name="Ellipse 12797" cx="1.5" cy="1.5" r="1.5" transform="translate(0.159 -0.272)" fill="#fcd770"/>
        </g>
        <g id="Group_1210806" data-name="Group 1210806" transform="translate(4.57 21.325)">
          <circle id="Ellipse_12798" data-name="Ellipse 12798" cx="1.5" cy="1.5" r="1.5" transform="translate(-0.331 -0.272)" fill="#fcd770"/>
        </g>
        <g id="Group_1210807" data-name="Group 1210807" transform="translate(12.185 12.185)">
          <circle id="Ellipse_12799" data-name="Ellipse 12799" cx="10.5" cy="10.5" r="10.5" transform="translate(0.053 -0.133)" fill="#fcd770"/>
        </g>
        <g id="Group_1210808" data-name="Group 1210808">
          <path id="Path_1249835" data-name="Path 1249835" d="M8.1,30.178l-.008.008L2,24.093V18l6.093,6.093,3.046-3.046,9.139,9.139.716.716,6.138,6.138,2.285-2.285,1.523,9.139L21.8,42.371l2.285-2.285-6.778-6.778-3.123-3.123-3.046-3.046L8.854,29.424Z" transform="translate(-2 -18)" fill="#ff826e"/>
        </g>
      </g>
      <g id="Group_1210810" data-name="Group 1210810" transform="translate(1 1)">
        <path id="Path_1249836" data-name="Path 1249836" d="M46.7,28.848H20.355L10.9,19.394,7.854,22.44,1,15.586v8.247l5.016,5.016H2.523A1.525,1.525,0,0,0,1,30.372v19.8A1.525,1.525,0,0,0,2.523,51.7H46.7a1.525,1.525,0,0,0,1.523-1.523v-19.8A1.525,1.525,0,0,0,46.7,28.848Zm0,4.493a3.82,3.82,0,0,1-2.969-2.969H46.7Zm-23.925,6.17L19.978,42.3l11.65,1.942L29.687,32.595l-2.793,2.793-4.708-4.708a9.914,9.914,0,1,1-5.09,3.157ZM2.523,19.263l5.331,5.331L10.9,21.548,26.894,37.541l1.777-1.777,1.105,6.627-6.628-1.1,1.777-1.777L10.9,25.487,7.854,28.533,2.523,23.2ZM10.9,27.64l1.208,1.208H9.693ZM5.493,30.372a3.82,3.82,0,0,1-2.969,2.969V30.372ZM2.523,47.2a3.82,3.82,0,0,1,2.969,2.969H2.523Zm4.509,2.969a5.335,5.335,0,0,0-4.509-4.509V34.88a5.335,5.335,0,0,0,4.509-4.509h6.6l2.388,2.388a11.39,11.39,0,0,0,2.915,17.414Zm29-9.9a11.422,11.422,0,0,0-5.749-9.9h11.9A5.335,5.335,0,0,0,46.7,34.88V45.664a5.335,5.335,0,0,0-4.509,4.509h-11.9a11.422,11.422,0,0,0,5.749-9.9Zm7.693,9.9A3.82,3.82,0,0,1,46.7,47.2v2.969Z" transform="translate(-1 -4.477)"/>
        <path id="Path_1249837" data-name="Path 1249837" d="M55.57,47.285a2.285,2.285,0,1,0-2.285,2.285A2.288,2.288,0,0,0,55.57,47.285Zm-3.046,0a.762.762,0,1,1,.762.762A.762.762,0,0,1,52.523,47.285Z" transform="translate(-12.92 -11.49)"/>
        <path id="Path_1249838" data-name="Path 1249838" d="M9.285,45a2.285,2.285,0,1,0,2.285,2.285A2.288,2.288,0,0,0,9.285,45Zm0,3.046a.762.762,0,1,1,.762-.762A.762.762,0,0,1,9.285,48.046Z" transform="translate(-2.43 -11.49)"/>
        <path id="Path_1249839" data-name="Path 1249839" d="M56.463,20.486l-1.077-1.077-1.746,1.746V7H52.116V21.155L50.37,19.409l-1.077,1.077,3.585,3.585Z" transform="translate(-12.513 -2.43)"/>
        <path id="Path_1249840" data-name="Path 1249840" d="M46.463,18.486l-1.077-1.077-1.746,1.746V5H42.116V19.155L40.37,17.409l-1.077,1.077,3.585,3.585Z" transform="translate(-10.129 -1.954)"/>
        <path id="Path_1249841" data-name="Path 1249841" d="M36.463,14.486l-1.077-1.077-1.746,1.746V1H32.116V15.155L30.37,13.409l-1.077,1.077,3.585,3.585Z" transform="translate(-7.745 -1)"/>
        <path id="Path_1249842" data-name="Path 1249842" d="M25,7h1.523V8.523H25Z" transform="translate(-6.722 -2.43)"/>
        <path id="Path_1249843" data-name="Path 1249843" d="M21,7h1.523V8.523H21Z" transform="translate(-5.768 -2.43)"/>
        <path id="Path_1249844" data-name="Path 1249844" d="M17,7h1.523V8.523H17Z" transform="translate(-4.815 -2.43)"/>
      </g>
    </g>
  </g>
</svg>
