<svg xmlns="http://www.w3.org/2000/svg" xmlns:xlink="http://www.w3.org/1999/xlink" width="100" height="100" viewBox="0 0 100 100">
  <defs>
    <clipPath id="clip-path">
      <rect id="Rectangle_411540" data-name="Rectangle 411540" width="100" height="100" fill="#fff" stroke="#707070" stroke-width="1"/>
    </clipPath>
  </defs>
  <g id="Group_1210824" data-name="Group 1210824" transform="translate(-907 -1500.5)">
    <g id="Mask_Group_1099406" data-name="Mask Group 1099406" transform="translate(907 1500.5)" clip-path="url(#clip-path)">
      <g id="Group_1210663" data-name="Group 1210663" transform="translate(0.514 2.387)">
        <g id="Rectangle_411539" data-name="Rectangle 411539" fill="#b7a8f1" stroke="#7f74a8" stroke-width="3">
          <rect width="79.44" height="79.44" rx="10" stroke="none"/>
          <rect x="1.5" y="1.5" width="76.44" height="76.44" rx="8.5" fill="none"/>
        </g>
      </g>
    </g>
    <g id="documentos" transform="translate(896.5 1521.47)">
      <g id="Group_1210822" data-name="Group 1210822" transform="translate(31.579 1.079)">
        <path id="Path_1249868" data-name="Path 1249868" d="M163.72,92.5h43.322a.72.72,0,0,1,.72.72v57.859a.72.72,0,0,1-.72.72H163.72a.72.72,0,0,1-.72-.72V93.22A.72.72,0,0,1,163.72,92.5Z" transform="translate(-145.009 -80.266)" fill="#f5f5f5"/>
        <path id="Path_1249869" data-name="Path 1249869" d="M204.523,92.5v55.34a.72.72,0,0,1-.72.72H163V93.22a.72.72,0,0,1,.72-.72Z" transform="translate(-145.009 -80.266)" fill="#e6e6e6"/>
        <path id="Path_1249870" data-name="Path 1249870" d="M164.542,50H121.22a.72.72,0,0,0-.72.72v57.859a.72.72,0,0,0,.72.72h43.322a.72.72,0,0,0,.72-.72V50.72A.72.72,0,0,0,164.542,50Z" transform="translate(-108.626 -43.883)" fill="#f5f5f5"/>
        <path id="Path_1249871" data-name="Path 1249871" d="M162.023,50v55.34a.72.72,0,0,1-.72.72H120.5V50.72a.72.72,0,0,1,.72-.72Z" transform="translate(-108.626 -43.883)" fill="#e6e6e6"/>
        <path id="Path_1249872" data-name="Path 1249872" d="M88.519,8.22V66.079a.72.72,0,0,1-.72.72H45.2A7.2,7.2,0,0,1,38,59.6V57.731a.72.72,0,0,1,.72-.72h4.342a.719.719,0,0,0,.7-.718V8.22a.72.72,0,0,1,.72-.72H87.8A.72.72,0,0,1,88.519,8.22Z" transform="translate(-38 -7.5)" fill="#f5f5f5"/>
        <path id="Path_1249873" data-name="Path 1249873" d="M126.1,70.317H113.72a.72.72,0,0,1-.72-.72V57.22a.72.72,0,0,1,.72-.72H126.1a.72.72,0,0,1,.72.72V69.6A.72.72,0,0,1,126.1,70.317Z" transform="translate(-102.205 -49.448)" fill="#faa515"/>
        <g id="Group_1210821" data-name="Group 1210821" transform="translate(0 7.844)">
          <path id="Path_1249874" data-name="Path 1249874" d="M253.412,134.159H237.579a1.079,1.079,0,0,1,0-2.159h15.832a1.079,1.079,0,0,1,0,2.159Z" transform="translate(-207.93 -121.925)" fill="#2b597f"/>
          <path id="Path_1249875" data-name="Path 1249875" d="M187.555,202.159H171.579a1.079,1.079,0,0,1,0-2.159h15.976a1.079,1.079,0,1,1,0,2.159Z" transform="translate(-151.43 -180.138)" fill="#2b597f"/>
          <path id="Path_1249876" data-name="Path 1249876" d="M253.412,99.159H237.579a1.079,1.079,0,0,1,0-2.159h15.832a1.079,1.079,0,0,1,0,2.159Z" transform="translate(-207.93 -91.963)" fill="#2b597f"/>
          <path id="Path_1249877" data-name="Path 1249877" d="M253.412,64.159H237.579a1.079,1.079,0,0,1,0-2.159h15.832a1.079,1.079,0,0,1,0,2.159Z" transform="translate(-207.93 -62)" fill="#2b597f"/>
          <path id="Path_1249878" data-name="Path 1249878" d="M141.266,291.159H106.579a1.079,1.079,0,0,1,0-2.159h34.687a1.079,1.079,0,0,1,0,2.159Z" transform="translate(-95.785 -256.328)" fill="#2b597f"/>
          <path id="Path_1249879" data-name="Path 1249879" d="M235.434,246.159H216.579a1.079,1.079,0,1,1,0-2.159h18.855a1.079,1.079,0,0,1,0,2.159Z" transform="translate(-189.953 -217.805)" fill="#2b597f"/>
          <path id="Path_1249880" data-name="Path 1249880" d="M116.946,246.159H106.079a1.079,1.079,0,1,1,0-2.159h10.867a1.079,1.079,0,1,1,0,2.159Z" transform="translate(-95.357 -217.805)" fill="#2b597f"/>
          <path id="Path_1249881" data-name="Path 1249881" d="M81.435,361.279H45.2a7.2,7.2,0,0,1-7.2-7.2v-1.871a.72.72,0,0,1,.72-.72H73.591a.72.72,0,0,1,.72.72v1.872A7.2,7.2,0,0,0,81.435,361.279Z" transform="translate(-38 -309.824)" fill="#2b597f"/>
        </g>
      </g>
      <g id="Group_1210823" data-name="Group 1210823" transform="translate(30.5)">
        <path id="Path_1249882" data-name="Path 1249882" d="M94.332,12.234H89.295V7.2a1.079,1.079,0,0,0-1.079-1.079H83.178V1.079A1.079,1.079,0,0,0,82.1,0H37.337a1.079,1.079,0,0,0-1.079,1.079V49.511H31.579A1.079,1.079,0,0,0,30.5,50.591v2.591a8.285,8.285,0,0,0,8.276,8.276h3.6v5.037a1.079,1.079,0,0,0,1.079,1.079h5.037v5.037a1.079,1.079,0,0,0,1.079,1.079H71.232a1.079,1.079,0,0,0,0-2.159H50.65V67.574H88.215a1.079,1.079,0,0,0,1.079-1.079V49.511a1.079,1.079,0,0,0-2.159,0v15.9h-42.6V61.457H82.1a1.079,1.079,0,0,0,1.079-1.079V8.276h3.958V44.618a1.079,1.079,0,0,0,2.159,0V14.393h3.958V71.532H76.125a1.079,1.079,0,1,0,0,2.159H94.332a1.079,1.079,0,0,0,1.079-1.079v-59.3A1.079,1.079,0,0,0,94.332,12.234ZM81.019,59.3H75.046a6.124,6.124,0,0,1-6.117-6.117V50.591a1.079,1.079,0,0,0-1.079-1.079H60.365a1.079,1.079,0,0,0,0,2.159h6.4v1.511A8.256,8.256,0,0,0,69.477,59.3h-30.7a6.124,6.124,0,0,1-6.117-6.117V51.67H55.328a1.079,1.079,0,1,0,0-2.159H38.416V2.159h42.6Z" transform="translate(-30.5)"/>
        <path id="Path_1249883" data-name="Path 1249883" d="M106.579,64.976H120.4a1.079,1.079,0,0,0,1.079-1.079V50.079A1.079,1.079,0,0,0,120.4,49H106.579a1.079,1.079,0,0,0-1.079,1.079V63.9A1.079,1.079,0,0,0,106.579,64.976Zm1.079-13.817h11.658V62.817H107.659Z" transform="translate(-94.705 -41.948)"/>
        <path id="Path_1249884" data-name="Path 1249884" d="M253.412,132H237.579a1.079,1.079,0,0,0,0,2.159h15.832a1.079,1.079,0,0,0,0-2.159Z" transform="translate(-206.851 -113.001)"/>
        <path id="Path_1249885" data-name="Path 1249885" d="M170.5,201.079a1.079,1.079,0,0,0,1.079,1.079h15.976a1.079,1.079,0,1,0,0-2.159H171.579A1.079,1.079,0,0,0,170.5,201.079Z" transform="translate(-150.35 -171.214)"/>
        <path id="Path_1249886" data-name="Path 1249886" d="M253.412,97H237.579a1.079,1.079,0,0,0,0,2.159h15.832a1.079,1.079,0,0,0,0-2.159Z" transform="translate(-206.851 -83.039)"/>
        <path id="Path_1249887" data-name="Path 1249887" d="M253.412,62H237.579a1.079,1.079,0,0,0,0,2.159h15.832a1.079,1.079,0,0,0,0-2.159Z" transform="translate(-206.851 -53.076)"/>
        <path id="Path_1249888" data-name="Path 1249888" d="M141.266,289H106.579a1.079,1.079,0,0,0,0,2.159h34.687a1.079,1.079,0,0,0,0-2.159Z" transform="translate(-94.705 -247.405)"/>
        <path id="Path_1249889" data-name="Path 1249889" d="M235.434,244H216.579a1.079,1.079,0,1,0,0,2.159h18.855a1.079,1.079,0,0,0,0-2.159Z" transform="translate(-188.873 -208.882)"/>
        <path id="Path_1249890" data-name="Path 1249890" d="M106.079,246.159h10.867a1.079,1.079,0,1,0,0-2.159H106.079a1.079,1.079,0,1,0,0,2.159Z" transform="translate(-94.277 -208.882)"/>
      </g>
    </g>
  </g>
</svg>
