<svg xmlns="http://www.w3.org/2000/svg" xmlns:xlink="http://www.w3.org/1999/xlink" width="100" height="100" viewBox="0 0 100 100">
  <defs>
    <clipPath id="clip-path">
      <rect id="Rectangle_411538" data-name="Rectangle 411538" width="100" height="100" fill="#fff" stroke="#707070" stroke-width="1"/>
    </clipPath>
  </defs>
  <g id="Group_1210820" data-name="Group 1210820" transform="translate(-592 -1500.5)">
    <g id="Mask_Group_1099405" data-name="Mask Group 1099405" transform="translate(592 1500.5)" clip-path="url(#clip-path)">
      <g id="Group_1210576" data-name="Group 1210576" transform="translate(0.514 2.387)">
        <g id="Rectangle_411537" data-name="Rectangle 411537" fill="#b7a8f1" stroke="#7f74a8" stroke-width="3">
          <rect width="79.44" height="79.44" rx="10" stroke="none"/>
          <rect x="1.5" y="1.5" width="76.44" height="76.44" rx="8.5" fill="none"/>
        </g>
      </g>
    </g>
    <g id="factura" transform="translate(612 1522)">
      <path id="Path_1249859" data-name="Path 1249859" d="M82.629,72.758H37.887V12.71A4.71,4.71,0,0,0,33.177,8H77.919a4.71,4.71,0,0,1,4.71,4.71Z" transform="translate(-27.29 -6.823)" fill="#ececec"/>
      <g id="Group_1210818" data-name="Group 1210818" transform="translate(1.177 1.177)">
        <path id="Path_1249860" data-name="Path 1249860" d="M72,393.419h49.452a4.71,4.71,0,0,0,4.71-4.71V384H81.419v4.71a4.71,4.71,0,0,1-4.71,4.71Z" transform="translate(-62.581 -328.661)" fill="#fea82f"/>
        <path id="Path_1249861" data-name="Path 1249861" d="M17.419,22.129H8V12.71A4.71,4.71,0,0,1,12.71,8h0a4.71,4.71,0,0,1,4.71,4.71Z" transform="translate(-8 -8)" fill="#fea82f"/>
      </g>
      <path id="Path_1249862" data-name="Path 1249862" d="M328.242,155.672a11.777,11.777,0,0,0,0,22.468Z" transform="translate(-272.903 -132.761)" fill="#b6c1ce"/>
      <ellipse id="Ellipse_12801" data-name="Ellipse 12801" cx="12" cy="11.5" rx="12" ry="11.5" transform="translate(48 19)" fill="#fea82f"/>
      <path id="Path_1249863" data-name="Path 1249863" d="M339.774,210.6A11.776,11.776,0,0,1,328.059,200c-.038.387-.059.779-.059,1.177a11.774,11.774,0,1,0,23.548,0c0-.4-.021-.79-.059-1.177A11.776,11.776,0,0,1,339.774,210.6Z" transform="translate(-279.726 -170.565)" fill="#ff8031"/>
      <g id="Group_1210819" data-name="Group 1210819" transform="translate(1.177 5.887)">
        <rect id="Rectangle_411586" data-name="Rectangle 411586" width="14" height="10" transform="translate(-0.177 56.113)" fill="#92e0c0"/>
        <rect id="Rectangle_411587" data-name="Rectangle 411587" width="33" height="13" transform="translate(14.823 0.113)" fill="#92e0c0"/>
      </g>
      <rect id="Rectangle_411588" data-name="Rectangle 411588" width="10" height="3" transform="translate(1 12)" fill="#ff8031"/>
      <rect id="Rectangle_411589" data-name="Rectangle 411589" width="14" height="4" transform="translate(1 68)" fill="#48c397"/>
      <path id="Path_1249864" data-name="Path 1249864" d="M33.177,192.032,32.036,182.9A4.6,4.6,0,0,1,32,182.32v-10.01a4.6,4.6,0,0,1,.036-.584l.981-7.843a3.124,3.124,0,0,1,.956-2.045l6.734-8.66A2.048,2.048,0,0,1,42.579,152h0a2.372,2.372,0,0,1,2.373,2.372v.4a2.373,2.373,0,0,1-.442,1.379l-4.568,6.4a4.7,4.7,0,0,0-.877,2.736v6.8a4.723,4.723,0,0,0,.5,2.106l1.858,3.715h0l5.156-5.156a2.5,2.5,0,0,1,1.766-.731h0a2.5,2.5,0,0,1,2.5,2.5h0a2.5,2.5,0,0,1-.731,1.766l-8.688,8.688v7.065Z" transform="translate(-27.29 -129.629)" fill="#f9e0a6"/>
      <path id="Path_1249865" data-name="Path 1249865" d="M104,47.306h35.323V32H104Zm2.355-12.952h30.613v10.6H106.355Z" transform="translate(-88.694 -27.29)"/>
      <rect id="Rectangle_411590" data-name="Rectangle 411590" width="24" height="2" transform="translate(21 37)"/>
      <rect id="Rectangle_411591" data-name="Rectangle 411591" width="7" height="2" transform="translate(24 27)"/>
      <rect id="Rectangle_411592" data-name="Rectangle 411592" width="7" height="2" transform="translate(35 27)"/>
      <rect id="Rectangle_411593" data-name="Rectangle 411593" width="7" height="2" transform="translate(24 32)"/>
      <rect id="Rectangle_411594" data-name="Rectangle 411594" width="7" height="2" transform="translate(35 32)"/>
      <rect id="Rectangle_411595" data-name="Rectangle 411595" width="19" height="2" transform="translate(32 46)"/>
      <rect id="Rectangle_411596" data-name="Rectangle 411596" width="7" height="2" transform="translate(44 51)"/>
      <rect id="Rectangle_411597" data-name="Rectangle 411597" width="7" height="2" transform="translate(32 51)"/>
      <path id="Path_1249866" data-name="Path 1249866" d="M387.532,156.71a1.179,1.179,0,0,1,1.177,1.177h2.355a3.527,3.527,0,0,0-2.355-3.316V152h-2.355v2.571a3.524,3.524,0,0,0,1.177,6.848,1.177,1.177,0,1,1-1.177,1.177H384a3.527,3.527,0,0,0,2.355,3.316v2.571h2.355v-2.571a3.524,3.524,0,0,0-1.177-6.848,1.177,1.177,0,0,1,0-2.355Z" transform="translate(-327.484 -129.629)"/>
      <rect id="Rectangle_411598" data-name="Rectangle 411598" width="2" height="3" transform="translate(66 29)"/>
      <rect id="Rectangle_411599" data-name="Rectangle 411599" width="2" height="3" transform="translate(52 29)"/>
      <path id="Path_1249867" data-name="Path 1249867" d="M70.882,37.714A12.934,12.934,0,0,0,56.516,18.163V5.887A5.894,5.894,0,0,0,50.629,0H5.887A5.894,5.894,0,0,0,0,5.887v10.6H9.419v8.773l-4.769,6.13a4.351,4.351,0,0,0-1.27,2.72L2.4,41.95a6.061,6.061,0,0,0-.046.73v10.01a6.046,6.046,0,0,0,.046.73l.975,7.805H0V73H16.484V67.113H60.048a5.894,5.894,0,0,0,5.887-5.887V55.339H56.516V43.063a12.884,12.884,0,0,0,12.7-3.306l-1.667-1.663a10.577,10.577,0,1,1,1.36-1.673ZM2.355,14.129V5.887a3.532,3.532,0,0,1,7.065,0v8.242Zm2.382,39a3.664,3.664,0,0,1-.027-.439V42.68a3.63,3.63,0,0,1,.027-.438l.98-7.843a2.07,2.07,0,0,1,.515-1.266l6.939-8.862.109-.168a.875.875,0,0,1,.832-.555,1.2,1.2,0,0,1,1.2,1.2v.4a1.192,1.192,0,0,1-.221.695l-4.568,6.4a5.843,5.843,0,0,0-1.1,3.42v6.8a5.943,5.943,0,0,0,.621,2.633L11.047,47.1H10.6v2.355h2.842l5.5-5.5a1.32,1.32,0,0,1,2.254.934,1.31,1.31,0,0,1-.386.934l-9.033,9.033v6.375H5.749Zm9.392,17.515H2.355V63.581H14.129Zm49.452-9.419a3.537,3.537,0,0,1-3.532,3.532H20.014a5.856,5.856,0,0,0,1.18-3.532V57.694H63.581ZM47.1,30.613a12.957,12.957,0,0,0,7.065,11.522v13.2H18.839v5.887a3.527,3.527,0,0,1-2.355,3.316V61.226H14.129v-5.4l8.343-8.343a3.675,3.675,0,0,0-2.6-6.273,3.7,3.7,0,0,0-2.6,1.076l-4,4-1.128-2.254a3.558,3.558,0,0,1-.372-1.58v-6.8a3.513,3.513,0,0,1,.658-2.053L17,27.205a3.525,3.525,0,0,0,.661-2.063v-.4a3.554,3.554,0,0,0-3.55-3.549A3.157,3.157,0,0,0,11.774,22.2V5.887a5.826,5.826,0,0,0-1.208-3.532H50.629a3.537,3.537,0,0,1,3.532,3.532v13.2A12.957,12.957,0,0,0,47.1,30.613Z"/>
    </g>
  </g>
</svg>
