<svg xmlns="http://www.w3.org/2000/svg" xmlns:xlink="http://www.w3.org/1999/xlink" width="98" height="98" viewBox="0 0 98 98">
  <defs>
    <filter id="Path_874925" x="0" y="0" width="98" height="98" filterUnits="userSpaceOnUse">
      <feOffset dy="3" input="SourceAlpha"/>
      <feGaussianBlur stdDeviation="3" result="blur"/>
      <feFlood flood-opacity="0.161"/>
      <feComposite operator="in" in2="blur"/>
      <feComposite in="SourceGraphic"/>
    </filter>
  </defs>
  <g id="Group_1210844" data-name="Group 1210844" transform="translate(-433.051 -1468)">
    <g id="Group_1209731" data-name="Group 1209731" transform="translate(157.359 -4623)">
      <g id="Group_1200231" data-name="Group 1200231" transform="translate(-0.309 -0.407)">
        <g id="Group_1187153" data-name="Group 1187153">
          <g id="Group_1182177" data-name="Group 1182177">
            <g id="Group_1181903" data-name="Group 1181903">
              <g id="Group_1181438" data-name="Group 1181438">
                <g id="Group_1111314" data-name="Group 1111314" transform="translate(-734.73 3020.407)">
                  <g transform="matrix(1, 0, 0, 1, 1010.73, 3071)" filter="url(#Path_874925)">
                    <g id="Path_874925-2" data-name="Path 874925" transform="translate(9 6)" fill="#fd9826">
                      <path d="M 39.99997329711914 79.50040435791016 C 34.66728591918945 79.50040435791016 29.494384765625 78.45610046386719 24.62495040893555 76.39649963378906 C 19.92138481140137 74.40706634521484 15.69705104827881 71.55889892578125 12.06927299499512 67.93113708496094 C 8.441506385803223 64.30335998535156 5.593339920043945 60.07902526855469 3.603906631469727 55.37545776367188 C 1.544306635856628 50.50602340698242 0.5000066161155701 45.33312606811523 0.5000066161155701 40.00043487548828 C 0.5000066161155701 34.66728973388672 1.544306635856628 29.4943904876709 3.603906631469727 24.62495803833008 C 5.593339920043945 19.92139053344727 8.441506385803223 15.69704627990723 12.06927299499512 12.06927967071533 C 15.69705104827881 8.441502571105957 19.92138481140137 5.59334659576416 24.62495040893555 3.603902101516724 C 29.494384765625 1.544302225112915 34.66728591918945 0.5000022053718567 39.99997329711914 0.5000022053718567 C 45.33266067504883 0.5000022053718567 50.50556182861328 1.544302225112915 55.37499618530273 3.603902101516724 C 60.07856369018555 5.59334659576416 64.30290985107422 8.441502571105957 67.93067169189453 12.06927967071533 C 71.55844879150391 15.69704627990723 74.40660858154297 19.92139053344727 76.39604949951172 24.62495803833008 C 78.45565032958984 29.4943904876709 79.49995422363281 34.66728973388672 79.49995422363281 39.99998092651367 C 79.49995422363281 45.33312606811523 78.45565032958984 50.50602340698242 76.39604949951172 55.37545776367188 C 74.40660858154297 60.07902526855469 71.55844879150391 64.30335998535156 67.93067169189453 67.93113708496094 C 64.30290985107422 71.55889892578125 60.07856369018555 74.40706634521484 55.37499618530273 76.39649963378906 C 50.50556182861328 78.45610046386719 45.33266067504883 79.50040435791016 39.99997329711914 79.50040435791016 Z" stroke="none"/>
                      <path d="M 39.99997329711914 1 C 34.73457336425781 1 29.627197265625 2.031013488769531 24.81972885131836 4.064399719238281 C 20.17576217651367 6.028633117675781 16.00484085083008 8.840812683105469 12.42282867431641 12.42282104492188 C 8.840805053710938 16.00483703613281 6.02862548828125 20.17575836181641 4.06439208984375 24.81973648071289 C 2.031005859375 29.62720108032227 0.9999923706054688 34.73456954956055 0.9999923706054688 40.00043487548828 C 0.9999923706054688 45.26583480834961 2.031005859375 50.37321472167969 4.06439208984375 55.18067932128906 C 6.02862548828125 59.82464599609375 8.840805053710938 63.99556732177734 12.42282867431641 67.57757568359375 C 16.00484085083008 71.15959167480469 20.17576217651367 73.97177124023438 24.81972885131836 75.93600463867188 C 29.627197265625 77.96939086914062 34.73457336425781 79.00040435791016 39.99997329711914 79.00040435791016 C 45.26537322998047 79.00040435791016 50.37274932861328 77.96939086914062 55.18021774291992 75.93600463867188 C 59.82418441772461 73.97177124023438 63.9951057434082 71.15959167480469 67.57711791992188 67.57757568359375 C 71.15912628173828 63.99556732177734 73.97130584716797 59.82464599609375 75.93553924560547 55.18067932128906 C 77.96892547607422 50.37321472167969 78.99993896484375 45.26583480834961 78.99993896484375 39.99998092651367 C 78.99993896484375 34.73456954956055 77.96892547607422 29.62720108032227 75.93553924560547 24.81973648071289 C 73.97130584716797 20.17575836181641 71.15912628173828 16.00483703613281 67.57711791992188 12.42282104492188 C 63.9951057434082 8.840812683105469 59.82418441772461 6.028633117675781 55.18021774291992 4.064399719238281 C 50.37274932861328 2.031013488769531 45.26537322998047 1 39.99997329711914 1 M 39.99997329711914 0 C 62.09135055541992 0 79.99993896484375 17.90859222412109 79.99993896484375 39.99998092651367 L 79.99993896484375 40.00043487548828 C 79.99993896484375 62.09181213378906 62.09135055541992 80.00040435791016 39.99997329711914 80.00040435791016 C 17.90859603881836 80.00040435791016 -7.62939453125e-06 62.09181213378906 -7.62939453125e-06 40.00043487548828 L -7.62939453125e-06 39.99998092651367 C -7.62939453125e-06 17.90859222412109 17.90859603881836 0 39.99997329711914 0 Z" stroke="none" fill="#af6a1a"/>
                    </g>
                  </g>
                </g>
              </g>
            </g>
          </g>
        </g>
      </g>
    </g>
    <g id="identificar" transform="translate(459.174 1489.058)">
      <path id="Path_1249710" data-name="Path 1249710" d="M47.558,44.469l-3.5-3.5a10.094,10.094,0,0,1-3.089,3.089l3.5,3.5Z" transform="translate(-9.103 -9.103)" fill="#c8cded"/>
      <path id="Path_1249711" data-name="Path 1249711" d="M6,2H44.614V22.079H6Z" transform="translate(-1.139 -0.228)" fill="#4d8c28"/>
      <path id="Path_1249712" data-name="Path 1249712" d="M2,6H40.614V26.079H2Z" transform="translate(-0.228 -1.139)" fill="#559b2d"/>
      <path id="Path_1249713" data-name="Path 1249713" d="M38.435,21.584A2.317,2.317,0,0,0,36.119,23.9H8.317A2.317,2.317,0,0,0,6,21.584V12.317A2.317,2.317,0,0,0,8.317,10h27.8a2.317,2.317,0,0,0,2.317,2.317Z" transform="translate(-1.139 -2.05)" fill="#e2e7f6"/>
      <path id="Path_1249714" data-name="Path 1249714" d="M34.352,16.178V10H8.317A2.317,2.317,0,0,1,6,12.317v6.95H31.263A3.089,3.089,0,0,0,34.352,16.178Z" transform="translate(-1.139 -2.05)" fill="#f2f2f2"/>
      <circle id="Ellipse_12784" data-name="Ellipse 12784" cx="7" cy="7" r="7" transform="translate(13.876 7.886)" fill="#4d8c28"/>
      <path id="Path_1249715" data-name="Path 1249715" d="M30.361,16.181a6.944,6.944,0,0,0-3.071-5.768,6.95,6.95,0,0,0-6.214,12.309,6.936,6.936,0,0,0,9.285-6.54Z" transform="translate(-3.877 -2.053)" fill="#559b2d"/>
      <path id="Path_1249716" data-name="Path 1249716" d="M29.178,15.861v-.772a2.317,2.317,0,0,0-2.317-2.317V12H25.317v.772A2.317,2.317,0,0,0,23,15.089v.772a2.317,2.317,0,0,0,2.317,2.317V20.5a.772.772,0,0,1-.772-.772H23a2.317,2.317,0,0,0,2.317,2.317v.772h1.545V22.04a2.317,2.317,0,0,0,2.317-2.317V18.95a2.317,2.317,0,0,0-2.317-2.317V14.317a.772.772,0,0,1,.772.772v.772ZM27.634,18.95v.772a.772.772,0,0,1-.772.772V18.178A.772.772,0,0,1,27.634,18.95Zm-2.317-2.317a.772.772,0,0,1-.772-.772v-.772a.772.772,0,0,1,.772-.772Z" transform="translate(-5.01 -2.505)" fill="#e2e7f6"/>
      <circle id="Ellipse_12785" data-name="Ellipse 12785" cx="10" cy="10" r="10" transform="translate(16.876 16.886)" fill="#78a0d4"/>
      <path id="Path_1249717" data-name="Path 1249717" d="M49.536,56.171,44,49.406,49.406,44l6.765,5.536a4.715,4.715,0,1,1-6.635,6.635Z" transform="translate(-9.793 -9.792)" fill="#78a0d4"/>
      <path id="Path_1249718" data-name="Path 1249718" d="M58.41,52.721a4.705,4.705,0,0,0-1.7-3.186L49.941,44,46.35,47.591l4.493,5.491a4.715,4.715,0,0,0,7.568-.361Z" transform="translate(-10.328 -9.792)" fill="#93bee5"/>
      <circle id="Ellipse_12786" data-name="Ellipse 12786" cx="7" cy="7" r="7" transform="translate(19.876 19.886)" fill="#e2e7f6"/>
      <path id="Path_1249719" data-name="Path 1249719" d="M25,31.951a6.93,6.93,0,0,0,2.014,4.892A6.95,6.95,0,0,0,34.57,25.515,6.95,6.95,0,0,0,25,31.951Z" transform="translate(-5.466 -5.466)" fill="#f2f2f2"/>
      <path id="Path_1249720" data-name="Path 1249720" d="M18.99,56.125a1.776,1.776,0,0,0-.3-.986l-7-10.5a1.443,1.443,0,0,0-2.4,0l-7,10.494A1.778,1.778,0,0,0,3.776,57.9H17.214a1.776,1.776,0,0,0,1.776-1.776Z" transform="translate(-0.228 -9.792)" fill="#f4a93c"/>
      <path id="Path_1249721" data-name="Path 1249721" d="M16.673,56.3a1.776,1.776,0,0,0-.3-.986l-7-10.5c-.012-.019-.029-.032-.042-.049-.013.017-.03.03-.042.049l-7,10.494a1.776,1.776,0,0,0,1.477,2.765H14.9A1.776,1.776,0,0,0,16.673,56.3Z" transform="translate(-0.228 -9.967)" fill="#f6b940"/>
      <path id="Path_1249722" data-name="Path 1249722" d="M12,49h1.545v5.406H12Z" transform="translate(-2.505 -10.931)" fill="#474747"/>
      <path id="Path_1249723" data-name="Path 1249723" d="M12,57h1.545v1.545H12Z" transform="translate(-2.505 -12.753)" fill="#474747"/>
      <path id="Path_1249724" data-name="Path 1249724" d="M46.868,39.146,40.1,33.61a.772.772,0,0,0-1.035.052l-.612.612-2.532-2.532A10.735,10.735,0,0,0,37.3,26.485c0-.261-.021-.516-.039-.772h3.128a.772.772,0,0,0,.772-.772V22.624h2.317a.772.772,0,0,0,.772-.772V1.772A.772.772,0,0,0,43.475,1H4.861a.772.772,0,0,0-.772.772V4.089H1.772A.772.772,0,0,0,1,4.861V24.94a.772.772,0,0,0,.772.772h13.94c-.019.256-.039.511-.039.772a10.8,10.8,0,0,0,16.069,9.439l2.532,2.532-.612.612A.772.772,0,0,0,33.61,40.1l5.536,6.766a5.489,5.489,0,1,0,7.723-7.723ZM20.307,14.129a.772.772,0,0,1-.772-.772v-.772a.772.772,0,0,1,.772-.772Zm3.8,1.816a2.317,2.317,0,0,0-2.259-1.816V11.812a.772.772,0,0,1,.772.772v.772h1.545v-.772a2.317,2.317,0,0,0-2.317-2.317V9.5H20.307v.772a2.317,2.317,0,0,0-2.317,2.317v.772a2.317,2.317,0,0,0,2.317,2.317v1.952c-.124.087-.243.181-.364.273a.772.772,0,0,1-.409-.68H17.99a2.317,2.317,0,0,0,.772,1.714,10.927,10.927,0,0,0-.99,1.176A6.174,6.174,0,1,1,27.257,14.9a6.286,6.286,0,0,1-.058.809c-.237-.015-.473-.036-.714-.036A10.8,10.8,0,0,0,24.11,15.944Zm-1.5.457q-.391.151-.764.33V15.673a.772.772,0,0,1,.764.728Zm-6.15,4.678H7.853a3.1,3.1,0,0,0-2.22-2.219V10.941a3.1,3.1,0,0,0,2.22-2.219h8.612a7.693,7.693,0,0,0,0,12.356ZM25.693,8.723h8.612a3.1,3.1,0,0,0,2.22,2.219V18.86a3.1,3.1,0,0,0-1.545.958,10.812,10.812,0,0,0-6.25-3.907,7.615,7.615,0,0,0-3.037-7.188ZM5.634,2.545H42.7V21.079H41.158V4.861a.772.772,0,0,0-.772-.772H5.634ZM2.545,24.168V5.634H39.614V24.168H37.04A10.735,10.735,0,0,0,35.9,21.191a1.545,1.545,0,0,1,1.395-.884.772.772,0,0,0,.772-.772V10.267A.772.772,0,0,0,37.3,9.5,1.545,1.545,0,0,1,35.752,7.95a.772.772,0,0,0-.772-.772H7.178a.772.772,0,0,0-.772.772A1.545,1.545,0,0,1,4.861,9.5a.772.772,0,0,0-.772.772v9.267a.772.772,0,0,0,.772.772,1.545,1.545,0,0,1,1.545,1.545.772.772,0,0,0,.772.772H16.4a10.723,10.723,0,0,0-.469,1.545Zm14.673,2.317a9.267,9.267,0,1,1,9.267,9.267,9.267,9.267,0,0,1-9.267-9.267Zm15.837,8.567a10.867,10.867,0,0,0,2-2l2.311,2.311-2,2ZM43.393,47.336a3.934,3.934,0,0,1-3.053-1.446l-5.092-6.225,4.417-4.417,6.225,5.093a3.943,3.943,0,0,1-2.5,7Z" transform="translate(-0.001)"/>
      <path id="Path_1249725" data-name="Path 1249725" d="M31.723,24a7.723,7.723,0,1,0,7.723,7.723A7.723,7.723,0,0,0,31.723,24Zm0,13.9A6.178,6.178,0,1,1,37.9,31.723,6.178,6.178,0,0,1,31.723,37.9Z" transform="translate(-5.238 -5.238)"/>
      <path id="Path_1249726" data-name="Path 1249726" d="M12.11,43.986a2.216,2.216,0,0,0-3.687,0l-7,10.494a2.548,2.548,0,0,0,2.12,3.966H16.986a2.548,2.548,0,0,0,2.122-3.966ZM16.986,56.9H3.548a1,1,0,0,1-.837-1.564l7-10.494a.671.671,0,0,1,1.117,0l7,10.494a1,1,0,0,1-.833,1.564Z" transform="translate(0 -9.564)"/>
      <path id="Path_1249727" data-name="Path 1249727" d="M12,49h1.545v5.406H12Z" transform="translate(-2.505 -10.931)"/>
      <path id="Path_1249728" data-name="Path 1249728" d="M12,57h1.545v1.545H12Z" transform="translate(-2.505 -12.753)"/>
    </g>
  </g>
</svg>
