<svg xmlns="http://www.w3.org/2000/svg" xmlns:xlink="http://www.w3.org/1999/xlink" width="98" height="98" viewBox="0 0 98 98">
  <defs>
    <filter id="Path_874925" x="0" y="0" width="98" height="98" filterUnits="userSpaceOnUse">
      <feOffset dy="3" input="SourceAlpha"/>
      <feGaussianBlur stdDeviation="3" result="blur"/>
      <feFlood flood-opacity="0.161"/>
      <feComposite operator="in" in2="blur"/>
      <feComposite in="SourceGraphic"/>
    </filter>
  </defs>
  <g id="Group_1210759" data-name="Group 1210759" transform="translate(-909.051 -639)">
    <g id="Group_1209730" data-name="Group 1209730" transform="translate(633.359 -5452)">
      <g id="Group_1200231" data-name="Group 1200231" transform="translate(-0.309 -0.407)">
        <g id="Group_1187153" data-name="Group 1187153">
          <g id="Group_1182177" data-name="Group 1182177">
            <g id="Group_1181903" data-name="Group 1181903">
              <g id="Group_1181438" data-name="Group 1181438">
                <g id="Group_1111314" data-name="Group 1111314" transform="translate(-734.73 3020.407)">
                  <g transform="matrix(1, 0, 0, 1, 1010.73, 3071)" filter="url(#Path_874925)">
                    <g id="Path_874925-2" data-name="Path 874925" transform="translate(9 6)" fill="#fd9826">
                      <path d="M 39.99997329711914 79.50040435791016 C 34.66728591918945 79.50040435791016 29.494384765625 78.45610046386719 24.62495040893555 76.39649963378906 C 19.92138481140137 74.40706634521484 15.69705104827881 71.55889892578125 12.06927299499512 67.93113708496094 C 8.441506385803223 64.30335998535156 5.593339920043945 60.07902526855469 3.603906631469727 55.37545776367188 C 1.544306635856628 50.50602340698242 0.5000066161155701 45.33312606811523 0.5000066161155701 40.00043487548828 C 0.5000066161155701 34.66728973388672 1.544306635856628 29.4943904876709 3.603906631469727 24.62495803833008 C 5.593339920043945 19.92139053344727 8.441506385803223 15.69704627990723 12.06927299499512 12.06927967071533 C 15.69705104827881 8.441502571105957 19.92138481140137 5.59334659576416 24.62495040893555 3.603902101516724 C 29.494384765625 1.544302225112915 34.66728591918945 0.5000022053718567 39.99997329711914 0.5000022053718567 C 45.33266067504883 0.5000022053718567 50.50556182861328 1.544302225112915 55.37499618530273 3.603902101516724 C 60.07856369018555 5.59334659576416 64.30290985107422 8.441502571105957 67.93067169189453 12.06927967071533 C 71.55844879150391 15.69704627990723 74.40660858154297 19.92139053344727 76.39604949951172 24.62495803833008 C 78.45565032958984 29.4943904876709 79.49995422363281 34.66728973388672 79.49995422363281 39.99998092651367 C 79.49995422363281 45.33312606811523 78.45565032958984 50.50602340698242 76.39604949951172 55.37545776367188 C 74.40660858154297 60.07902526855469 71.55844879150391 64.30335998535156 67.93067169189453 67.93113708496094 C 64.30290985107422 71.55889892578125 60.07856369018555 74.40706634521484 55.37499618530273 76.39649963378906 C 50.50556182861328 78.45610046386719 45.33266067504883 79.50040435791016 39.99997329711914 79.50040435791016 Z" stroke="none"/>
                      <path d="M 39.99997329711914 1 C 34.73457336425781 1 29.627197265625 2.031013488769531 24.81972885131836 4.064399719238281 C 20.17576217651367 6.028633117675781 16.00484085083008 8.840812683105469 12.42282867431641 12.42282104492188 C 8.840805053710938 16.00483703613281 6.02862548828125 20.17575836181641 4.06439208984375 24.81973648071289 C 2.031005859375 29.62720108032227 0.9999923706054688 34.73456954956055 0.9999923706054688 40.00043487548828 C 0.9999923706054688 45.26583480834961 2.031005859375 50.37321472167969 4.06439208984375 55.18067932128906 C 6.02862548828125 59.82464599609375 8.840805053710938 63.99556732177734 12.42282867431641 67.57757568359375 C 16.00484085083008 71.15959167480469 20.17576217651367 73.97177124023438 24.81972885131836 75.93600463867188 C 29.627197265625 77.96939086914062 34.73457336425781 79.00040435791016 39.99997329711914 79.00040435791016 C 45.26537322998047 79.00040435791016 50.37274932861328 77.96939086914062 55.18021774291992 75.93600463867188 C 59.82418441772461 73.97177124023438 63.9951057434082 71.15959167480469 67.57711791992188 67.57757568359375 C 71.15912628173828 63.99556732177734 73.97130584716797 59.82464599609375 75.93553924560547 55.18067932128906 C 77.96892547607422 50.37321472167969 78.99993896484375 45.26583480834961 78.99993896484375 39.99998092651367 C 78.99993896484375 34.73456954956055 77.96892547607422 29.62720108032227 75.93553924560547 24.81973648071289 C 73.97130584716797 20.17575836181641 71.15912628173828 16.00483703613281 67.57711791992188 12.42282104492188 C 63.9951057434082 8.840812683105469 59.82418441772461 6.028633117675781 55.18021774291992 4.064399719238281 C 50.37274932861328 2.031013488769531 45.26537322998047 1 39.99997329711914 1 M 39.99997329711914 0 C 62.09135055541992 0 79.99993896484375 17.90859222412109 79.99993896484375 39.99998092651367 L 79.99993896484375 40.00043487548828 C 79.99993896484375 62.09181213378906 62.09135055541992 80.00040435791016 39.99997329711914 80.00040435791016 C 17.90859603881836 80.00040435791016 -7.62939453125e-06 62.09181213378906 -7.62939453125e-06 40.00043487548828 L -7.62939453125e-06 39.99998092651367 C -7.62939453125e-06 17.90859222412109 17.90859603881836 0 39.99997329711914 0 Z" stroke="none" fill="#af6a1a"/>
                    </g>
                  </g>
                </g>
              </g>
            </g>
          </g>
        </g>
      </g>
    </g>
    <g id="registro" transform="translate(935.613 657.781)">
      <g id="Group_1210757" data-name="Group 1210757" transform="translate(1.846 1.846)">
        <g id="Group_1210741" data-name="Group 1210741" transform="translate(25.373 1.692)">
          <path id="Path_1249689" data-name="Path 1249689" d="M42.149,7.383v8.458l-.846.846-2.537,2.537V7.383H32V4h6.766A3.382,3.382,0,0,1,42.149,7.383Z" transform="translate(-32 -4)" fill="#ccd1d9"/>
        </g>
        <g id="Group_1210742" data-name="Group 1210742" transform="translate(0 1.692)">
          <path id="Path_1249690" data-name="Path 1249690" d="M37.336,34.152l.186.051V49.671a3.382,3.382,0,0,1-3.383,3.383H5.383A3.382,3.382,0,0,1,2,49.671V7.383A3.382,3.382,0,0,1,5.383,4h6.766V7.383H5.383V49.671H34.139V33.247h.017Z" transform="translate(-2 -4)" fill="#ccd1d9"/>
        </g>
        <g id="Group_1210743" data-name="Group 1210743" transform="translate(10.149 0)">
          <path id="Path_1249691" data-name="Path 1249691" d="M29.224,3.692V7.075H14V2.846A.848.848,0,0,1,14.846,2H28.378a.848.848,0,0,1,.846.846Z" transform="translate(-14 -2)" fill="#5cd6b3"/>
        </g>
        <g id="Group_1210744" data-name="Group 1210744" transform="translate(3.383 5.075)">
          <path id="Path_1249692" data-name="Path 1249692" d="M27.99,8H6V50.288H34.756V8Z" transform="translate(-6 -8)" fill="#ffeaa7"/>
        </g>
        <g id="Group_1210745" data-name="Group 1210745" transform="translate(6.766 8.458)">
          <path id="Path_1249693" data-name="Path 1249693" d="M25.224,12V24.441a5.126,5.126,0,0,0-1.759,1.7L23.3,26.4a7.582,7.582,0,0,0-5.692-2.563,4.229,4.229,0,1,0-4.229-4.229,4.23,4.23,0,0,0,4.229,4.229A7.623,7.623,0,0,0,10,31.453V12Z" transform="translate(-10 -12)" fill="#e6e9ed"/>
        </g>
        <g id="Group_1210746" data-name="Group 1210746" transform="translate(34.676 11.841)">
          <path id="Path_1249694" data-name="Path 1249694" d="M45.537,16l5.075,5.075-2.537,2.537-2.537-2.537L43,18.537l.846-.846Z" transform="translate(-43 -16)" fill="#ffeaa7"/>
        </g>
        <g id="Group_1210747" data-name="Group 1210747" transform="translate(37.214 10.149)">
          <path id="Path_1249695" data-name="Path 1249695" d="M52.766,17.586a3.591,3.591,0,0,1-1.049,2.537l-.643.643L46,15.692l.643-.643a3.586,3.586,0,0,1,6.123,2.537Z" transform="translate(-46 -14)" fill="#aab2bd"/>
        </g>
        <g id="Group_1210748" data-name="Group 1210748" transform="translate(13.532 32.985)">
          <path id="Path_1249696" data-name="Path 1249696" d="M20.537,41,18,48.612l7.612-2.537Z" transform="translate(-18 -41)" fill="#aab2bd"/>
        </g>
        <g id="Group_1210749" data-name="Group 1210749" transform="translate(18.607 29.458)">
          <path id="Path_1249697" data-name="Path 1249697" d="M32.449,37.82h1.7l-7.612,7.612L24,42.894l6.064-6.064A3.369,3.369,0,0,0,32.449,37.82Z" transform="translate(-24 -36.83)" fill="#5cd6b3"/>
        </g>
        <g id="Group_1210750" data-name="Group 1210750" transform="translate(28.756 16.915)">
          <path id="Path_1249698" data-name="Path 1249698" d="M46.995,24.537,45.583,25.95l-2.275,2.275a7.618,7.618,0,0,1-5.388,2.233H36L44.458,22Z" transform="translate(-36 -22)" fill="#5cd6b3"/>
        </g>
        <g id="Group_1210751" data-name="Group 1210751" transform="translate(16.066 14.379)">
          <path id="Path_1249699" data-name="Path 1249699" d="M0,0H26.314V3.589H0Z" transform="translate(0 18.604) rotate(-45)" fill="#fcd770"/>
        </g>
        <g id="Group_1210752" data-name="Group 1210752" transform="translate(6.766 20.298)">
          <path id="Path_1249700" data-name="Path 1249700" d="M20.166,34.458H10v-.846a7.609,7.609,0,0,1,13.3-5.049L20.445,33.13a1.985,1.985,0,0,0-.3,1.049c0,.093.008.186.017.279Z" transform="translate(-10 -26)" fill="#ef7385"/>
        </g>
        <g id="Group_1210753" data-name="Group 1210753" transform="translate(42.288 18.607)">
          <path id="Path_1249701" data-name="Path 1249701" d="M60.458,24V36.686L52,35.841V27.383Z" transform="translate(-52 -24)" fill="#5cd6b3"/>
        </g>
        <g id="Group_1210754" data-name="Group 1210754" transform="translate(23.681 20.865)">
          <path id="Path_1249702" data-name="Path 1249702" d="M48.607,27.795v8.458L48,36.658a7.655,7.655,0,0,1-4.237,1.286,7.76,7.76,0,0,1-1.92-.245l-.186-.051-3.18-.9h-.017a12.4,12.4,0,0,0-3.383-.491h-1.7A3.379,3.379,0,0,1,30,32.878a1.7,1.7,0,0,1,1.7-1.7h5.294a7.618,7.618,0,0,0,5.388-2.233l2.275-2.275Z" transform="translate(-30 -26.67)" fill="#f0d0b4"/>
        </g>
        <g id="Group_1210755" data-name="Group 1210755" transform="translate(16.915 18.607)">
          <path id="Path_1249703" data-name="Path 1249703" d="M31.659,24.5a7.884,7.884,0,0,1,2.766-.5,8.593,8.593,0,0,1,1.04.068l-6.7,6.7-5.058,5.058a1.983,1.983,0,0,1-1.692-1.675c-.008-.093-.017-.186-.017-.279a1.985,1.985,0,0,1,.3-1.049l2.859-4.567.161-.262a5.126,5.126,0,0,1,1.759-1.7,6.228,6.228,0,0,1,.761-.355Z" transform="translate(-22 -24)" fill="#f0d0b4"/>
        </g>
        <g id="Group_1210756" data-name="Group 1210756" transform="translate(10.149 11.841)">
          <circle id="Ellipse_12783" data-name="Ellipse 12783" cx="4" cy="4" r="4" transform="translate(0.442 0.313)" fill="#f0d0b4"/>
        </g>
      </g>
      <g id="Group_1210758" data-name="Group 1210758" transform="translate(1 1)">
        <path id="Path_1249704" data-name="Path 1249704" d="M44.088,22.943,41.8,22.289l3.573-3.572A4.434,4.434,0,0,0,39.1,12.448l-.889.888V6.92a4.234,4.234,0,0,0-4.229-4.229h-5.92A1.693,1.693,0,0,0,26.373,1H12.841a1.693,1.693,0,0,0-1.692,1.692H5.229A4.234,4.234,0,0,0,1,6.92V49.209a4.234,4.234,0,0,0,4.229,4.229H33.985a4.234,4.234,0,0,0,4.229-4.229V34.749a8.542,8.542,0,0,0,5.777-1.343l.361-.241,9.086.908V19.2Zm-3.789-9.3a2.743,2.743,0,0,1,3.878,3.88l-.043.042-3.878-3.879Zm-1.24,1.239,3.879,3.879L41.6,20.1l-3.879-3.879ZM40.4,21.3,37.31,24.39a6.821,6.821,0,0,1-4.658,1.976l6.408-6.408Zm-2.537-2.537-7.613,7.613-2.685,0,8.957-8.957ZM20.453,36.172l-1.341-1.341,5.583-5.583a4.188,4.188,0,0,0,.693,1.989Zm6.13-3.738a4.18,4.18,0,0,0,1.99.694L22.99,38.709l-1.341-1.341Zm-8.757,5.34.459-1.378,3.139,3.139-1.378.459Zm.427,2.819-1.538.513.513-1.538ZM21.3,17.915A5.075,5.075,0,1,0,13.1,21.9a8.489,8.489,0,0,0-3.64,2.8V11.149H22.99V22.311a5.944,5.944,0,0,0-1.187,1.1,8.455,8.455,0,0,0-2.459-1.5A5.064,5.064,0,0,0,21.3,17.915ZM16.224,21.3a3.383,3.383,0,1,1,3.383-3.383A3.386,3.386,0,0,1,16.224,21.3Zm0,1.692a6.772,6.772,0,0,1,4.624,1.833l-2.5,4.006a2.81,2.81,0,0,0-.364.928H9.458a6.774,6.774,0,0,1,6.766-6.766Zm4,8.332a1.121,1.121,0,0,1-.45-1.6L22.8,24.9a4.244,4.244,0,0,1,2.1-1.718l3.816-1.431a6.972,6.972,0,0,1,1.454-.364ZM28.065,4.383h5.92A2.54,2.54,0,0,1,36.522,6.92v8.108l-1.692,1.692V6.075H28.065ZM12.841,2.692H26.373V6.075H12.841Zm20.3,5.075V18.411L31.9,19.652a8.763,8.763,0,0,0-3.781.511l-3.436,1.29V9.458H7.766v21.99h10.4a2.841,2.841,0,0,0,.846,1.1l-1.831,1.831L14.4,42.7a2.014,2.014,0,0,0-.939,1.125l-.27.814a.522.522,0,0,1-.893.12l-.965-1.446A1.947,1.947,0,0,0,7.766,44.39v2.281H9.458V44.39a.266.266,0,0,1,.469-.142l.965,1.446a2.193,2.193,0,0,0,3.9-.523l.27-.813a.341.341,0,0,1,.622,0l.385,1.156a1.69,1.69,0,0,0,1.605,1.157h4.465V44.98H17.679l-.386-1.158a2.012,2.012,0,0,0-.635-.915l6.788-2.262,7.5-7.5a11.8,11.8,0,0,1,2.195.308V48.363H6.075V7.766Zm3.383,41.443a2.54,2.54,0,0,1-2.537,2.537H5.229a2.54,2.54,0,0,1-2.537-2.537V6.92A2.54,2.54,0,0,1,5.229,4.383h5.92V6.075H4.383v43.98H34.831V33.9l1.692.483Zm6.766-17.368L43.052,32a6.847,6.847,0,0,1-5.634.88l-3.185-.91a13.5,13.5,0,0,0-3.715-.521H28.9a2.531,2.531,0,0,1-2.527-2.528.855.855,0,0,1,.855-.852l5.294-.005a8.52,8.52,0,0,0,5.984-2.477l1.928-1.927,2.854.815Zm8.458.364-6.766-.677v-7.12L51.746,21.7Z" transform="translate(-1 -1)"/>
        <path id="Path_1249705" data-name="Path 1249705" d="M31,11h5.075v1.692H31Z" transform="translate(-5.627 -2.542)"/>
        <path id="Path_1249706" data-name="Path 1249706" d="M31,15h5.075v1.692H31Z" transform="translate(-5.627 -3.159)"/>
        <path id="Path_1249707" data-name="Path 1249707" d="M31,19h5.075v1.692H31Z" transform="translate(-5.627 -3.776)"/>
        <path id="Path_1249708" data-name="Path 1249708" d="M9,39h3.383v1.692H9Z" transform="translate(-2.234 -6.861)"/>
        <path id="Path_1249709" data-name="Path 1249709" d="M9,43h5.075v1.692H9Z" transform="translate(-2.234 -7.478)"/>
      </g>
    </g>
  </g>
</svg>
