<svg xmlns="http://www.w3.org/2000/svg" xmlns:xlink="http://www.w3.org/1999/xlink" width="98" height="98" viewBox="0 0 98 98">
  <defs>
    <filter id="Path_874925" x="0" y="0" width="98" height="98" filterUnits="userSpaceOnUse">
      <feOffset dy="3" input="SourceAlpha"/>
      <feGaussianBlur stdDeviation="3" result="blur"/>
      <feFlood flood-opacity="0.161"/>
      <feComposite operator="in" in2="blur"/>
      <feComposite in="SourceGraphic"/>
    </filter>
  </defs>
  <g id="Group_1210791" data-name="Group 1210791" transform="translate(-1066.051 -1468)">
    <g id="Group_1209733" data-name="Group 1209733" transform="translate(790.359 -4623)">
      <g id="Group_1200231" data-name="Group 1200231" transform="translate(-0.309 -0.407)">
        <g id="Group_1187153" data-name="Group 1187153">
          <g id="Group_1182177" data-name="Group 1182177">
            <g id="Group_1181903" data-name="Group 1181903">
              <g id="Group_1181438" data-name="Group 1181438">
                <g id="Group_1111314" data-name="Group 1111314" transform="translate(-734.73 3020.407)">
                  <g transform="matrix(1, 0, 0, 1, 1010.73, 3071)" filter="url(#Path_874925)">
                    <g id="Path_874925-2" data-name="Path 874925" transform="translate(9 6)" fill="#fd9826">
                      <path d="M 39.99997329711914 79.50040435791016 C 34.66728591918945 79.50040435791016 29.494384765625 78.45610046386719 24.62495040893555 76.39649963378906 C 19.92138481140137 74.40706634521484 15.69705104827881 71.55889892578125 12.06927299499512 67.93113708496094 C 8.441506385803223 64.30335998535156 5.593339920043945 60.07902526855469 3.603906631469727 55.37545776367188 C 1.544306635856628 50.50602340698242 0.5000066161155701 45.33312606811523 0.5000066161155701 40.00043487548828 C 0.5000066161155701 34.66728973388672 1.544306635856628 29.4943904876709 3.603906631469727 24.62495803833008 C 5.593339920043945 19.92139053344727 8.441506385803223 15.69704627990723 12.06927299499512 12.06927967071533 C 15.69705104827881 8.441502571105957 19.92138481140137 5.59334659576416 24.62495040893555 3.603902101516724 C 29.494384765625 1.544302225112915 34.66728591918945 0.5000022053718567 39.99997329711914 0.5000022053718567 C 45.33266067504883 0.5000022053718567 50.50556182861328 1.544302225112915 55.37499618530273 3.603902101516724 C 60.07856369018555 5.59334659576416 64.30290985107422 8.441502571105957 67.93067169189453 12.06927967071533 C 71.55844879150391 15.69704627990723 74.40660858154297 19.92139053344727 76.39604949951172 24.62495803833008 C 78.45565032958984 29.4943904876709 79.49995422363281 34.66728973388672 79.49995422363281 39.99998092651367 C 79.49995422363281 45.33312606811523 78.45565032958984 50.50602340698242 76.39604949951172 55.37545776367188 C 74.40660858154297 60.07902526855469 71.55844879150391 64.30335998535156 67.93067169189453 67.93113708496094 C 64.30290985107422 71.55889892578125 60.07856369018555 74.40706634521484 55.37499618530273 76.39649963378906 C 50.50556182861328 78.45610046386719 45.33266067504883 79.50040435791016 39.99997329711914 79.50040435791016 Z" stroke="none"/>
                      <path d="M 39.99997329711914 1 C 34.73457336425781 1 29.627197265625 2.031013488769531 24.81972885131836 4.064399719238281 C 20.17576217651367 6.028633117675781 16.00484085083008 8.840812683105469 12.42282867431641 12.42282104492188 C 8.840805053710938 16.00483703613281 6.02862548828125 20.17575836181641 4.06439208984375 24.81973648071289 C 2.031005859375 29.62720108032227 0.9999923706054688 34.73456954956055 0.9999923706054688 40.00043487548828 C 0.9999923706054688 45.26583480834961 2.031005859375 50.37321472167969 4.06439208984375 55.18067932128906 C 6.02862548828125 59.82464599609375 8.840805053710938 63.99556732177734 12.42282867431641 67.57757568359375 C 16.00484085083008 71.15959167480469 20.17576217651367 73.97177124023438 24.81972885131836 75.93600463867188 C 29.627197265625 77.96939086914062 34.73457336425781 79.00040435791016 39.99997329711914 79.00040435791016 C 45.26537322998047 79.00040435791016 50.37274932861328 77.96939086914062 55.18021774291992 75.93600463867188 C 59.82418441772461 73.97177124023438 63.9951057434082 71.15959167480469 67.57711791992188 67.57757568359375 C 71.15912628173828 63.99556732177734 73.97130584716797 59.82464599609375 75.93553924560547 55.18067932128906 C 77.96892547607422 50.37321472167969 78.99993896484375 45.26583480834961 78.99993896484375 39.99998092651367 C 78.99993896484375 34.73456954956055 77.96892547607422 29.62720108032227 75.93553924560547 24.81973648071289 C 73.97130584716797 20.17575836181641 71.15912628173828 16.00483703613281 67.57711791992188 12.42282104492188 C 63.9951057434082 8.840812683105469 59.82418441772461 6.028633117675781 55.18021774291992 4.064399719238281 C 50.37274932861328 2.031013488769531 45.26537322998047 1 39.99997329711914 1 M 39.99997329711914 0 C 62.09135055541992 0 79.99993896484375 17.90859222412109 79.99993896484375 39.99998092651367 L 79.99993896484375 40.00043487548828 C 79.99993896484375 62.09181213378906 62.09135055541992 80.00040435791016 39.99997329711914 80.00040435791016 C 17.90859603881836 80.00040435791016 -7.62939453125e-06 62.09181213378906 -7.62939453125e-06 40.00043487548828 L -7.62939453125e-06 39.99998092651367 C -7.62939453125e-06 17.90859222412109 17.90859603881836 0 39.99997329711914 0 Z" stroke="none" fill="#af6a1a"/>
                    </g>
                  </g>
                </g>
              </g>
            </g>
          </g>
        </g>
      </g>
    </g>
    <g id="lista-de-verificacion" transform="translate(1056.161 1490)">
      <g id="Group_1210764" data-name="Group 1210764" transform="translate(39.589 0.699)">
        <path id="Path_1249742" data-name="Path 1249742" d="M79.549,53.846H47.9a1.507,1.507,0,0,1-1.507-1.507V9.007A1.507,1.507,0,0,1,47.9,7.5H79.549a1.507,1.507,0,0,1,1.507,1.507V52.339A1.507,1.507,0,0,1,79.549,53.846Z" transform="translate(-46.391 -7.5)" fill="#ecf4ff"/>
      </g>
      <g id="Group_1210765" data-name="Group 1210765" transform="translate(70.864 0.699)">
        <path id="Path_1249743" data-name="Path 1249743" d="M383.649,7.5h-1.884a1.507,1.507,0,0,1,1.507,1.507V52.339a1.507,1.507,0,0,1-1.507,1.507h1.884a1.507,1.507,0,0,0,1.507-1.507V9.007A1.507,1.507,0,0,0,383.649,7.5Z" transform="translate(-381.765 -7.5)" fill="#ddeafb"/>
      </g>
      <g id="Group_1210784" data-name="Group 1210784" transform="translate(43.263 6.728)">
        <g id="Group_1210771" data-name="Group 1210771" transform="translate(0)">
          <g id="Group_1210770" data-name="Group 1210770">
            <g id="Group_1210769" data-name="Group 1210769">
              <g id="Group_1210768" data-name="Group 1210768">
                <g id="Group_1210766" data-name="Group 1210766" transform="translate(0)">
                  <path id="Path_1249744" data-name="Path 1249744" d="M93.862,81.57H87.134a1.346,1.346,0,0,1-1.346-1.346V73.5a1.346,1.346,0,0,1,1.346-1.346h6.729A1.346,1.346,0,0,1,95.208,73.5v6.729A1.346,1.346,0,0,1,93.862,81.57Z" transform="translate(-85.788 -72.15)" fill="#b3e59f"/>
                </g>
                <g id="Group_1210767" data-name="Group 1210767" transform="translate(0 0.006)">
                  <path id="Path_1249745" data-name="Path 1249745" d="M93.975,72.212q.021.28.021.566a7.368,7.368,0,0,1-7.368,7.368,7.454,7.454,0,0,1-.841-.048v.183a1.346,1.346,0,0,0,1.346,1.346h6.729a1.346,1.346,0,0,0,1.346-1.346V73.552A1.345,1.345,0,0,0,93.975,72.212Z" transform="translate(-85.788 -72.212)" fill="#95d6a4"/>
                </g>
              </g>
            </g>
          </g>
        </g>
        <g id="Group_1210777" data-name="Group 1210777" transform="translate(0 12.434)">
          <g id="Group_1210776" data-name="Group 1210776">
            <g id="Group_1210775" data-name="Group 1210775">
              <g id="Group_1210774" data-name="Group 1210774">
                <g id="Group_1210772" data-name="Group 1210772" transform="translate(0)">
                  <path id="Path_1249746" data-name="Path 1249746" d="M93.862,214.912H87.134a1.346,1.346,0,0,1-1.346-1.346v-6.729a1.346,1.346,0,0,1,1.346-1.346h6.729a1.346,1.346,0,0,1,1.346,1.346v6.729A1.346,1.346,0,0,1,93.862,214.912Z" transform="translate(-85.788 -205.492)" fill="#b3e59f"/>
                </g>
                <g id="Group_1210773" data-name="Group 1210773" transform="translate(0 0.006)">
                  <path id="Path_1249747" data-name="Path 1249747" d="M93.975,205.553q.021.28.021.566a7.368,7.368,0,0,1-8.209,7.32v.183a1.346,1.346,0,0,0,1.346,1.346h6.729a1.346,1.346,0,0,0,1.346-1.346v-6.729a1.345,1.345,0,0,0-1.233-1.34Z" transform="translate(-85.788 -205.553)" fill="#95d6a4"/>
                </g>
              </g>
            </g>
          </g>
        </g>
        <g id="Group_1210783" data-name="Group 1210783" transform="translate(0 24.869)">
          <g id="Group_1210782" data-name="Group 1210782">
            <g id="Group_1210781" data-name="Group 1210781">
              <g id="Group_1210780" data-name="Group 1210780">
                <g id="Group_1210778" data-name="Group 1210778" transform="translate(0)">
                  <path id="Path_1249748" data-name="Path 1249748" d="M93.862,348.254H87.134a1.346,1.346,0,0,1-1.346-1.346V340.18a1.346,1.346,0,0,1,1.346-1.346h6.729a1.346,1.346,0,0,1,1.346,1.346v6.729A1.346,1.346,0,0,1,93.862,348.254Z" transform="translate(-85.788 -338.834)" fill="#b3e59f"/>
                </g>
                <g id="Group_1210779" data-name="Group 1210779" transform="translate(0 0.006)">
                  <path id="Path_1249749" data-name="Path 1249749" d="M93.975,338.895q.021.28.021.566a7.368,7.368,0,0,1-8.209,7.32v.183a1.346,1.346,0,0,0,1.346,1.346h6.729a1.346,1.346,0,0,0,1.346-1.346v-6.729A1.345,1.345,0,0,0,93.975,338.895Z" transform="translate(-85.788 -338.895)" fill="#95d6a4"/>
                </g>
              </g>
            </g>
          </g>
        </g>
      </g>
      <g id="Group_1210789" data-name="Group 1210789" transform="translate(63.432 22.935)">
        <g id="Group_1210785" data-name="Group 1210785" transform="translate(0)">
          <path id="Path_1249750" data-name="Path 1249750" d="M304.069,269.292l-1.763.765-.219-1.909a3.768,3.768,0,0,1,.48-2.312l11.483-19.889,3.263,1.884L305.832,267.72A3.768,3.768,0,0,1,304.069,269.292Z" transform="translate(-302.064 -245.947)" fill="#4a80aa"/>
        </g>
        <g id="Group_1210786" data-name="Group 1210786" transform="translate(0.081 1.036)">
          <path id="Path_1249751" data-name="Path 1249751" d="M316.634,257.059l-11.483,19.889a3.768,3.768,0,0,1-1.762,1.572l-.456.2.162,1.415,1.763-.765a3.768,3.768,0,0,0,1.762-1.572L318.1,257.907Z" transform="translate(-302.932 -257.059)" fill="#407093"/>
        </g>
        <g id="Group_1210787" data-name="Group 1210787" transform="translate(8.784 2.938)">
          <path id="Path_1249752" data-name="Path 1249752" d="M0,0H3.014V3.768H0Z" transform="matrix(0.5, -0.866, 0.866, 0.5, 0, 2.61)" fill="#ffe07d"/>
        </g>
        <g id="Group_1210788" data-name="Group 1210788" transform="translate(10.579 3.974)">
          <path id="Path_1249753" data-name="Path 1249753" d="M0,0H3.014V1.7H0Z" transform="matrix(0.5, -0.866, 0.866, 0.5, 0, 2.61)" fill="#ffd064"/>
        </g>
      </g>
      <g id="Group_1210790" data-name="Group 1210790" transform="translate(38.89 0)">
        <path id="Path_1249754" data-name="Path 1249754" d="M39.589,38.453a.7.7,0,0,0,.7-.7V2.206A.808.808,0,0,1,41.1,1.4H72.748a.808.808,0,0,1,.808.808V9.618a.7.7,0,0,0,1.4,0V2.206A2.209,2.209,0,0,0,72.748,0H41.1A2.209,2.209,0,0,0,38.89,2.206V37.753A.7.7,0,0,0,39.589,38.453Z" transform="translate(-38.89 0)"/>
        <path id="Path_1249755" data-name="Path 1249755" d="M89.106,66.7a2.047,2.047,0,0,0-2.045-2.045H80.332A2.047,2.047,0,0,0,78.287,66.7v6.729a2.047,2.047,0,0,0,2.045,2.045h6.729a2.047,2.047,0,0,0,2.045-2.045Zm-1.4,6.729a.647.647,0,0,1-.646.646H80.332a.647.647,0,0,1-.646-.646V66.7a.647.647,0,0,1,.646-.646h6.729a.647.647,0,0,1,.646.646Z" transform="translate(-74.613 -58.621)"/>
        <path id="Path_1249756" data-name="Path 1249756" d="M114.4,102.569l-1.892,1.892-.7-.7a.7.7,0,1,0-.989.989l1.193,1.193a.7.7,0,0,0,.989,0l2.386-2.386a.7.7,0,0,0-.989-.989Z" transform="translate(-103.925 -92.818)"/>
        <path id="Path_1249757" data-name="Path 1249757" d="M226.47,114.538h11.021a.7.7,0,0,0,0-1.4H226.47a.7.7,0,0,0,0,1.4Z" transform="translate(-208.344 -102.589)"/>
        <path id="Path_1249758" data-name="Path 1249758" d="M306.9,80.813h-6.688a.7.7,0,0,0,0,1.4H306.9a.7.7,0,1,0,0-1.4Z" transform="translate(-275.209 -73.277)"/>
        <path id="Path_1249759" data-name="Path 1249759" d="M226.47,82.212h3.58a.7.7,0,1,0,0-1.4h-3.58a.7.7,0,0,0,0,1.4Z" transform="translate(-208.344 -73.277)"/>
        <path id="Path_1249760" data-name="Path 1249760" d="M271.927,145.464a.7.7,0,1,0,0,1.4H275.6a.7.7,0,0,0,0-1.4Z" transform="translate(-249.562 -131.899)"/>
        <path id="Path_1249761" data-name="Path 1249761" d="M226.47,146.863h.942a.7.7,0,1,0,0-1.4h-.942a.7.7,0,0,0,0,1.4Z" transform="translate(-208.344 -131.899)"/>
        <path id="Path_1249762" data-name="Path 1249762" d="M89.106,200.037a2.047,2.047,0,0,0-2.045-2.045H80.332a2.047,2.047,0,0,0-2.045,2.045v6.729a2.047,2.047,0,0,0,2.045,2.045h6.729a2.047,2.047,0,0,0,2.045-2.045Zm-1.4,6.729a.647.647,0,0,1-.646.646H80.332a.647.647,0,0,1-.646-.646v-6.729a.647.647,0,0,1,.646-.646h6.729a.647.647,0,0,1,.646.646Z" transform="translate(-74.613 -179.529)"/>
        <path id="Path_1249763" data-name="Path 1249763" d="M114.4,235.91l-1.892,1.892-.7-.7a.7.7,0,0,0-.989.989l1.193,1.193a.7.7,0,0,0,.989,0l2.386-2.386a.7.7,0,0,0-.989-.989Z" transform="translate(-103.925 -213.725)"/>
        <path id="Path_1249764" data-name="Path 1249764" d="M238.191,247.178a.7.7,0,0,0-.7-.7H226.47a.7.7,0,0,0,0,1.4h11.021A.7.7,0,0,0,238.191,247.178Z" transform="translate(-208.344 -223.494)"/>
        <path id="Path_1249765" data-name="Path 1249765" d="M307.6,214.853a.7.7,0,0,0-.7-.7h-6.688a.7.7,0,0,0,0,1.4H306.9A.7.7,0,0,0,307.6,214.853Z" transform="translate(-275.209 -194.184)"/>
        <path id="Path_1249766" data-name="Path 1249766" d="M226.47,215.553h3.58a.7.7,0,1,0,0-1.4h-3.58a.7.7,0,0,0,0,1.4Z" transform="translate(-208.344 -194.184)"/>
        <path id="Path_1249767" data-name="Path 1249767" d="M276.3,279.5a.7.7,0,0,0-.7-.7h-3.674a.7.7,0,0,0,0,1.4H275.6A.7.7,0,0,0,276.3,279.5Z" transform="translate(-249.563 -252.806)"/>
        <path id="Path_1249768" data-name="Path 1249768" d="M226.47,280.2h.942a.7.7,0,1,0,0-1.4h-.942a.7.7,0,0,0,0,1.4Z" transform="translate(-208.344 -252.806)"/>
        <path id="Path_1249769" data-name="Path 1249769" d="M87.061,331.333H80.332a2.047,2.047,0,0,0-2.045,2.045v6.729a2.047,2.047,0,0,0,2.045,2.045h6.729a2.047,2.047,0,0,0,2.045-2.045v-6.729A2.047,2.047,0,0,0,87.061,331.333Zm.646,8.774a.647.647,0,0,1-.646.646H80.332a.647.647,0,0,1-.646-.646v-6.729a.647.647,0,0,1,.646-.646h6.729a.647.647,0,0,1,.646.646Z" transform="translate(-74.613 -300.436)"/>
        <path id="Path_1249770" data-name="Path 1249770" d="M114.4,369.251l-1.892,1.892-.7-.7a.7.7,0,0,0-.989.989l1.193,1.193a.7.7,0,0,0,.989,0l2.386-2.386a.7.7,0,0,0-.989-.989Z" transform="translate(-103.925 -334.632)"/>
        <path id="Path_1249771" data-name="Path 1249771" d="M226.47,348.895h3.58a.7.7,0,1,0,0-1.4h-3.58a.7.7,0,1,0,0,1.4Z" transform="translate(-208.344 -315.091)"/>
        <path id="Path_1249772" data-name="Path 1249772" d="M227.412,413.545a.7.7,0,1,0,0-1.4h-.942a.7.7,0,1,0,0,1.4Z" transform="translate(-208.344 -373.712)"/>
        <path id="Path_1249773" data-name="Path 1249773" d="M79.358,143.1a.7.7,0,0,0-.326-.425l-3.263-1.884a.7.7,0,0,0-.815.084v-9.532a.7.7,0,1,0-1.4,0v11.883l-4.411,7.64H63.893a.7.7,0,1,0,0,1.4h4.444l-.933,1.615H57.016a.7.7,0,1,0,0,1.4H66.6l-.933,1.616H61.255a.7.7,0,0,0,0,1.4h3.6l-1.526,2.642a4.433,4.433,0,0,0-.569,2.742l.129,1.13H41.1a.808.808,0,0,1-.808-.808v-4.522a.7.7,0,0,0-1.4,0V164A2.209,2.209,0,0,0,41.1,166.2H72.748A2.209,2.209,0,0,0,74.954,164V151.133l4.334-7.507A.7.7,0,0,0,79.358,143.1Zm-4.134,4.773-2.052-1.185.808-1.4,2.052,1.184ZM73.556,164a.808.808,0,0,1-.808.808H66.68a4.487,4.487,0,0,0,1.125-1.289l2.736-4.738a.7.7,0,0,0-1.211-.7l-2.736,4.738a3.091,3.091,0,0,1-1.436,1.28l-.9.389-.111-.971a3.045,3.045,0,0,1,.391-1.883L72.473,147.9l2.052,1.185-3.563,6.171a.7.7,0,0,0,1.211.7l1.382-2.395V164Zm3.175-18.738-2.051-1.184,1-1.725,2.052,1.184Z" transform="translate(-38.89 -118.458)"/>
      </g>
    </g>
  </g>
</svg>
