<svg xmlns="http://www.w3.org/2000/svg" xmlns:xlink="http://www.w3.org/1999/xlink" width="98" height="98" viewBox="0 0 98 98">
  <defs>
    <filter id="Path_874925" x="0" y="0" width="98" height="98" filterUnits="userSpaceOnUse">
      <feOffset dy="3" input="SourceAlpha"/>
      <feGaussianBlur stdDeviation="3" result="blur"/>
      <feFlood flood-opacity="0.161"/>
      <feComposite operator="in" in2="blur"/>
      <feComposite in="SourceGraphic"/>
    </filter>
  </defs>
  <g id="Group_1210817" data-name="Group 1210817" transform="translate(419 963)">
    <g id="Group_1210794" data-name="Group 1210794" transform="translate(-694.691 -7054)">
      <g id="Group_1200231" data-name="Group 1200231" transform="translate(-0.309 -0.407)">
        <g id="Group_1187153" data-name="Group 1187153">
          <g id="Group_1182177" data-name="Group 1182177">
            <g id="Group_1181903" data-name="Group 1181903">
              <g id="Group_1181438" data-name="Group 1181438">
                <g id="Group_1111314" data-name="Group 1111314" transform="translate(-734.73 3020.407)">
                  <g transform="matrix(1, 0, 0, 1, 1010.73, 3071)" filter="url(#Path_874925)">
                    <g id="Path_874925-2" data-name="Path 874925" transform="translate(9 6)" fill="#fd9826">
                      <path d="M 39.99997329711914 79.50040435791016 C 34.66728591918945 79.50040435791016 29.494384765625 78.45610046386719 24.62495040893555 76.39649963378906 C 19.92138481140137 74.40706634521484 15.69705104827881 71.55889892578125 12.06927299499512 67.93113708496094 C 8.441506385803223 64.30335998535156 5.593339920043945 60.07902526855469 3.603906631469727 55.37545776367188 C 1.544306635856628 50.50602340698242 0.5000066161155701 45.33312606811523 0.5000066161155701 40.00043487548828 C 0.5000066161155701 34.66728973388672 1.544306635856628 29.4943904876709 3.603906631469727 24.62495803833008 C 5.593339920043945 19.92139053344727 8.441506385803223 15.69704627990723 12.06927299499512 12.06927967071533 C 15.69705104827881 8.441502571105957 19.92138481140137 5.59334659576416 24.62495040893555 3.603902101516724 C 29.494384765625 1.544302225112915 34.66728591918945 0.5000022053718567 39.99997329711914 0.5000022053718567 C 45.33266067504883 0.5000022053718567 50.50556182861328 1.544302225112915 55.37499618530273 3.603902101516724 C 60.07856369018555 5.59334659576416 64.30290985107422 8.441502571105957 67.93067169189453 12.06927967071533 C 71.55844879150391 15.69704627990723 74.40660858154297 19.92139053344727 76.39604949951172 24.62495803833008 C 78.45565032958984 29.4943904876709 79.49995422363281 34.66728973388672 79.49995422363281 39.99998092651367 C 79.49995422363281 45.33312606811523 78.45565032958984 50.50602340698242 76.39604949951172 55.37545776367188 C 74.40660858154297 60.07902526855469 71.55844879150391 64.30335998535156 67.93067169189453 67.93113708496094 C 64.30290985107422 71.55889892578125 60.07856369018555 74.40706634521484 55.37499618530273 76.39649963378906 C 50.50556182861328 78.45610046386719 45.33266067504883 79.50040435791016 39.99997329711914 79.50040435791016 Z" stroke="none"/>
                      <path d="M 39.99997329711914 1 C 34.73457336425781 1 29.627197265625 2.031013488769531 24.81972885131836 4.064399719238281 C 20.17576217651367 6.028633117675781 16.00484085083008 8.840812683105469 12.42282867431641 12.42282104492188 C 8.840805053710938 16.00483703613281 6.02862548828125 20.17575836181641 4.06439208984375 24.81973648071289 C 2.031005859375 29.62720108032227 0.9999923706054688 34.73456954956055 0.9999923706054688 40.00043487548828 C 0.9999923706054688 45.26583480834961 2.031005859375 50.37321472167969 4.06439208984375 55.18067932128906 C 6.02862548828125 59.82464599609375 8.840805053710938 63.99556732177734 12.42282867431641 67.57757568359375 C 16.00484085083008 71.15959167480469 20.17576217651367 73.97177124023438 24.81972885131836 75.93600463867188 C 29.627197265625 77.96939086914062 34.73457336425781 79.00040435791016 39.99997329711914 79.00040435791016 C 45.26537322998047 79.00040435791016 50.37274932861328 77.96939086914062 55.18021774291992 75.93600463867188 C 59.82418441772461 73.97177124023438 63.9951057434082 71.15959167480469 67.57711791992188 67.57757568359375 C 71.15912628173828 63.99556732177734 73.97130584716797 59.82464599609375 75.93553924560547 55.18067932128906 C 77.96892547607422 50.37321472167969 78.99993896484375 45.26583480834961 78.99993896484375 39.99998092651367 C 78.99993896484375 34.73456954956055 77.96892547607422 29.62720108032227 75.93553924560547 24.81973648071289 C 73.97130584716797 20.17575836181641 71.15912628173828 16.00483703613281 67.57711791992188 12.42282104492188 C 63.9951057434082 8.840812683105469 59.82418441772461 6.028633117675781 55.18021774291992 4.064399719238281 C 50.37274932861328 2.031013488769531 45.26537322998047 1 39.99997329711914 1 M 39.99997329711914 0 C 62.09135055541992 0 79.99993896484375 17.90859222412109 79.99993896484375 39.99998092651367 L 79.99993896484375 40.00043487548828 C 79.99993896484375 62.09181213378906 62.09135055541992 80.00040435791016 39.99997329711914 80.00040435791016 C 17.90859603881836 80.00040435791016 -7.62939453125e-06 62.09181213378906 -7.62939453125e-06 40.00043487548828 L -7.62939453125e-06 39.99998092651367 C -7.62939453125e-06 17.90859222412109 17.90859603881836 0 39.99997329711914 0 Z" stroke="none" fill="#af6a1a"/>
                    </g>
                  </g>
                </g>
              </g>
            </g>
          </g>
        </g>
      </g>
    </g>
    <g id="devolver" transform="translate(-397.472 -950.482)">
      <g id="Group_1210811" data-name="Group 1210811" transform="translate(0.013 8.879)">
        <path id="Path_1249845" data-name="Path 1249845" d="M8.793,30.351h4.738V42.588a1.5,1.5,0,0,0,1.5,1.5H30.318a1.5,1.5,0,0,0,1.5-1.5V30.351h4.738a1.293,1.293,0,0,0,1.216-1.734l-3.16-8.733A3.857,3.857,0,0,0,32.1,17.5a26.5,26.5,0,0,0-3.755-.841l-.019,0q-1.157-.171-2.327-.238-.763-.045-1.529-.045H20.879A26.366,26.366,0,0,0,13.25,17.5a3.857,3.857,0,0,0-2.512,2.381L7.576,28.618A1.294,1.294,0,0,0,8.793,30.351Z" transform="translate(-6.753 -15.63)" fill="#fd8087"/>
        <path id="Path_1249846" data-name="Path 1249846" d="M193.3,141.061h4.321a1.5,1.5,0,0,0,1.5-1.5V124.074h-1.363a1.835,1.835,0,0,0-1.835,1.835v12.532A2.62,2.62,0,0,1,193.3,141.061Z" transform="translate(-174.056 -112.605)" fill="#fe646f"/>
        <path id="Path_1249847" data-name="Path 1249847" d="M193.3,16.827c2.485.835,5.99,2.431,7.034,5.015a30.928,30.928,0,0,1,1.761,6.885,1.778,1.778,0,0,1-1.761,2.031h3.523a1.293,1.293,0,0,0,1.216-1.734l-3.16-8.733a3.857,3.857,0,0,0-2.512-2.381,26.5,26.5,0,0,0-3.755-.841l-.019,0Q194.469,16.895,193.3,16.827Z" transform="translate(-174.056 -16.036)" fill="#fe646f"/>
        <path id="Línea_805" data-name="Línea 805" d="M-6.753-2.754A.747.747,0,0,1-7.5-3.5V-6.753A.747.747,0,0,1-6.753-7.5a.747.747,0,0,1,.747.747V-3.5A.747.747,0,0,1-6.753-2.754Z" transform="translate(31.816 18.222)"/>
        <path id="Path_1249848" data-name="Path 1249848" d="M102.924,16.868c0,2.523,2.54,4.568,5.674,4.568s5.675-2.045,5.675-4.568c0-.069,0-.137-.006-.205l-.019,0a26.465,26.465,0,0,0-3.856-.283H106.8a26.422,26.422,0,0,0-3.874.286C102.926,16.731,102.924,16.8,102.924,16.868Z" transform="translate(-92.678 -15.63)" fill="#fe646f"/>
        <path id="Path_1249849" data-name="Path 1249849" d="M48.112,125.221v2.1H50.1v-3.253H49.26A1.148,1.148,0,0,0,48.112,125.221Z" transform="translate(-43.323 -112.604)" fill="#fe646f"/>
        <path id="Trazado_1249850" data-name="Trazado 1249850" d="M14.138,8.879h3.59a27.116,27.116,0,0,1,7.845,1.159,4.626,4.626,0,0,1,3,2.842l3.16,8.733a2.041,2.041,0,0,1-1.919,2.735H25.823v11.49a2.247,2.247,0,0,1-2.244,2.244H8.289a2.247,2.247,0,0,1-2.244-2.244V24.347H2.054A2.04,2.04,0,0,1,.135,21.613L3.3,12.879a4.626,4.626,0,0,1,3-2.842A27.113,27.113,0,0,1,14.138,8.879ZM29.814,22.854a.547.547,0,0,0,.514-.733l-3.16-8.733a3.126,3.126,0,0,0-2.027-1.92,25.623,25.623,0,0,0-7.413-1.095h-3.59a25.62,25.62,0,0,0-7.412,1.095A3.126,3.126,0,0,0,4.7,13.387l-3.16,8.733a.547.547,0,0,0,.514.733H6.791a.747.747,0,0,1,.747.747V35.837a.752.752,0,0,0,.751.751h15.29a.752.752,0,0,0,.751-.751V23.6a.747.747,0,0,1,.747-.747Z" transform="translate(-0.013 -8.879)"/>
        <path id="Línea_806" data-name="Línea 806" d="M-6.753-2.754A.747.747,0,0,1-7.5-3.5V-6.753A.747.747,0,0,1-6.753-7.5a.747.747,0,0,1,.747.747V-3.5A.747.747,0,0,1-6.753-2.754Z" transform="translate(13.531 18.222)"/>
        <path id="Trazado_1249851" data-name="Trazado 1249851" d="M97.171,16.034a.745.745,0,0,1-.567-.261A4.689,4.689,0,0,1,95.425,12.7c0-.084,0-.166.007-.249a.747.747,0,1,1,1.491.086l0,.163a3.217,3.217,0,0,0,.819,2.1.747.747,0,0,1-.567,1.232Z" transform="translate(-85.926 -11.461)"/>
        <path id="Trazado_1249852" data-name="Trazado 1249852" d="M135.169,18.014a7.65,7.65,0,0,1-2.2-.32.747.747,0,0,1,.43-1.43,6.157,6.157,0,0,0,1.774.257c2.717,0,4.928-1.714,4.928-3.821l0-.163a.747.747,0,0,1,1.491-.086c0,.083.007.165.007.249C141.591,15.63,138.71,18.014,135.169,18.014Z" transform="translate(-119.249 -11.461)"/>
      </g>
      <path id="Path_1249853" data-name="Path 1249853" d="M344.653,64.277a23.437,23.437,0,0,0-8.9-13.835l.664-1.3a.892.892,0,0,0-.841-1.3l-5.838.307a.891.891,0,0,0-.7,1.376l3.184,4.9a.891.891,0,0,0,1.542-.081l.611-1.2a20.456,20.456,0,0,1,7.363,11.763,1.493,1.493,0,1,0,2.919-.635Z" transform="translate(-296.133 -35.083)" fill="#2abcc8"/>
      <path id="Path_1249854" data-name="Path 1249854" d="M40.084,312.27l-3.184-4.9a.892.892,0,0,0-1.542.081l-.611,1.2a20.456,20.456,0,0,1-7.363-11.763,1.493,1.493,0,1,0-2.919.634,23.437,23.437,0,0,0,8.9,13.835l-.664,1.3a.892.892,0,0,0,.841,1.3l5.838-.307A.891.891,0,0,0,40.084,312.27Z" transform="translate(-21.986 -258.271)" fill="#2abcc8"/>
      <path id="Trazado_1249855" data-name="Trazado 1249855" d="M336.428,60.083a2.251,2.251,0,0,1-2.187-1.765c-.063-.288-.132-.576-.208-.861a.747.747,0,0,1,1.443-.384q.122.46.224.928a.749.749,0,0,0,.728.589.771.771,0,0,0,.162-.017.746.746,0,0,0,.569-.887,22.785,22.785,0,0,0-8.62-13.4.747.747,0,0,1-.218-.936l.664-1.305a.145.145,0,0,0-.137-.21l-5.838.307a.145.145,0,0,0-.114.224l3.184,4.9a.145.145,0,0,0,.251-.013l.61-1.2a.747.747,0,0,1,1.127-.248,21.363,21.363,0,0,1,6.195,7.869.747.747,0,0,1-1.358.62,19.852,19.852,0,0,0-5.056-6.734l-.188.369a1.638,1.638,0,0,1-2.834.149l-3.184-4.9a1.639,1.639,0,0,1,1.288-2.528l5.838-.307a1.638,1.638,0,0,1,1.546,2.379l-.383.752a24.276,24.276,0,0,1,8.685,13.891,2.24,2.24,0,0,1-1.713,2.665A2.271,2.271,0,0,1,336.428,60.083Z" transform="translate(-289.368 -28.332)"/>
      <path id="Trazado_1249856" data-name="Trazado 1249856" d="M26.742,307.947a1.638,1.638,0,0,1-1.457-2.382l.383-.752a24.271,24.271,0,0,1-8.685-13.89,2.24,2.24,0,1,1,4.378-.952,19.827,19.827,0,0,0,6.391,10.753l.188-.369a1.638,1.638,0,0,1,2.834-.149l3.184,4.9a1.638,1.638,0,0,1-1.288,2.528l-5.838.307ZM19.173,289.7a.748.748,0,0,0-.731.906,22.781,22.781,0,0,0,8.62,13.4.747.747,0,0,1,.218.937l-.664,1.3a.145.145,0,0,0,.127.211v.747l.01-.747,5.838-.307a.145.145,0,0,0,.114-.223l-3.184-4.9a.136.136,0,0,0-.12-.066.138.138,0,0,0-.13.079l-.611,1.2a.747.747,0,0,1-1.127.248A21.324,21.324,0,0,1,19.9,290.289.75.75,0,0,0,19.173,289.7Z" transform="translate(-15.234 -251.518)"/>
      <g id="Group_1210816" data-name="Group 1210816" transform="translate(21.751 39.389)">
        <path id="Path_1249857" data-name="Path 1249857" d="M252.464,322.813H226.97a1.124,1.124,0,0,0-1.124,1.125v14.956a1.124,1.124,0,0,0,1.124,1.124h25.494a1.124,1.124,0,0,0,1.124-1.124V323.938A1.124,1.124,0,0,0,252.464,322.813Z" transform="translate(-225.099 -322.067)" fill="#5de1c4"/>
        <path id="Path_1249858" data-name="Path 1249858" d="M469.33,323.933v14.955a1.125,1.125,0,0,1-1.125,1.125h-2.763a1.124,1.124,0,0,0,1.124-1.125V323.933a1.124,1.124,0,0,0-1.124-1.125H468.2A1.125,1.125,0,0,1,469.33,323.933Z" transform="translate(-440.841 -322.062)" fill="#0ed2b3"/>
        <path id="Trazado_1249859" data-name="Trazado 1249859" d="M245.71,334.015H220.217a1.873,1.873,0,0,1-1.872-1.871V317.188a1.873,1.873,0,0,1,1.872-1.871h5.744a.747.747,0,1,1,0,1.493h-5.744a.378.378,0,0,0-.378.377v14.956a.378.378,0,0,0,.378.377H245.71a.378.378,0,0,0,.378-.377V317.188a.378.378,0,0,0-.378-.377H229.445a.747.747,0,1,1,0-1.493H245.71a1.873,1.873,0,0,1,1.872,1.871v14.956A1.873,1.873,0,0,1,245.71,334.015Z" transform="translate(-218.345 -315.317)"/>
        <circle id="Ellipse_12800" data-name="Ellipse 12800" cx="6.072" cy="6.072" r="6.072" transform="translate(8.546 3.277)" fill="#0ed2b3"/>
        <g id="Group_1210812" data-name="Group 1210812" transform="translate(12.224 4.689)">
          <path id="Trazado_1249860" data-name="Trazado 1249860" d="M343.405,378.291a3.012,3.012,0,0,1-1.946-.555.747.747,0,0,1,.818-1.25,1.647,1.647,0,0,0,1.2.311A.939.939,0,0,0,344.4,376a.688.688,0,0,0-.508-.816,5.47,5.47,0,0,1-1.99-.979,2.067,2.067,0,0,1,.853-3.406,2.63,2.63,0,0,1,2.427.441.747.747,0,1,1-.955,1.148,1.13,1.13,0,0,0-1.041-.159.524.524,0,0,0-.356.4.538.538,0,0,0,.1.493,4.716,4.716,0,0,0,1.4.632,2.205,2.205,0,0,1,1.547,2.494,2.443,2.443,0,0,1-2.395,2.038Z" transform="translate(-341.121 -369.861)"/>
          <path id="Línea_807" data-name="Línea 807" d="M-6.753-5.117A.747.747,0,0,1-7.5-5.864v-.889A.747.747,0,0,1-6.753-7.5a.747.747,0,0,1,.747.747v.889A.747.747,0,0,1-6.753-5.117Z" transform="translate(9.109 14.436)"/>
          <path id="Línea_808" data-name="Línea 808" d="M-6.753-5.182A.747.747,0,0,1-7.5-5.928v-.825A.747.747,0,0,1-6.753-7.5a.747.747,0,0,1,.747.747v.825A.747.747,0,0,1-6.753-5.182Z" transform="translate(9.109 7.5)"/>
        </g>
        <path id="Elipse_12801" data-name="Elipse 12801" d="M-.681-7.5A6.826,6.826,0,0,1,6.137-.681,6.826,6.826,0,0,1-.681,6.137,6.826,6.826,0,0,1-7.5-.681,6.826,6.826,0,0,1-.681-7.5Zm0,12.144A5.331,5.331,0,0,0,4.644-.681,5.331,5.331,0,0,0-.681-6.007,5.331,5.331,0,0,0-6.007-.681,5.331,5.331,0,0,0-.681,4.644Z" transform="translate(15.3 10.03)"/>
        <g id="Group_1210815" data-name="Group 1210815" transform="translate(2.711 8.602)">
          <g id="Group_1210813" data-name="Group 1210813" transform="translate(19.966)">
            <path id="Línea_809" data-name="Línea 809" d="M-4.4-6.007H-6.753A.747.747,0,0,1-7.5-6.753.747.747,0,0,1-6.753-7.5H-4.4a.747.747,0,0,1,.747.747A.747.747,0,0,1-4.4-6.007Z" transform="translate(7.5 7.5)"/>
          </g>
          <g id="Group_1210814" data-name="Group 1210814">
            <path id="Línea_810" data-name="Línea 810" d="M-4.4-6.007H-6.753A.747.747,0,0,1-7.5-6.753.747.747,0,0,1-6.753-7.5H-4.4a.747.747,0,0,1,.747.747A.747.747,0,0,1-4.4-6.007Z" transform="translate(7.5 7.5)"/>
          </g>
        </g>
      </g>
    </g>
  </g>
</svg>
