<svg xmlns="http://www.w3.org/2000/svg" xmlns:xlink="http://www.w3.org/1999/xlink" width="98" height="98" viewBox="0 0 98 98">
  <defs>
    <filter id="Path_874925" x="0" y="0" width="98" height="98" filterUnits="userSpaceOnUse">
      <feOffset dy="3" input="SourceAlpha"/>
      <feGaussianBlur stdDeviation="3" result="blur"/>
      <feFlood flood-opacity="0.161"/>
      <feComposite operator="in" in2="blur"/>
      <feComposite in="SourceGraphic"/>
    </filter>
  </defs>
  <g id="Group_1210845" data-name="Group 1210845" transform="translate(-803.051 -10529)">
    <g id="Group_1209781" data-name="Group 1209781" transform="translate(527.359 4438)">
      <g id="Group_1200231" data-name="Group 1200231" transform="translate(-0.309 -0.407)">
        <g id="Group_1187153" data-name="Group 1187153">
          <g id="Group_1182177" data-name="Group 1182177">
            <g id="Group_1181903" data-name="Group 1181903">
              <g id="Group_1181438" data-name="Group 1181438">
                <g id="Group_1111314" data-name="Group 1111314" transform="translate(-734.73 3020.407)">
                  <g transform="matrix(1, 0, 0, 1, 1010.73, 3071)" filter="url(#Path_874925)">
                    <g id="Path_874925-2" data-name="Path 874925" transform="translate(9 6)" fill="#fd9826">
                      <path d="M 39.99997329711914 79.50040435791016 C 34.66728591918945 79.50040435791016 29.494384765625 78.45610046386719 24.62495040893555 76.39649963378906 C 19.92138481140137 74.40706634521484 15.69705104827881 71.55889892578125 12.06927299499512 67.93113708496094 C 8.441506385803223 64.30335998535156 5.593339920043945 60.07902526855469 3.603906631469727 55.37545776367188 C 1.544306635856628 50.50602340698242 0.5000066161155701 45.33312606811523 0.5000066161155701 40.00043487548828 C 0.5000066161155701 34.66728973388672 1.544306635856628 29.4943904876709 3.603906631469727 24.62495803833008 C 5.593339920043945 19.92139053344727 8.441506385803223 15.69704627990723 12.06927299499512 12.06927967071533 C 15.69705104827881 8.441502571105957 19.92138481140137 5.59334659576416 24.62495040893555 3.603902101516724 C 29.494384765625 1.544302225112915 34.66728591918945 0.5000022053718567 39.99997329711914 0.5000022053718567 C 45.33266067504883 0.5000022053718567 50.50556182861328 1.544302225112915 55.37499618530273 3.603902101516724 C 60.07856369018555 5.59334659576416 64.30290985107422 8.441502571105957 67.93067169189453 12.06927967071533 C 71.55844879150391 15.69704627990723 74.40660858154297 19.92139053344727 76.39604949951172 24.62495803833008 C 78.45565032958984 29.4943904876709 79.49995422363281 34.66728973388672 79.49995422363281 39.99998092651367 C 79.49995422363281 45.33312606811523 78.45565032958984 50.50602340698242 76.39604949951172 55.37545776367188 C 74.40660858154297 60.07902526855469 71.55844879150391 64.30335998535156 67.93067169189453 67.93113708496094 C 64.30290985107422 71.55889892578125 60.07856369018555 74.40706634521484 55.37499618530273 76.39649963378906 C 50.50556182861328 78.45610046386719 45.33266067504883 79.50040435791016 39.99997329711914 79.50040435791016 Z" stroke="none"/>
                      <path d="M 39.99997329711914 1 C 34.73457336425781 1 29.627197265625 2.031013488769531 24.81972885131836 4.064399719238281 C 20.17576217651367 6.028633117675781 16.00484085083008 8.840812683105469 12.42282867431641 12.42282104492188 C 8.840805053710938 16.00483703613281 6.02862548828125 20.17575836181641 4.06439208984375 24.81973648071289 C 2.031005859375 29.62720108032227 0.9999923706054688 34.73456954956055 0.9999923706054688 40.00043487548828 C 0.9999923706054688 45.26583480834961 2.031005859375 50.37321472167969 4.06439208984375 55.18067932128906 C 6.02862548828125 59.82464599609375 8.840805053710938 63.99556732177734 12.42282867431641 67.57757568359375 C 16.00484085083008 71.15959167480469 20.17576217651367 73.97177124023438 24.81972885131836 75.93600463867188 C 29.627197265625 77.96939086914062 34.73457336425781 79.00040435791016 39.99997329711914 79.00040435791016 C 45.26537322998047 79.00040435791016 50.37274932861328 77.96939086914062 55.18021774291992 75.93600463867188 C 59.82418441772461 73.97177124023438 63.9951057434082 71.15959167480469 67.57711791992188 67.57757568359375 C 71.15912628173828 63.99556732177734 73.97130584716797 59.82464599609375 75.93553924560547 55.18067932128906 C 77.96892547607422 50.37321472167969 78.99993896484375 45.26583480834961 78.99993896484375 39.99998092651367 C 78.99993896484375 34.73456954956055 77.96892547607422 29.62720108032227 75.93553924560547 24.81973648071289 C 73.97130584716797 20.17575836181641 71.15912628173828 16.00483703613281 67.57711791992188 12.42282104492188 C 63.9951057434082 8.840812683105469 59.82418441772461 6.028633117675781 55.18021774291992 4.064399719238281 C 50.37274932861328 2.031013488769531 45.26537322998047 1 39.99997329711914 1 M 39.99997329711914 0 C 62.09135055541992 0 79.99993896484375 17.90859222412109 79.99993896484375 39.99998092651367 L 79.99993896484375 40.00043487548828 C 79.99993896484375 62.09181213378906 62.09135055541992 80.00040435791016 39.99997329711914 80.00040435791016 C 17.90859603881836 80.00040435791016 -7.62939453125e-06 62.09181213378906 -7.62939453125e-06 40.00043487548828 L -7.62939453125e-06 39.99998092651367 C -7.62939453125e-06 17.90859222412109 17.90859603881836 0 39.99997329711914 0 Z" stroke="none" fill="#af6a1a"/>
                    </g>
                  </g>
                </g>
              </g>
            </g>
          </g>
        </g>
      </g>
    </g>
    <g id="metodo-de-pago" transform="translate(824.139 10548.977)">
      <path id="Path_1249774" data-name="Path 1249774" d="M107.34,372.017v8.17c4.654.205,3.311,1.028,11.407,4.668a7.663,7.663,0,0,0,5.961-.1l.005,0,15.906-5.7c.518-.238,3.129-1.657,2.1-4.3-1.2-2.817-4.3-1.642-4.562-1.558l-8.3,2.3" transform="translate(-96.279 -333.662)" fill="#eac092"/>
      <g id="Group_1210796" data-name="Group 1210796" transform="translate(11.061 32.987)">
        <path id="Path_1249775" data-name="Path 1249775" d="M116.736,328.707l9.248,2.931a3.038,3.038,0,0,0,3.753-2.091h0a3.334,3.334,0,0,0-2.327-3.981l-8.2-2.784a6.974,6.974,0,0,0-5.922-2.86c-2.633,0-4.9,2.128-5.943,3.992v3.72" transform="translate(-107.341 -319.921)" fill="#fedbab"/>
      </g>
      <path id="Path_1249776" data-name="Path 1249776" d="M153.78,385.917a1.013,1.013,0,0,1-.2-.021,1,1,0,0,1-.194-.059,1.041,1.041,0,0,1-.177-.095,1,1,0,0,1-.284-.284.953.953,0,0,1-.095-.178.969.969,0,0,1-.059-.193.99.99,0,0,1,0-.4,1,1,0,0,1,.059-.194,1.016,1.016,0,0,1,.379-.462,1.047,1.047,0,0,1,.177-.095,1,1,0,0,1,.194-.059,1.016,1.016,0,0,1,.4,0,.966.966,0,0,1,.193.059,1.018,1.018,0,0,1,.178.095,1,1,0,0,1,.284.284,1.046,1.046,0,0,1,.095.177,1.074,1.074,0,0,1,.059.194.99.99,0,0,1,0,.4,1.039,1.039,0,0,1-.059.193,1.017,1.017,0,0,1-.095.178,1,1,0,0,1-.284.284,1.019,1.019,0,0,1-.178.095.966.966,0,0,1-.193.059A1.013,1.013,0,0,1,153.78,385.917Z" transform="translate(-137.01 -344.282)"/>
      <rect id="Rectangle_411582" data-name="Rectangle 411582" width="3.904" height="11.071" transform="translate(7.157 36.846)" fill="#eaecf0"/>
      <rect id="Rectangle_411583" data-name="Rectangle 411583" width="6.127" height="12.992" transform="translate(1.03 36.846)" fill="#3688c8"/>
      <path id="Path_1249777" data-name="Path 1249777" d="M47.4,318.687l-.012-.031c-.948-2.219-3.173-3.039-5.805-2.14L34.4,318.5a4.706,4.706,0,0,0-2.914-2.87l-.027-.01-7.891-2.678A8.139,8.139,0,0,0,17,309.922c-2.692,0-5.073,1.847-6.436,3.86H1.03A1.03,1.03,0,0,0,0,314.812V327.8a1.03,1.03,0,0,0,1.03,1.03H7.157a1.03,1.03,0,0,0,1.03-1.03v-.89h2.873a1.03,1.03,0,0,0,1.03-1.03v-.3a7.306,7.306,0,0,1,3.764,1.351,62.361,62.361,0,0,0,6.191,3.161l.045.019a9.249,9.249,0,0,0,3.315.625,8.213,8.213,0,0,0,3.414-.731l15.868-5.681c.028-.01.056-.021.083-.034C46.288,323.6,48.547,321.632,47.4,318.687ZM6.127,326.773H2.061V315.842H6.127Zm3.9-1.92H8.188v-9.01H10.03Zm33.917-2.447-15.861,5.679-.046.018-.042.018a6.679,6.679,0,0,1-5.132.087,59.683,59.683,0,0,1-5.983-3.056,9.275,9.275,0,0,0-4.793-1.63v-8.3c.977-1.6,2.871-3.24,4.913-3.24a5.946,5.946,0,0,1,5.044,2.37,1.031,1.031,0,0,0,.547.436l8.189,2.779a2.312,2.312,0,0,1,1.681,2.728A2.008,2.008,0,0,1,30,321.682l-9.232-2.926a1.03,1.03,0,0,0-.623,1.965l9.248,2.931.029.009a4.045,4.045,0,0,0,3.093-.359,4.041,4.041,0,0,0,1.933-2.441q.036-.125.063-.25l7.737-2.143c1.117-.382,2.584-.519,3.237.985C46.161,321.217,44.4,322.188,43.948,322.406Z" transform="translate(0 -277.966)"/>
      <path id="Path_1249778" data-name="Path 1249778" d="M60.356,19.175,51.2,10.023,39.729,21.5,59.337,41.105,70.165,30.277" transform="translate(-35.635 -8.969)" fill="#26cfad"/>
      <path id="Path_1249779" data-name="Path 1249779" d="M148.057,113.958h0l0-.006a4.843,4.843,0,1,0,5.174,4.954" transform="translate(-128.755 -102.189)" fill="#ffd36c"/>
      <path id="Path_1249780" data-name="Path 1249780" d="M211.656,38.719v-8.17c-4.654-.205-3.311-1.028-11.407-4.668a7.663,7.663,0,0,0-5.961.1l-.005,0-4.8,1.718,4.952,4.952" transform="translate(-169.958 -22.693)" fill="#eac092"/>
      <g id="Group_1210797" data-name="Group 1210797" transform="translate(4.094 1.054)">
        <path id="Path_1249781" data-name="Path 1249781" d="M39.729,87.518l3.89-3.89a5.507,5.507,0,0,1,0,7.78Z" transform="translate(-39.729 -76.043)" fill="#00b192"/>
        <path id="Path_1249782" data-name="Path 1249782" d="M192.264,259.91a5.507,5.507,0,0,1,7.78,0l-3.89,3.89Z" transform="translate(-176.546 -232.717)" fill="#00b192"/>
        <path id="Path_1249783" data-name="Path 1249783" d="M113.333,13.913l3.89-3.89,3.89,3.89A5.507,5.507,0,0,1,113.333,13.913Z" transform="translate(-105.749 -10.023)" fill="#00b192"/>
        <path id="Path_1249784" data-name="Path 1249784" d="M288.337,182.048a5.508,5.508,0,0,0,1.279,5.772l3.243-3.243" transform="translate(-262.424 -164.322)" fill="#00b192"/>
      </g>
      <g id="Group_1210798" data-name="Group 1210798" transform="translate(19.186 9.561)">
        <path id="Path_1249785" data-name="Path 1249785" d="M199.307,95.632,190.059,92.7a3.038,3.038,0,0,0-3.753,2.091h0a3.334,3.334,0,0,0,2.327,3.981l8.208,2.786h0a6.974,6.974,0,0,0,5.922,2.86c2.633,0,4.9-2.128,5.943-3.992v-3.72" transform="translate(-186.19 -92.585)" fill="#fedbab"/>
      </g>
      <path id="Path_1249786" data-name="Path 1249786" d="M340.28,125.558a1.016,1.016,0,0,1-.2-.021,1.041,1.041,0,0,1-.193-.059,1.018,1.018,0,0,1-.178-.095,1,1,0,0,1-.284-.284,1.018,1.018,0,0,1-.095-.178.972.972,0,0,1-.059-.193.989.989,0,0,1,0-.4,1,1,0,0,1,.059-.194,1.046,1.046,0,0,1,.095-.177,1,1,0,0,1,.284-.284,1.016,1.016,0,0,1,.178-.095.968.968,0,0,1,.193-.059,1.027,1.027,0,0,1,.6.059,1.045,1.045,0,0,1,.177.095,1.03,1.03,0,0,1,.379.462,1.027,1.027,0,0,1,.06.6.975.975,0,0,1-.06.193.953.953,0,0,1-.095.178,1,1,0,0,1-.284.284,1.046,1.046,0,0,1-.177.095,1.091,1.091,0,0,1-.193.059A1.034,1.034,0,0,1,340.28,125.558Z" transform="translate(-304.292 -110.751)"/>
      <rect id="Rectangle_411584" data-name="Rectangle 411584" width="3.904" height="11.071" transform="translate(41.698 6.464)" fill="#eaecf0"/>
      <rect id="Rectangle_411585" data-name="Rectangle 411585" width="6.127" height="12.992" transform="translate(45.601 4.544)" fill="#3688c8"/>
      <path id="Path_1249787" data-name="Path 1249787" d="M78.359,3.513H72.232a1.03,1.03,0,0,0-1.03,1.03v.89H68.329a1.03,1.03,0,0,0-1.03,1.03v.3a7.306,7.306,0,0,1-3.764-1.351,62.351,62.351,0,0,0-6.191-3.161L57.3,2.23a8.767,8.767,0,0,0-6.729.106L46.423,3.82l-3.5-3.5a1.03,1.03,0,0,0-1.457,0L30,11.8a1.022,1.022,0,0,0,0,1.457L49.6,32.865a1.113,1.113,0,0,0,1.457,0L61.538,22.389c.272.023.555.036.848.036,2.692,0,5.073-1.847,6.436-3.86h9.538a1.03,1.03,0,0,0,1.03-1.03V4.544A1.03,1.03,0,0,0,78.359,3.513ZM44.813,13.07A4.562,4.562,0,0,0,47.9,16.716l.027.01,2.06.7a3.813,3.813,0,1,1-5.175-4.355Zm2.061-4.024A4.039,4.039,0,0,0,45.2,10.82a5.873,5.873,0,1,0,6.753,7.27l3.479,1.181a6.579,6.579,0,0,0,1.092,5.222l-2.353,2.353a6.548,6.548,0,0,0-7.665,0L36.015,16.361a6.548,6.548,0,0,0,0-7.666l2.351-2.351a6.548,6.548,0,0,0,7.666,0l2.229,2.229A4.067,4.067,0,0,0,46.874,9.046ZM58,23.008a4.507,4.507,0,0,1-.658-2.143,8.012,8.012,0,0,0,1.817.984ZM42.2,2.511l2.349,2.349a4.492,4.492,0,0,1-4.7,0ZM34.531,10.18a4.493,4.493,0,0,1,0,4.7l-2.349-2.349Zm15.8,20.5-2.348-2.348a4.486,4.486,0,0,1,4.7,0ZM62.385,20.364a7.5,7.5,0,0,1-1.075-.076h0A5.9,5.9,0,0,1,57.49,18.2c-.021-.031-.111-.148-.124-.168a1.027,1.027,0,0,0-.568-.472l-8.193-2.781a2.312,2.312,0,0,1-1.682-2.727v0a2.008,2.008,0,0,1,2.466-1.382l9.232,2.926a1.03,1.03,0,1,0,.623-1.965L51.9,9.3l-.064-.064,0,0-3.8-3.8L51.3,4.262l.036-.013.011,0,.042-.018a6.678,6.678,0,0,1,5.131-.087A59.688,59.688,0,0,1,62.5,7.195,9.273,9.273,0,0,0,67.3,8.825v8.3C66.322,18.725,64.428,20.364,62.385,20.364Zm6.974-12.87H71.2V16.5H69.359Zm7.969,9.01H73.263V5.574h4.066Z" transform="translate(-26.631)"/>
    </g>
  </g>
</svg>
