<svg xmlns="http://www.w3.org/2000/svg" width="83" height="83" viewBox="0 0 83 83">
  <g id="Group_1210727" data-name="Group 1210727" transform="translate(-428.051 -2637)">
    <g id="Group_1209638" data-name="Group 1209638" transform="translate(1 -5898)">
      <g id="Group_1208693" data-name="Group 1208693" transform="translate(89 5452)">
        <circle id="Ellipse_12656" data-name="Ellipse 12656" cx="41.5" cy="41.5" r="41.5" transform="translate(338.051 3083)" fill="#b7a8f1"/>
      </g>
    </g>
    <g id="identificar" transform="translate(444.051 2653)">
      <g id="Group_1210725" data-name="Group 1210725" transform="translate(0.822 0.822)">
        <g id="Group_1210714" data-name="Group 1210714">
          <path id="Path_1249570" data-name="Path 1249570" d="M40.445,4.287V9.333A12,12,0,0,0,38.8,9.218a11.507,11.507,0,0,0-11.5,11.5,12,12,0,0,0,.115,1.644h-10.8l-.559,2.243a1.377,1.377,0,0,1-2.309.641l-2.884-2.884H4.287A3.286,3.286,0,0,1,1,19.079V4.287A3.286,3.286,0,0,1,4.287,1h32.87A3.286,3.286,0,0,1,40.445,4.287Z" transform="translate(-1 -1)" fill="#e6e9ed"/>
        </g>
        <g id="Group_1210715" data-name="Group 1210715" transform="translate(18.079 14.792)">
          <circle id="Ellipse_12779" data-name="Ellipse 12779" cx="1.5" cy="1.5" r="1.5" transform="translate(0.1 0.336)" fill="#ff826e"/>
        </g>
        <g id="Group_1210716" data-name="Group 1210716" transform="translate(0 32.87)">
          <path id="Path_1249571" data-name="Path 1249571" d="M27.3,42.644v8.218A1.648,1.648,0,0,1,25.653,52.5H1V41H25.653A1.648,1.648,0,0,1,27.3,42.644Z" transform="translate(-1 -41)" fill="#ff826e"/>
        </g>
        <g id="Group_1210717" data-name="Group 1210717" transform="translate(34.514 34.514)">
          <path id="Path_1249572" data-name="Path 1249572" d="M49.574,54.5v1.644a1.648,1.648,0,0,1-1.644,1.644H44.644A1.648,1.648,0,0,1,43,56.148V43h3.287a1.648,1.648,0,0,0,1.644,1.644,1.655,1.655,0,0,0-1.644,1.644,1.648,1.648,0,0,0,1.644,1.644,1.655,1.655,0,0,0-1.644,1.644,1.648,1.648,0,0,0,1.644,1.644,1.655,1.655,0,0,0-1.644,1.644A1.648,1.648,0,0,0,47.931,54.5Z" transform="translate(-43 -43)" fill="#969faa"/>
        </g>
        <g id="Group_1210718" data-name="Group 1210718" transform="translate(37.801 36.158)">
          <path id="Path_1249573" data-name="Path 1249573" d="M51.931,45a1.648,1.648,0,0,1,1.644,1.644,1.655,1.655,0,0,1-1.644,1.644H48.644A1.648,1.648,0,0,1,47,46.644,1.655,1.655,0,0,1,48.644,45Z" transform="translate(-47 -45)" fill="#f0d0b4"/>
        </g>
        <g id="Group_1210719" data-name="Group 1210719" transform="translate(37.801 39.445)">
          <path id="Path_1249574" data-name="Path 1249574" d="M51.931,49a1.648,1.648,0,0,1,1.644,1.644,1.655,1.655,0,0,1-1.644,1.644H48.644A1.648,1.648,0,0,1,47,50.644,1.655,1.655,0,0,1,48.644,49Z" transform="translate(-47 -49)" fill="#f0d0b4"/>
        </g>
        <g id="Group_1210720" data-name="Group 1210720" transform="translate(37.801 42.732)">
          <path id="Path_1249575" data-name="Path 1249575" d="M51.931,53a1.648,1.648,0,0,1,1.644,1.644,1.655,1.655,0,0,1-1.644,1.644H48.644A1.648,1.648,0,0,1,47,54.644,1.655,1.655,0,0,1,48.644,53Z" transform="translate(-47 -53)" fill="#f0d0b4"/>
        </g>
        <g id="Group_1210721" data-name="Group 1210721" transform="translate(37.801 32.87)">
          <path id="Path_1249576" data-name="Path 1249576" d="M51.931,41a1.648,1.648,0,0,1,1.644,1.644,1.655,1.655,0,0,1-1.644,1.644H48.644A1.648,1.648,0,0,1,47,42.644h1.644a2.459,2.459,0,0,0,1.742-.723l.575-.92h.97Z" transform="translate(-47 -41)" fill="#f0d0b4"/>
        </g>
        <g id="Group_1210722" data-name="Group 1210722" transform="translate(26.296 31.227)">
          <path id="Path_1249577" data-name="Path 1249577" d="M41.218,42.287v11.5H38.835a4.911,4.911,0,0,1-3.073-1.077L33,50.5V42.287l2.761-2.211A4.911,4.911,0,0,1,38.835,39h8.957a.824.824,0,0,1,.822.822,2.278,2.278,0,0,1-.148.822l-.575.92a2.459,2.459,0,0,1-1.742.723H41.218Z" transform="translate(-33 -39)" fill="#f0d0b4"/>
        </g>
        <g id="Group_1210723" data-name="Group 1210723" transform="translate(26.296 8.218)">
          <path id="Path_1249578" data-name="Path 1249578" d="M46.148,11.115A11.506,11.506,0,1,1,33.115,24.148,12,12,0,0,1,33,22.5,11.507,11.507,0,0,1,44.5,11,12,12,0,0,1,46.148,11.115Z" transform="translate(-33 -11)" fill="#fcd770"/>
        </g>
        <g id="Group_1210724" data-name="Group 1210724" transform="translate(29.583 11.505)">
          <circle id="Ellipse_12780" data-name="Ellipse 12780" cx="8.5" cy="8.5" r="8.5" transform="translate(-0.405 -0.377)" fill="#69d6f4"/>
        </g>
      </g>
      <g id="Group_1210726" data-name="Group 1210726">
        <path id="Path_1249579" data-name="Path 1249579" d="M50.949,20.544A12.348,12.348,0,0,0,41.088,8.466V4.109A4.113,4.113,0,0,0,36.979,0H4.109A4.113,4.113,0,0,0,0,4.109V18.9a4.113,4.113,0,0,0,4.109,4.109h6.234l2.644,2.644a2.2,2.2,0,0,0,3.685-1.021l.406-1.623h9.468a12.358,12.358,0,0,0,6.011,8.252,5.764,5.764,0,0,0-3.193,1.226l-1.843,1.474a2.467,2.467,0,0,0-2.046-1.091H0V46.019H25.475a2.464,2.464,0,0,0,2.045-1.091L29.363,46.4a5.774,5.774,0,0,0,3.593,1.261h1.558v.822a2.468,2.468,0,0,0,2.465,2.465h3.287a2.468,2.468,0,0,0,2.465-2.465v-.822h.822a2.455,2.455,0,0,0,1.824-4.109,2.428,2.428,0,0,0,0-3.287,2.428,2.428,0,0,0,0-3.287,2.455,2.455,0,0,0-1.824-4.109,1.635,1.635,0,0,0-.281-.918,12.339,12.339,0,0,0,7.677-11.409Zm-35.156.822-.717,2.868a.576.576,0,0,1-.929.257l-3.124-3.125H4.109A2.468,2.468,0,0,1,1.644,18.9V4.109A2.468,2.468,0,0,1,4.109,1.644h32.87a2.468,2.468,0,0,1,2.465,2.465V8.26c-.273-.018-.544-.042-.822-.042A12.34,12.34,0,0,0,26.3,20.544c0,.278.024.549.042.822ZM26.3,43.553a.823.823,0,0,1-.822.822H1.644V34.514H25.475a.823.823,0,0,1,.822.822Zm14.792,4.931a.823.823,0,0,1-.822.822H36.979a.823.823,0,0,1-.822-.822V36.158h1.795a2.442,2.442,0,0,0,.49.822,2.428,2.428,0,0,0,0,3.287,2.428,2.428,0,0,0,0,3.287,2.455,2.455,0,0,0,1.824,4.109h.822Zm3.287-9.861a.823.823,0,0,1-.822.822H40.266a.822.822,0,1,1,0-1.644h3.287A.823.823,0,0,1,44.375,38.623Zm0,3.287a.823.823,0,0,1-.822.822H40.266a.822.822,0,1,1,0-1.644h3.287A.823.823,0,0,1,44.375,41.91Zm-.822,4.109H40.266a.822.822,0,0,1,0-1.644h3.287a.822.822,0,0,1,0,1.644Zm0-11.5a.822.822,0,0,1,0,1.644H40.266a3.276,3.276,0,0,0,2.83-1.644ZM41.91,32.87a1.645,1.645,0,0,1-1.644,1.644H34.9l-.244.366a4.7,4.7,0,0,1-3.922,2.1h-.325v1.644h.325a6.335,6.335,0,0,0,3.784-1.26v8.656H32.956a4.126,4.126,0,0,1-2.567-.9l-2.449-1.96V35.731l2.45-1.96a4.124,4.124,0,0,1,2.566-.9Zm-3.287-1.644A10.683,10.683,0,1,1,49.306,20.544,10.7,10.7,0,0,1,38.623,31.227Z"/>
        <path id="Path_1249580" data-name="Path 1249580" d="M45.039,14a9.039,9.039,0,1,0,9.039,9.039A9.05,9.05,0,0,0,45.039,14Zm0,16.435a7.4,7.4,0,1,1,7.4-7.4A7.4,7.4,0,0,1,45.039,30.435Z" transform="translate(-6.417 -2.495)"/>
        <path id="Path_1249581" data-name="Path 1249581" d="M24.349,4h-.48A3.873,3.873,0,0,0,20,7.869v.24h1.644v-.24a2.228,2.228,0,0,1,2.225-2.225h.48a2.226,2.226,0,0,1,1,4.216l-2.057,1.028v2.973h1.644V11.9l1.149-.574A3.87,3.87,0,0,0,24.349,4Z" transform="translate(-3.565 -0.713)"/>
        <path id="Path_1249582" data-name="Path 1249582" d="M24.465,18a2.465,2.465,0,1,0,2.465,2.465A2.468,2.468,0,0,0,24.465,18Zm0,3.287a.822.822,0,1,1,.822-.822A.823.823,0,0,1,24.465,21.287Z" transform="translate(-3.921 -3.208)"/>
        <circle id="Ellipse_12781" data-name="Ellipse 12781" cx="0.5" cy="0.5" r="0.5" transform="translate(38 24.949)"/>
        <path id="Path_1249583" data-name="Path 1249583" d="M46.287,18A3.29,3.29,0,0,0,43,21.287h1.644a1.644,1.644,0,1,1,3.287,0v.325a1.64,1.64,0,0,1-.732,1.367l-1.733,1.155v2.083h1.644v-1.2l1-.668a3.28,3.28,0,0,0,1.464-2.734v-.325A3.29,3.29,0,0,0,46.287,18Z" transform="translate(-7.664 -3.208)"/>
        <path id="Path_1249584" data-name="Path 1249584" d="M11,34h1.644v1.644H11Z" transform="translate(-1.961 -6.06)"/>
        <path id="Path_1249585" data-name="Path 1249585" d="M15,34h1.644v1.644H15Z" transform="translate(-2.674 -6.06)"/>
        <path id="Path_1249586" data-name="Path 1249586" d="M23,34h1.644v1.644H23Z" transform="translate(-4.099 -6.06)"/>
        <path id="Path_1249587" data-name="Path 1249587" d="M19,34h1.644v1.644H19Z" transform="translate(-3.387 -6.06)"/>
      </g>
    </g>
  </g>
</svg>
