<svg xmlns="http://www.w3.org/2000/svg" width="83" height="83" viewBox="0 0 83 83">
  <g id="Group_1210730" data-name="Group 1210730" transform="translate(8895 8971)">
    <g id="Group_1209642" data-name="Group 1209642" transform="translate(-9985.051 -17506)">
      <g id="Group_1208695" data-name="Group 1208695" transform="translate(752 5452)">
        <circle id="Ellipse_12656" data-name="Ellipse 12656" cx="41.5" cy="41.5" r="41.5" transform="translate(338.051 3083)" fill="#b7a8f1"/>
      </g>
    </g>
    <g id="Ecommerce-transfer_money-buy-smartphone-hands" data-name="Ecommerce-transfer money-buy-smartphone-hands" transform="translate(-8880 -8956)">
      <rect id="Rectangle_411581" data-name="Rectangle 411581" width="23" height="37" rx="2" transform="translate(8 3.015)" fill="#46f8ff"/>
      <path id="Path_1249609" data-name="Path 1249609" d="M35.9,25.339V11.451a2.451,2.451,0,1,1,4.9,0V27.789a2.451,2.451,0,1,1,4.9,0v.817a2.445,2.445,0,0,1,.719-1.732,2.318,2.318,0,0,1,.915-.572,2.265,2.265,0,0,1,.817-.147,2.451,2.451,0,0,1,2.451,2.451v.817a2.451,2.451,0,1,1,4.9,0v3.235a4.938,4.938,0,0,1-.286,1.65l-3.8,10.636H35.085l-1.168-3.268-2.631-7.369A4.938,4.938,0,0,1,31,32.658V25.33a2.444,2.444,0,0,1,2.443-2.443,2.479,2.479,0,0,1,1.74.719,2.445,2.445,0,0,1,.719,1.732Z" transform="translate(-5.309 -1.282)" fill="#ffc477"/>
      <path id="Path_1249610" data-name="Path 1249610" d="M59.535,33.451v3.235a4.938,4.938,0,0,1-.286,1.65l-3.8,10.636H53l3.8-10.636a4.938,4.938,0,0,0,.286-1.65V33.451a2.445,2.445,0,0,0-.719-1.732,2.7,2.7,0,0,0-.506-.392,2.453,2.453,0,0,1,3.676,2.124Z" transform="translate(-9.337 -5.309)" fill="#ffa733"/>
      <path id="Path_1249611" data-name="Path 1249611" d="M51,53h4.085v6.535H51Z" transform="translate(-8.971 -9.337)" fill="#57a4ff"/>
      <path id="Path_1249612" data-name="Path 1249612" d="M46,53h4.085v6.535H46Z" transform="translate(-8.055 -9.337)" fill="#2488ff"/>
      <path id="Path_1249613" data-name="Path 1249613" d="M41,53h4.085v6.535H41Z" transform="translate(-7.14 -9.337)" fill="#57a4ff"/>
      <path id="Path_1249614" data-name="Path 1249614" d="M36,53h4.085v6.535H36Z" transform="translate(-6.224 -9.337)" fill="#2488ff"/>
      <path id="Path_1249615" data-name="Path 1249615" d="M26.037,44.789l-3.431,4.9H4.634L3,32.535V29.268A3.268,3.268,0,0,1,6.268,26h5.718a3.268,3.268,0,0,1,0,6.535H7.9v10.62a1.639,1.639,0,0,0,1.634,1.634Z" transform="translate(-0.183 -4.394)" fill="#ffc477"/>
      <circle id="Ellipse_12782" data-name="Ellipse 12782" cx="7.5" cy="7.5" r="7.5" transform="translate(12 6.015)" fill="#ffcd00"/>
      <path id="Path_1249616" data-name="Path 1249616" d="M29.986,14.352A7.352,7.352,0,0,1,22.634,21.7,7.643,7.643,0,0,1,21,21.525,7.357,7.357,0,0,0,21,7.18,7.643,7.643,0,0,1,22.634,7a7.352,7.352,0,0,1,7.352,7.352Z" transform="translate(-3.478 -0.915)" fill="#ddb200"/>
      <path id="Path_1249617" data-name="Path 1249617" d="M5,55H22.972v4.9H5Z" transform="translate(-0.549 -9.703)" fill="#2488ff"/>
      <path id="Path_1249618" data-name="Path 1249618" d="M42.176,11.45V27.789H39.725V11.45A2.451,2.451,0,0,0,38.5,9.326a2.451,2.451,0,0,1,3.676,2.124Z" transform="translate(-6.682 -1.281)" fill="#ffa733"/>
      <path id="Path_1249619" data-name="Path 1249619" d="M54.592,12.828l1.155,1.155,3.268-3.268a.817.817,0,0,0,0-1.155L55.747,6.293,54.592,7.448l1.873,1.873H47v1.634h9.465Z" transform="translate(-8.238 -0.786)"/>
      <path id="Path_1249620" data-name="Path 1249620" d="M49.507,21.984l1.155-1.155-1.873-1.873h9.465V17.321H48.789l1.873-1.873-1.155-1.155-3.268,3.268a.817.817,0,0,0,0,1.155Z" transform="translate(-8.055 -2.251)"/>
      <path id="Path_1249621" data-name="Path 1249621" d="M50.06,25.83a3.251,3.251,0,0,0-4.42-.172,3.24,3.24,0,0,0-2.794-1.6,2.908,2.908,0,0,0-1.07.188,3.136,3.136,0,0,0-1.029.6,3.268,3.268,0,0,0-2.8-1.609,3.229,3.229,0,0,0-1.634.449V10.169A3.268,3.268,0,0,0,33.043,6.9a3.229,3.229,0,0,0-1.634.449v-2.9A2.458,2.458,0,0,0,28.959,2H9.352A2.458,2.458,0,0,0,6.9,4.451V20.789H6.085A4.085,4.085,0,0,0,2,24.874v3.341L3.634,45.338V50.2a.817.817,0,0,0,.817.817H22.423a.817.817,0,0,0,.817-.817v-4.64l3.039-4.346h1.756l.923,2.59v6.4a.817.817,0,0,0,.817.817H46.114a.817.817,0,0,0,.817-.817V43.8L50.681,33.3a5.718,5.718,0,0,0,.335-1.92V28.142A3.268,3.268,0,0,0,50.06,25.83ZM21.606,49.382H5.268V46.114H21.606ZM22,44.48H5.194L3.634,28.142V24.874a2.458,2.458,0,0,1,2.451-2.451H11.8a2.451,2.451,0,0,1,0,4.9H7.718a.817.817,0,0,0-.817.817v10.62a2.458,2.458,0,0,0,2.451,2.451H24.286Zm-12.646-4.9a.817.817,0,0,1-.817-.817V36.311h14.7V34.677H8.535V28.959H11.8a4.085,4.085,0,0,0,0-8.169H8.535V4.451a.817.817,0,0,1,.817-.817H28.959a.817.817,0,0,1,.817.817v16.8a3.208,3.208,0,0,0-1.642-.457,3.268,3.268,0,0,0-3.26,3.26v7.328a5.8,5.8,0,0,0,.335,1.928l2.238,6.274Zm23.691,9.8H30.592v-4.9h2.451Zm4.085,0H34.677v-4.9h2.451Zm4.085,0H38.762v-4.9h2.451Zm4.085,0H42.846v-4.9H45.3Zm4.085-18.005a4.144,4.144,0,0,1-.237,1.372l-3.6,10.1H30.347l-3.6-10.089a4.229,4.229,0,0,1-.237-1.381V24.049a1.634,1.634,0,0,1,3.268.008v6.535h1.634V10.169a1.634,1.634,0,0,1,3.268,0V30.592h1.634V26.508a1.634,1.634,0,1,1,3.268,0v4.085h1.634V27.325a1.62,1.62,0,0,1,.482-1.152,1.47,1.47,0,0,1,.629-.392,1.526,1.526,0,0,1,.523-.09,1.639,1.639,0,0,1,1.634,1.634v4.085h1.634V28.142a1.634,1.634,0,0,1,3.268,0Z" transform="translate(0)"/>
      <path id="Path_1249622" data-name="Path 1249622" d="M21.169,6a8.169,8.169,0,1,0,8.169,8.169A8.169,8.169,0,0,0,21.169,6Zm0,14.7A6.535,6.535,0,1,1,27.7,14.169,6.535,6.535,0,0,1,21.169,20.7Z" transform="translate(-2.014 -0.732)"/>
      <path id="Path_1249623" data-name="Path 1249623" d="M24.9,16.535a2.459,2.459,0,0,1-1.634,2.3V19.8H21.634v-.964A2.459,2.459,0,0,1,20,16.535h1.634a.817.817,0,1,0,.817-.817,2.451,2.451,0,0,1-.817-4.755V10h1.634v.964a2.459,2.459,0,0,1,1.634,2.3H23.268a.817.817,0,1,0-.817.817A2.458,2.458,0,0,1,24.9,16.535Z" transform="translate(-3.295 -1.465)"/>
    </g>
  </g>
</svg>
