<svg xmlns="http://www.w3.org/2000/svg" xmlns:xlink="http://www.w3.org/1999/xlink" width="90" height="90" viewBox="0 0 90 90">
  <defs>
    <filter id="Path_824488" x="0" y="0" width="90" height="90" filterUnits="userSpaceOnUse">
      <feOffset input="SourceAlpha"/>
      <feGaussianBlur stdDeviation="3" result="blur"/>
      <feFlood flood-color="#291a1a" flood-opacity="0.502"/>
      <feComposite operator="in" in2="blur"/>
      <feComposite in="SourceGraphic"/>
    </filter>
    <clipPath id="clip-path">
      <path id="path1110" d="M0-682.665H42.873v42.873H0Z" transform="translate(0 682.665)"/>
    </clipPath>
  </defs>
  <g id="Group_1210827" data-name="Group 1210827" transform="translate(-206.051 -9966)">
    <g id="Group_1207263" data-name="Group 1207263" transform="translate(-203.949 8854)">
      <g transform="matrix(1, 0, 0, 1, 410, 1112)" filter="url(#Path_824488)">
        <path id="Path_824488-2" data-name="Path 824488" d="M36,0A36,36,0,1,1,0,36,36,36,0,0,1,36,0Z" transform="translate(9 9)" fill="#ccf5ec"/>
      </g>
    </g>
    <g id="g1104" transform="translate(230.051 10671.665)">
      <g id="g1106" transform="translate(0 -682.665)">
        <g id="g1108" clip-path="url(#clip-path)">
          <g id="g1114" transform="translate(35.001 21.094)">
            <path id="path1116" d="M0-46.885l5.021-2.955A1.335,1.335,0,0,1,7.034-48.69v16.1a1.335,1.335,0,0,1-2.012,1.151L0-34.4Z" transform="translate(0 50.027)" fill="#9bc6ff"/>
          </g>
          <path id="path1118" d="M507.348-288H504v11.388h3.349Z" transform="translate(-472.347 312.785)" fill="#98a1b3"/>
          <g id="g1120" transform="translate(0.837 20.097)">
            <path id="path1122" d="M-29.99,0h26.8a2.01,2.01,0,0,1,2.01,2.01V18.757a2.01,2.01,0,0,1-2.01,2.01h-26.8A2.01,2.01,0,0,1-32,18.757V2.01A2.01,2.01,0,0,1-29.99,0" transform="translate(32)" fill="#8690a6"/>
          </g>
          <g id="g1124" transform="translate(23.613 24.116)">
            <path id="path1126" d="M-59.981-29.99a2.01,2.01,0,0,1-2.01,2.01A2.01,2.01,0,0,1-64-29.99,2.01,2.01,0,0,1-61.99-32a2.01,2.01,0,0,1,2.01,2.01" transform="translate(64 32)" fill="#f5737f"/>
          </g>
          <path id="path1128" d="M491.5-301.333h3.349a.837.837,0,0,1,.837.837v11.388a.837.837,0,0,1-.837.837H491.5a.837.837,0,0,1-.837-.837V-300.5A.837.837,0,0,1,491.5-301.333Zm2.512,1.675H492.34v9.713h1.675Z" transform="translate(-459.851 325.281)"/>
          <g id="g1130" transform="translate(34.164 20.257)">
            <path id="path1132" d="M-6.8-63.361a2.177,2.177,0,0,1,2.175,2.175v16.1A2.177,2.177,0,0,1-6.8-42.915a2.171,2.171,0,0,1-1.1-.3l-5.021-2.955a.837.837,0,0,1-.413-.722V-59.381a.837.837,0,0,1,.413-.722L-7.9-63.058A2.171,2.171,0,0,1-6.8-63.361Zm0,18.771a.5.5,0,0,0,.5-.5v-16.1a.5.5,0,0,0-.5-.5.489.489,0,0,0-.25.071L-11.659-58.9v11.53l4.609,2.712A.489.489,0,0,0-6.8-44.59Z" transform="translate(13.333 63.361)"/>
          </g>
          <g id="g1134" transform="translate(22.776 23.278)">
            <path id="path1136" d="M-74.486-45.333a2.85,2.85,0,0,1,2.847,2.847,2.85,2.85,0,0,1-2.847,2.847,2.85,2.85,0,0,1-2.847-2.847A2.85,2.85,0,0,1-74.486-45.333Zm0,4.019a1.174,1.174,0,0,0,1.172-1.172,1.174,1.174,0,0,0-1.172-1.172,1.174,1.174,0,0,0-1.172,1.172A1.174,1.174,0,0,0-74.486-41.314Z" transform="translate(77.333 45.333)"/>
          </g>
          <g id="g1138" transform="translate(16.245 40.863)">
            <path id="path1140"/>
          </g>
          <g id="g1142" transform="translate(0.837 6.699)">
            <path id="path1144" d="M-199.935-99.968a6.7,6.7,0,0,0-6.7-6.7,6.7,6.7,0,0,0-6.7,6.7,6.7,6.7,0,0,0,6.7,6.7,6.7,6.7,0,0,0,6.7-6.7" transform="translate(213.333 106.666)" fill="#98a1b3"/>
          </g>
          <g id="g1146" transform="translate(14.063 2.01)">
            <path id="path1148" d="M-269.912-134.956A9.043,9.043,0,0,0-278.956-144,9.043,9.043,0,0,0-288-134.956a9.043,9.043,0,0,0,9.043,9.043,9.043,9.043,0,0,0,9.043-9.043" transform="translate(287.999 144)" fill="#8690a6"/>
          </g>
          <g id="g1150" transform="translate(13.225 1.172)">
            <path id="path1152" d="M-291.452-157.333a9.892,9.892,0,0,1,9.881,9.881,9.892,9.892,0,0,1-9.881,9.881,9.892,9.892,0,0,1-9.881-9.881A9.892,9.892,0,0,1-291.452-157.333Zm0,18.087a8.215,8.215,0,0,0,8.206-8.206,8.215,8.215,0,0,0-8.206-8.206,8.215,8.215,0,0,0-8.206,8.206A8.215,8.215,0,0,0-291.452-139.246Z" transform="translate(301.333 157.333)"/>
          </g>
          <g id="g1154" transform="translate(17.412 5.359)">
            <path id="path1156" d="M-169.945-84.972a5.694,5.694,0,0,0-5.694-5.694,5.694,5.694,0,0,0-5.694,5.694,5.694,5.694,0,0,0,5.694,5.694,5.694,5.694,0,0,0,5.694-5.694" transform="translate(181.333 90.666)" fill="#d3d7df"/>
          </g>
          <g id="g1158" transform="translate(16.575 4.522)">
            <path id="path1160" d="M-188.135-104a6.539,6.539,0,0,1,6.531,6.531,6.539,6.539,0,0,1-6.531,6.531,6.539,6.539,0,0,1-6.531-6.531A6.539,6.539,0,0,1-188.135-104Zm0,11.388a4.862,4.862,0,0,0,4.857-4.857,4.862,4.862,0,0,0-4.857-4.857,4.862,4.862,0,0,0-4.857,4.857A4.862,4.862,0,0,0-188.135-92.612Z" transform="translate(194.666 104)"/>
          </g>
          <g id="g1162" transform="translate(23.106 8.764)">
            <path id="path1164"/>
          </g>
          <g id="g1166" transform="translate(23.106 13.342)">
            <path id="path1168"/>
          </g>
          <g id="g1170" transform="translate(25.395 11.053)">
            <path id="path1172"/>
          </g>
          <g id="g1174" transform="translate(20.817 11.053)">
            <path id="path1176"/>
          </g>
          <g id="g1178" transform="translate(0 5.861)">
            <path id="path1180" d="M-219.13-120a7.545,7.545,0,0,1,7.536,7.536,7.545,7.545,0,0,1-7.536,7.536,7.545,7.545,0,0,1-7.536-7.536A7.545,7.545,0,0,1-219.13-120Zm0,13.4a5.868,5.868,0,0,0,5.861-5.861,5.868,5.868,0,0,0-5.861-5.861,5.868,5.868,0,0,0-5.861,5.861A5.868,5.868,0,0,0-219.13-106.6Z" transform="translate(226.666 120)"/>
          </g>
          <g id="g1182" transform="translate(4.522 10.383)">
            <path id="path1184" d="M-89.971-44.985A3.015,3.015,0,0,0-92.985-48,3.015,3.015,0,0,0-96-44.985a3.015,3.015,0,0,0,3.014,3.014,3.015,3.015,0,0,0,3.014-3.014" transform="translate(96 48)" fill="#d3d7df"/>
          </g>
          <g id="g1186" transform="translate(3.684 9.546)">
            <path id="path1188" d="M-105.481-61.333a3.856,3.856,0,0,1,3.852,3.852,3.856,3.856,0,0,1-3.852,3.852,3.856,3.856,0,0,1-3.852-3.852A3.856,3.856,0,0,1-105.481-61.333Zm0,6.029a2.18,2.18,0,0,0,2.177-2.177,2.18,2.18,0,0,0-2.177-2.177,2.18,2.18,0,0,0-2.177,2.177A2.18,2.18,0,0,0-105.481-55.3Z" transform="translate(109.333 61.333)"/>
          </g>
          <g id="g1190" transform="translate(0 19.259)">
            <path id="path1192" d="M-169.024-321.558h-9.63a.837.837,0,0,1-.837-.837.837.837,0,0,1,.837-.837h9.63a1.174,1.174,0,0,0,1.172-1.172v-16.747a1.174,1.174,0,0,0-1.172-1.172h-26.8a1.174,1.174,0,0,0-1.172,1.172v16.747a1.174,1.174,0,0,0,1.172,1.172h9.63a.837.837,0,0,1,.837.837.837.837,0,0,1-.837.837h-9.63a2.85,2.85,0,0,1-2.847-2.847v-16.747A2.85,2.85,0,0,1-195.819-344h26.8a2.85,2.85,0,0,1,2.847,2.847v16.747A2.85,2.85,0,0,1-169.024-321.558Z" transform="translate(198.666 343.999)"/>
          </g>
          <path id="path1194" d="M99.9-224H85.333v8.039H99.9Z" transform="translate(-79.974 252.804)" fill="#e1e3e9"/>
          <path id="path1194_-_Contorno" data-name="path1194 - Contorno" d="M72.837-237.333h14.57a.837.837,0,0,1,.837.837v8.039a.837.837,0,0,1-.837.837H72.837a.837.837,0,0,1-.837-.837V-236.5A.837.837,0,0,1,72.837-237.333Zm13.733,1.675h-12.9v6.364h12.9Z" transform="translate(-67.478 265.3)"/>
          <path id="path1196" d="M380.018-166.647H376v-4.019h4.019Z" transform="translate(-352.386 202.821)" fill="#ffcb7c"/>
          <path id="path1196_-_Contorno" data-name="path1196 - Contorno" d="M367.522-178.306H363.5a.837.837,0,0,1-.837-.837v-4.019A.837.837,0,0,1,363.5-184h4.019a.837.837,0,0,1,.837.837v4.019A.837.837,0,0,1,367.522-178.306Zm-3.182-1.675h2.345v-2.345h-2.345Z" transform="translate(-339.89 215.317)"/>
        </g>
      </g>
    </g>
  </g>
</svg>
