<svg xmlns="http://www.w3.org/2000/svg" xmlns:xlink="http://www.w3.org/1999/xlink" width="98" height="98" viewBox="0 0 98 98">
  <defs>
    <filter id="Path_874925" x="0" y="0" width="98" height="98" filterUnits="userSpaceOnUse">
      <feOffset dy="3" input="SourceAlpha"/>
      <feGaussianBlur stdDeviation="3" result="blur"/>
      <feFlood flood-opacity="0.161"/>
      <feComposite operator="in" in2="blur"/>
      <feComposite in="SourceGraphic"/>
    </filter>
  </defs>
  <g id="Group_1210738" data-name="Group 1210738" transform="translate(-276.051 -639)">
    <g id="Group_1201135" data-name="Group 1201135" transform="translate(0.359 -5452)">
      <g id="Group_1200231" data-name="Group 1200231" transform="translate(-0.309 -0.407)">
        <g id="Group_1187153" data-name="Group 1187153">
          <g id="Group_1182177" data-name="Group 1182177">
            <g id="Group_1181903" data-name="Group 1181903">
              <g id="Group_1181438" data-name="Group 1181438">
                <g id="Group_1111314" data-name="Group 1111314" transform="translate(-734.73 3020.407)">
                  <g transform="matrix(1, 0, 0, 1, 1010.73, 3071)" filter="url(#Path_874925)">
                    <g id="Path_874925-2" data-name="Path 874925" transform="translate(9 6)" fill="#fd9826">
                      <path d="M 39.99997329711914 79.50040435791016 C 34.66728591918945 79.50040435791016 29.494384765625 78.45610046386719 24.62495040893555 76.39649963378906 C 19.92138481140137 74.40706634521484 15.69705104827881 71.55889892578125 12.06927299499512 67.93113708496094 C 8.441506385803223 64.30335998535156 5.593339920043945 60.07902526855469 3.603906631469727 55.37545776367188 C 1.544306635856628 50.50602340698242 0.5000066161155701 45.33312606811523 0.5000066161155701 40.00043487548828 C 0.5000066161155701 34.66728973388672 1.544306635856628 29.4943904876709 3.603906631469727 24.62495803833008 C 5.593339920043945 19.92139053344727 8.441506385803223 15.69704627990723 12.06927299499512 12.06927967071533 C 15.69705104827881 8.441502571105957 19.92138481140137 5.59334659576416 24.62495040893555 3.603902101516724 C 29.494384765625 1.544302225112915 34.66728591918945 0.5000022053718567 39.99997329711914 0.5000022053718567 C 45.33266067504883 0.5000022053718567 50.50556182861328 1.544302225112915 55.37499618530273 3.603902101516724 C 60.07856369018555 5.59334659576416 64.30290985107422 8.441502571105957 67.93067169189453 12.06927967071533 C 71.55844879150391 15.69704627990723 74.40660858154297 19.92139053344727 76.39604949951172 24.62495803833008 C 78.45565032958984 29.4943904876709 79.49995422363281 34.66728973388672 79.49995422363281 39.99998092651367 C 79.49995422363281 45.33312606811523 78.45565032958984 50.50602340698242 76.39604949951172 55.37545776367188 C 74.40660858154297 60.07902526855469 71.55844879150391 64.30335998535156 67.93067169189453 67.93113708496094 C 64.30290985107422 71.55889892578125 60.07856369018555 74.40706634521484 55.37499618530273 76.39649963378906 C 50.50556182861328 78.45610046386719 45.33266067504883 79.50040435791016 39.99997329711914 79.50040435791016 Z" stroke="none"/>
                      <path d="M 39.99997329711914 1 C 34.73457336425781 1 29.627197265625 2.031013488769531 24.81972885131836 4.064399719238281 C 20.17576217651367 6.028633117675781 16.00484085083008 8.840812683105469 12.42282867431641 12.42282104492188 C 8.840805053710938 16.00483703613281 6.02862548828125 20.17575836181641 4.06439208984375 24.81973648071289 C 2.031005859375 29.62720108032227 0.9999923706054688 34.73456954956055 0.9999923706054688 40.00043487548828 C 0.9999923706054688 45.26583480834961 2.031005859375 50.37321472167969 4.06439208984375 55.18067932128906 C 6.02862548828125 59.82464599609375 8.840805053710938 63.99556732177734 12.42282867431641 67.57757568359375 C 16.00484085083008 71.15959167480469 20.17576217651367 73.97177124023438 24.81972885131836 75.93600463867188 C 29.627197265625 77.96939086914062 34.73457336425781 79.00040435791016 39.99997329711914 79.00040435791016 C 45.26537322998047 79.00040435791016 50.37274932861328 77.96939086914062 55.18021774291992 75.93600463867188 C 59.82418441772461 73.97177124023438 63.9951057434082 71.15959167480469 67.57711791992188 67.57757568359375 C 71.15912628173828 63.99556732177734 73.97130584716797 59.82464599609375 75.93553924560547 55.18067932128906 C 77.96892547607422 50.37321472167969 78.99993896484375 45.26583480834961 78.99993896484375 39.99998092651367 C 78.99993896484375 34.73456954956055 77.96892547607422 29.62720108032227 75.93553924560547 24.81973648071289 C 73.97130584716797 20.17575836181641 71.15912628173828 16.00483703613281 67.57711791992188 12.42282104492188 C 63.9951057434082 8.840812683105469 59.82418441772461 6.028633117675781 55.18021774291992 4.064399719238281 C 50.37274932861328 2.031013488769531 45.26537322998047 1 39.99997329711914 1 M 39.99997329711914 0 C 62.09135055541992 0 79.99993896484375 17.90859222412109 79.99993896484375 39.99998092651367 L 79.99993896484375 40.00043487548828 C 79.99993896484375 62.09181213378906 62.09135055541992 80.00040435791016 39.99997329711914 80.00040435791016 C 17.90859603881836 80.00040435791016 -7.62939453125e-06 62.09181213378906 -7.62939453125e-06 40.00043487548828 L -7.62939453125e-06 39.99998092651367 C -7.62939453125e-06 17.90859222412109 17.90859603881836 0 39.99997329711914 0 Z" stroke="none" fill="#af6a1a"/>
                    </g>
                  </g>
                </g>
              </g>
            </g>
          </g>
        </g>
      </g>
    </g>
    <g id="teneduria-de-libros" transform="translate(300.045 659.999)">
      <g id="Group_1210737" data-name="Group 1210737" transform="translate(1.747 1.731)">
        <g id="Group_1210732" data-name="Group 1210732" transform="translate(0 6.63)">
          <path id="Path_1249624" data-name="Path 1249624" d="M150.224,428.91l-15.8.2-3.511,6.024a.369.369,0,0,0,.319.555h22.3a.369.369,0,0,0,.319-.555Z" transform="translate(-119.638 -396.825)" fill="#004960" fill-rule="evenodd"/>
          <path id="Path_1249625" data-name="Path 1249625" d="M52.268,80.908a2.382,2.382,0,0,1,2.375,2.375v27.665a2.382,2.382,0,0,1-2.375,2.375H11.53a2.382,2.382,0,0,1-2.375-2.375V83.283a2.382,2.382,0,0,1,2.375-2.375Z" transform="translate(-9.155 -80.908)" fill="#e6f8ff" fill-rule="evenodd"/>
          <path id="Path_1249626" data-name="Path 1249626" d="M54.643,399.355H9.155v1.6a2.382,2.382,0,0,0,2.375,2.375H52.268a2.382,2.382,0,0,0,2.375-2.375Z" transform="translate(-9.155 -369.995)" fill="#003748" fill-rule="evenodd"/>
        </g>
        <g id="Group_1210733" data-name="Group 1210733" transform="translate(2.943 0)">
          <path id="Path_1249627" data-name="Path 1249627" d="M43.857,9h13.97c.835,0-6.58,1.885-6.58,2.78v1.225H41.077V11.78A2.788,2.788,0,0,1,43.857,9Z" transform="translate(-41.077 -9)" fill="#e2e3e3" fill-rule="evenodd"/>
          <path id="Path_1249628" data-name="Path 1249628" d="M99.711,9a2.788,2.788,0,0,1,2.78,2.78V45.026H74.009V11.78A2.788,2.788,0,0,0,71.229,9Z" transform="translate(-68.449 -9)" fill="#eff4f7" fill-rule="evenodd"/>
        </g>
        <g id="Group_1210734" data-name="Group 1210734" transform="translate(11.763 3.91)">
          <path id="Path_1249629" data-name="Path 1249629" d="M158.333,51.413H137.108a.37.37,0,0,0-.369.369V71.21a.37.37,0,0,0,.369.369h21.225a.37.37,0,0,0,.369-.369V51.782A.37.37,0,0,0,158.333,51.413Z" transform="translate(-136.739 -51.413)" fill="#72d561" fill-rule="evenodd"/>
        </g>
        <g id="Group_1210736" data-name="Group 1210736" transform="translate(26.877 22.51)">
          <path id="Path_1249630" data-name="Path 1249630" d="M302.17,253.148h15.65a1.5,1.5,0,0,1,1.495,1.495v20.046a1.5,1.5,0,0,1-1.495,1.495H302.17a1.5,1.5,0,0,1-1.495-1.495V254.643A1.5,1.5,0,0,1,302.17,253.148Z" transform="translate(-300.675 -253.148)" fill="#465759" fill-rule="evenodd"/>
          <path id="Path_1249631" data-name="Path 1249631" d="M329.572,281.757h12.786a.29.29,0,0,1,.289.289v2.807a.29.29,0,0,1-.289.289H329.572a.29.29,0,0,1-.289-.289v-2.807A.29.29,0,0,1,329.572,281.757Z" transform="translate(-326.645 -279.119)" fill="#e6f8ff" fill-rule="evenodd"/>
          <g id="Group_1210735" data-name="Group 1210735" transform="translate(2.638 8.045)">
            <path id="Path_1249632" data-name="Path 1249632" d="M329.572,446.387h2.411a.29.29,0,0,0,.289-.289v-2.411a.29.29,0,0,0-.289-.289h-2.411a.29.29,0,0,0-.289.289V446.1A.29.29,0,0,0,329.572,446.387Z" transform="translate(-329.283 -433.902)" fill="#ffda2d" fill-rule="evenodd"/>
            <path id="Path_1249633" data-name="Path 1249633" d="M385.837,446.387h2.411a.29.29,0,0,0,.289-.289v-2.411a.29.29,0,0,0-.289-.289h-2.411a.29.29,0,0,0-.289.289V446.1A.29.29,0,0,0,385.837,446.387Z" transform="translate(-380.361 -433.902)" fill="#ffda2d" fill-rule="evenodd"/>
            <path id="Path_1249634" data-name="Path 1249634" d="M329.572,394.89h2.411a.29.29,0,0,0,.289-.289v-2.411a.29.29,0,0,0-.289-.289h-2.411a.29.29,0,0,0-.289.289V394.6A.29.29,0,0,0,329.572,394.89Z" transform="translate(-329.283 -387.152)" fill="#ffda2d" fill-rule="evenodd"/>
            <path id="Path_1249635" data-name="Path 1249635" d="M385.837,394.89h2.411a.29.29,0,0,0,.289-.289v-2.411a.29.29,0,0,0-.289-.289h-2.411a.29.29,0,0,0-.289.289V394.6A.29.29,0,0,0,385.837,394.89Z" transform="translate(-380.361 -387.152)" fill="#ffda2d" fill-rule="evenodd"/>
            <path id="Path_1249636" data-name="Path 1249636" d="M329.572,343.392h2.411a.29.29,0,0,0,.289-.289v-2.411a.29.29,0,0,0-.289-.289h-2.411a.29.29,0,0,0-.289.289V343.1A.29.29,0,0,0,329.572,343.392Z" transform="translate(-329.283 -340.403)" fill="#ffda2d" fill-rule="evenodd"/>
            <path id="Path_1249637" data-name="Path 1249637" d="M385.837,343.392h2.411a.29.29,0,0,0,.289-.289v-2.411a.29.29,0,0,0-.289-.289h-2.411a.29.29,0,0,0-.289.289V343.1A.29.29,0,0,0,385.837,343.392Z" transform="translate(-380.361 -340.403)" fill="#ffda2d" fill-rule="evenodd"/>
            <path id="Path_1249638" data-name="Path 1249638" d="M442.1,343.392h2.411a.29.29,0,0,0,.289-.289v-2.411a.29.29,0,0,0-.289-.289H442.1a.29.29,0,0,0-.289.289V343.1A.29.29,0,0,0,442.1,343.392Z" transform="translate(-431.437 -340.403)" fill="#ffda2d" fill-rule="evenodd"/>
          </g>
          <path id="Path_1249639" data-name="Path 1249639" d="M442.1,399.637h2.411a.29.29,0,0,0,.289-.289v-7.159a.29.29,0,0,0-.289-.289H442.1a.29.29,0,0,0-.289.289v7.159A.29.29,0,0,0,442.1,399.637Z" transform="translate(-428.8 -379.108)" fill="#72d561" fill-rule="evenodd"/>
        </g>
      </g>
      <path id="Path_1249640" data-name="Path 1249640" d="M43.9,34.536H42.387V33.021H43.9Zm.738-2.99H41.65a.737.737,0,0,0-.736.737v2.99a.737.737,0,0,0,.736.737h2.99a.737.737,0,0,0,.736-.737v-2.99A.737.737,0,0,0,44.64,31.546Zm-5.925,2.99H37.2V33.021h1.514Zm.736-2.99H36.465a.737.737,0,0,0-.737.737v2.99a.737.737,0,0,0,.737.737h2.987a.736.736,0,0,0,.737-.737v-2.99A.736.736,0,0,0,39.452,31.546Zm-5.922,2.99H32.015V33.021H33.53Zm.737-2.99h-2.99a.737.737,0,0,0-.737.737v2.99a.737.737,0,0,0,.737.737h2.99A.737.737,0,0,0,35,35.274v-2.99A.737.737,0,0,0,34.267,31.546Zm4.449,7.739H37.2V37.77h1.514Zm.736-2.99H36.465a.737.737,0,0,0-.737.737v2.99a.737.737,0,0,0,.737.737h2.987a.737.737,0,0,0,.737-.737v-2.99A.736.736,0,0,0,39.452,36.3Zm-5.922,2.99H32.015V37.77H33.53Zm.737-2.99h-2.99a.737.737,0,0,0-.737.737v2.99a.737.737,0,0,0,.737.737h2.99A.737.737,0,0,0,35,40.022v-2.99A.737.737,0,0,0,34.267,36.3ZM43.9,44.033H42.387V37.769H43.9ZM44.64,36.3H41.65a.737.737,0,0,0-.736.737v7.739a.736.736,0,0,0,.736.736h2.99a.737.737,0,0,0,.736-.736V37.032A.737.737,0,0,0,44.64,36.3Zm-5.925,7.738H37.2V42.518h1.514Zm.736-2.989H36.465a.737.737,0,0,0-.737.737v2.99a.737.737,0,0,0,.737.736h2.987a.736.736,0,0,0,.737-.736v-2.99A.736.736,0,0,0,39.452,41.044ZM33.53,44.033H32.015V42.518H33.53Zm.737-2.989h-2.99a.736.736,0,0,0-.737.737v2.99a.737.737,0,0,0,.737.736h2.99A.737.737,0,0,0,35,44.771v-2.99A.737.737,0,0,0,34.267,41.044ZM43.9,29.526H32.015v-1.91H43.9Zm.738-3.384H31.277a.737.737,0,0,0-.737.737v3.384a.737.737,0,0,0,.737.737H44.64a.737.737,0,0,0,.736-.737V26.879A.737.737,0,0,0,44.64,26.142Zm-31.694,4.02a.737.737,0,0,1,.737-.736h1.623a.737.737,0,1,1,0,1.473H13.683A.736.736,0,0,1,12.947,30.161Zm0,3.241a.737.737,0,0,1,.737-.737h1.623a.737.737,0,1,1,0,1.473H13.683A.736.736,0,0,1,12.947,33.4Zm33.6,12.38V25.734a.769.769,0,0,0-.759-.758H30.133a.768.768,0,0,0-.758.758V45.782a.768.768,0,0,0,.758.758H45.784A.769.769,0,0,0,46.543,45.782Zm-30.2-3.306H27.9v3.306a2.227,2.227,0,0,0,.133.758H13.978ZM2.469,39.361v-.867H27.9V41H4.11A1.644,1.644,0,0,1,2.469,39.361ZM4.11,9.1H9.528V37.019H2.469V10.738A1.643,1.643,0,0,1,4.11,9.1ZM5.441,4.51a2.044,2.044,0,1,1,4.087,0V5H5.441ZM19.734,22.87h5.645v2.2H19.734Zm-5.473,0h4v2.2h-4Zm0-3.674h4v2.2h-4Zm0-3.672h4v2.2h-4Zm0-3.674h4v2.2h-4Zm4-1.474h-4v-4h4Zm7.119,0H19.734v-4h5.645Zm9.372,0h-7.9v-4h7.9Zm-7.9,8.82h7.9v2.2h-7.9Zm-1.473,0v2.2H19.734V19.2Zm0-3.672v2.2H19.734v-2.2Zm0-1.474H19.734v-2.2h5.645Zm9.372,0h-7.9v-2.2h7.9Zm0,3.672h-7.9v-2.2h7.9ZM28,25.07H26.853v-2.2h7.9V23.5H30.133A2.238,2.238,0,0,0,28,25.07ZM38.009,4.51a2.046,2.046,0,0,0-2.043-2.044H10.345A3.5,3.5,0,0,1,11,4.51V37.019H27.9v-2.88H18.394a.737.737,0,1,1,0-1.473H27.9V30.9H18.394a.737.737,0,1,1,0-1.473H27.9v-2.88H13.525a.737.737,0,0,1-.737-.736V5.642a.737.737,0,0,1,.737-.737H35.488a.737.737,0,0,1,.736.737V23.5h1.785ZM44.9,9.1a1.643,1.643,0,0,1,1.642,1.641v12.9a2.229,2.229,0,0,0-.759-.133h-6.3V9.1Zm0-1.474H39.483V4.51A3.521,3.521,0,0,0,35.966.993H7.485A3.522,3.522,0,0,0,3.966,4.51V5.737a.737.737,0,0,0,.738.737H9.528v1.15H4.11A3.119,3.119,0,0,0,1,10.738V39.361A3.119,3.119,0,0,0,4.11,42.476H14.641l-2.258,3.873a1.09,1.09,0,0,0-.007,1.1,1.114,1.114,0,0,0,.962.562H45.784a2.235,2.235,0,0,0,2.232-2.232V10.738A3.119,3.119,0,0,0,44.9,7.623Z" fill-rule="evenodd"/>
    </g>
  </g>
</svg>
