<svg xmlns="http://www.w3.org/2000/svg" xmlns:xlink="http://www.w3.org/1999/xlink" width="98" height="98" viewBox="0 0 98 98">
  <defs>
    <filter id="Path_874925" x="0" y="0" width="98" height="98" filterUnits="userSpaceOnUse">
      <feOffset dy="3" input="SourceAlpha"/>
      <feGaussianBlur stdDeviation="3" result="blur"/>
      <feFlood flood-opacity="0.161"/>
      <feComposite operator="in" in2="blur"/>
      <feComposite in="SourceGraphic"/>
    </filter>
  </defs>
  <g id="Group_1210740" data-name="Group 1210740" transform="translate(-594.051 -639)">
    <g id="Group_1209729" data-name="Group 1209729" transform="translate(318.359 -5452)">
      <g id="Group_1200231" data-name="Group 1200231" transform="translate(-0.309 -0.407)">
        <g id="Group_1187153" data-name="Group 1187153">
          <g id="Group_1182177" data-name="Group 1182177">
            <g id="Group_1181903" data-name="Group 1181903">
              <g id="Group_1181438" data-name="Group 1181438">
                <g id="Group_1111314" data-name="Group 1111314" transform="translate(-734.73 3020.407)">
                  <g transform="matrix(1, 0, 0, 1, 1010.73, 3071)" filter="url(#Path_874925)">
                    <g id="Path_874925-2" data-name="Path 874925" transform="translate(9 6)" fill="#fd9826">
                      <path d="M 39.99997329711914 79.50040435791016 C 34.66728591918945 79.50040435791016 29.494384765625 78.45610046386719 24.62495040893555 76.39649963378906 C 19.92138481140137 74.40706634521484 15.69705104827881 71.55889892578125 12.06927299499512 67.93113708496094 C 8.441506385803223 64.30335998535156 5.593339920043945 60.07902526855469 3.603906631469727 55.37545776367188 C 1.544306635856628 50.50602340698242 0.5000066161155701 45.33312606811523 0.5000066161155701 40.00043487548828 C 0.5000066161155701 34.66728973388672 1.544306635856628 29.4943904876709 3.603906631469727 24.62495803833008 C 5.593339920043945 19.92139053344727 8.441506385803223 15.69704627990723 12.06927299499512 12.06927967071533 C 15.69705104827881 8.441502571105957 19.92138481140137 5.59334659576416 24.62495040893555 3.603902101516724 C 29.494384765625 1.544302225112915 34.66728591918945 0.5000022053718567 39.99997329711914 0.5000022053718567 C 45.33266067504883 0.5000022053718567 50.50556182861328 1.544302225112915 55.37499618530273 3.603902101516724 C 60.07856369018555 5.59334659576416 64.30290985107422 8.441502571105957 67.93067169189453 12.06927967071533 C 71.55844879150391 15.69704627990723 74.40660858154297 19.92139053344727 76.39604949951172 24.62495803833008 C 78.45565032958984 29.4943904876709 79.49995422363281 34.66728973388672 79.49995422363281 39.99998092651367 C 79.49995422363281 45.33312606811523 78.45565032958984 50.50602340698242 76.39604949951172 55.37545776367188 C 74.40660858154297 60.07902526855469 71.55844879150391 64.30335998535156 67.93067169189453 67.93113708496094 C 64.30290985107422 71.55889892578125 60.07856369018555 74.40706634521484 55.37499618530273 76.39649963378906 C 50.50556182861328 78.45610046386719 45.33266067504883 79.50040435791016 39.99997329711914 79.50040435791016 Z" stroke="none"/>
                      <path d="M 39.99997329711914 1 C 34.73457336425781 1 29.627197265625 2.031013488769531 24.81972885131836 4.064399719238281 C 20.17576217651367 6.028633117675781 16.00484085083008 8.840812683105469 12.42282867431641 12.42282104492188 C 8.840805053710938 16.00483703613281 6.02862548828125 20.17575836181641 4.06439208984375 24.81973648071289 C 2.031005859375 29.62720108032227 0.9999923706054688 34.73456954956055 0.9999923706054688 40.00043487548828 C 0.9999923706054688 45.26583480834961 2.031005859375 50.37321472167969 4.06439208984375 55.18067932128906 C 6.02862548828125 59.82464599609375 8.840805053710938 63.99556732177734 12.42282867431641 67.57757568359375 C 16.00484085083008 71.15959167480469 20.17576217651367 73.97177124023438 24.81972885131836 75.93600463867188 C 29.627197265625 77.96939086914062 34.73457336425781 79.00040435791016 39.99997329711914 79.00040435791016 C 45.26537322998047 79.00040435791016 50.37274932861328 77.96939086914062 55.18021774291992 75.93600463867188 C 59.82418441772461 73.97177124023438 63.9951057434082 71.15959167480469 67.57711791992188 67.57757568359375 C 71.15912628173828 63.99556732177734 73.97130584716797 59.82464599609375 75.93553924560547 55.18067932128906 C 77.96892547607422 50.37321472167969 78.99993896484375 45.26583480834961 78.99993896484375 39.99998092651367 C 78.99993896484375 34.73456954956055 77.96892547607422 29.62720108032227 75.93553924560547 24.81973648071289 C 73.97130584716797 20.17575836181641 71.15912628173828 16.00483703613281 67.57711791992188 12.42282104492188 C 63.9951057434082 8.840812683105469 59.82418441772461 6.028633117675781 55.18021774291992 4.064399719238281 C 50.37274932861328 2.031013488769531 45.26537322998047 1 39.99997329711914 1 M 39.99997329711914 0 C 62.09135055541992 0 79.99993896484375 17.90859222412109 79.99993896484375 39.99998092651367 L 79.99993896484375 40.00043487548828 C 79.99993896484375 62.09181213378906 62.09135055541992 80.00040435791016 39.99997329711914 80.00040435791016 C 17.90859603881836 80.00040435791016 -7.62939453125e-06 62.09181213378906 -7.62939453125e-06 40.00043487548828 L -7.62939453125e-06 39.99998092651367 C -7.62939453125e-06 17.90859222412109 17.90859603881836 0 39.99997329711914 0 Z" stroke="none" fill="#af6a1a"/>
                    </g>
                  </g>
                </g>
              </g>
            </g>
          </g>
        </g>
      </g>
    </g>
    <g id="licencias" transform="translate(616.061 657.992)">
      <path id="Path_1249641" data-name="Path 1249641" d="M96.016,40.008V87.745h35.361V40.008Zm0,0" transform="translate(-85.415 -35.58)" fill="#348fd9"/>
      <path id="Path_1249642" data-name="Path 1249642" d="M129.609,46.2l-6.188-6.188h-27.4V85.977h33.593Zm0,0" transform="translate(-85.415 -35.58)" fill="#3086cd"/>
      <path id="Path_1249643" data-name="Path 1249643" d="M64.016,55.745H99.377V15.964L91.42,8.008h-27.4Zm0,0" transform="translate(-56.951 -7.116)" fill="#60d1e0"/>
      <path id="Path_1249644" data-name="Path 1249644" d="M319.972,15.964h-7.956V8.008Zm0,0" transform="translate(-277.546 -7.116)" fill="#9fe4ed"/>
      <path id="Path_1249645" data-name="Path 1249645" d="M149.188,176.008l-29.173,29.173h29.173Zm0,0" transform="translate(-106.763 -156.551)" fill="#5ac6d4"/>
      <path id="Path_1249646" data-name="Path 1249646" d="M202.58,336.848H184.9a.884.884,0,0,1-.884-.884v-7.072a.884.884,0,0,1,.884-.884h17.68a.884.884,0,0,1,.884.884v7.072A.884.884,0,0,1,202.58,336.848Zm-16.8-1.768H201.7v-5.3H185.784Zm0,0" transform="translate(-163.69 -291.755)" fill="#348fd9"/>
      <path id="Path_1249647" data-name="Path 1249647" d="M216.016,360.008h3.536v1.768h-3.536Zm0,0" transform="translate(-192.154 -320.219)" fill="#348fd9"/>
      <path id="Path_1249648" data-name="Path 1249648" d="M264.016,360.008h7.072v1.768h-7.072Zm0,0" transform="translate(-234.85 -320.219)" fill="#348fd9"/>
      <path id="Path_1249649" data-name="Path 1249649" d="M248.016,221.315l5.3-5.3L265.7,228.388l-5.3,5.3Zm0,0" transform="translate(-220.618 -192.135)" fill="#e0e0de"/>
      <path id="Path_1249650" data-name="Path 1249650" d="M317.276,144.008a5.3,5.3,0,0,0-5.3,5.3v.442l-7.956,8.4,4.42,4.42,8.4-7.956h.442a5.3,5.3,0,0,0,0-10.608Zm0,0" transform="translate(-270.43 -128.088)" fill="#95573a"/>
      <path id="Path_1249651" data-name="Path 1249651" d="M224.02,266.656,226.672,264l12.376,12.376-2.652,2.652Zm0,0" transform="translate(-199.274 -234.824)" fill="#ebebe9"/>
      <path id="Path_1249652" data-name="Path 1249652" d="M337.319,148.246c-3.663,9.262-9.385,13.684-13.213,15.9l2.2,2.2,8.4-7.956h.442a5.3,5.3,0,0,0,2.173-10.14Zm0,0" transform="translate(-288.3 -131.857)" fill="#8f4d2e"/>
      <path id="Path_1249653" data-name="Path 1249653" d="M191.835,58.993a1.5,1.5,0,0,0-2.006-2.006,1.5,1.5,0,0,0-2.834,0,1.5,1.5,0,0,0-2,2.006,1.5,1.5,0,0,0,0,2.834,1.5,1.5,0,0,0,2.006,2,1.5,1.5,0,0,0,2.834,0,1.5,1.5,0,0,0,2-2.006,1.5,1.5,0,0,0,0-2.829Zm0,0" transform="translate(-163.67 -49.791)" fill="#ffb531"/>
      <path id="Path_1249654" data-name="Path 1249654" d="M79.044,65.731a9.717,9.717,0,0,0-15.028-8.144V73.876a9.717,9.717,0,0,0,15.028-8.144Zm0,0" transform="translate(-56.951 -49.811)" fill="#5ac6d4"/>
      <path id="Path_1249655" data-name="Path 1249655" d="M328.016,80.008H334.2v1.768h-6.188Zm0,0" transform="translate(-291.778 -71.16)" fill="#5ac6d4"/>
      <g id="Group_1210739" data-name="Group 1210739" transform="translate(11.485 17.688)">
        <path id="Path_1249656" data-name="Path 1249656" d="M152.016,232.008h8.84v1.768h-8.84Zm0,0" transform="translate(-146.711 -224.052)" fill="#3fb7c7"/>
        <path id="Path_1249657" data-name="Path 1249657" d="M104.016,264.008h10.608v1.768H104.016Zm0,0" transform="translate(-104.016 -252.515)" fill="#3fb7c7"/>
        <path id="Path_1249658" data-name="Path 1249658" d="M104.016,200.008H122.58v1.768H104.016Zm0,0" transform="translate(-104.016 -195.588)" fill="#3fb7c7"/>
        <path id="Path_1249659" data-name="Path 1249659" d="M104.016,296.008h5.3v1.768h-5.3Zm0,0" transform="translate(-104.016 -280.979)" fill="#3fb7c7"/>
        <path id="Path_1249660" data-name="Path 1249660" d="M104.016,328.008h7.072v1.768h-7.072Zm0,0" transform="translate(-104.016 -309.443)" fill="#3fb7c7"/>
        <path id="Path_1249661" data-name="Path 1249661" d="M104.016,360.008h7.072v1.768h-7.072Zm0,0" transform="translate(-104.016 -337.907)" fill="#3fb7c7"/>
        <path id="Path_1249662" data-name="Path 1249662" d="M104.016,392.008h7.072v1.768h-7.072Zm0,0" transform="translate(-104.016 -366.371)" fill="#3fb7c7"/>
        <path id="Path_1249663" data-name="Path 1249663" d="M104.016,232.008h3.536v1.768h-3.536Zm0,0" transform="translate(-104.016 -224.052)" fill="#3fb7c7"/>
        <path id="Path_1249664" data-name="Path 1249664" d="M168.016,296.008h3.536v1.768h-3.536Zm0,0" transform="translate(-160.943 -280.979)" fill="#3fb7c7"/>
        <path id="Path_1249665" data-name="Path 1249665" d="M168.016,160.008h3.536v1.768h-3.536Zm0,0" transform="translate(-160.943 -160.008)" fill="#3fb7c7"/>
        <path id="Path_1249666" data-name="Path 1249666" d="M216.016,160.008h7.072v1.768h-7.072Zm0,0" transform="translate(-203.639 -160.008)" fill="#3fb7c7"/>
      </g>
      <path id="Path_1249667" data-name="Path 1249667" d="M27.464,49.732a9.724,9.724,0,1,1-9.724-9.724A9.724,9.724,0,0,1,27.464,49.732Zm0,0" transform="translate(-7.139 -35.58)" fill="#7eb457"/>
      <path id="Path_1249668" data-name="Path 1249668" d="M37.636,92.7a.884.884,0,0,1-.625-.259L34.359,89.79l1.25-1.25,2.027,2.027,8.215-8.215L47.1,83.6l-8.84,8.84A.884.884,0,0,1,37.636,92.7Zm0,0" transform="translate(-30.572 -73.245)" fill="#ffb531"/>
      <path id="Path_1249669" data-name="Path 1249669" d="M192.493,111.192a9.606,9.606,0,0,0-.584-1.857A1.481,1.481,0,0,0,192.493,111.192Zm0,0" transform="translate(-170.601 -97.247)" fill="#f98500"/>
      <path id="Path_1249670" data-name="Path 1249670" d="M185.054,95.525a9.763,9.763,0,0,0-.905-1.615A1.471,1.471,0,0,0,185.054,95.525Zm0,0" transform="translate(-163.79 -83.526)" fill="#f98500"/>
      <path id="Path_1249671" data-name="Path 1249671" d="M388.436,41.732v-8.84a.884.884,0,0,0-.884-.884h-3.536v1.768h2.652v7.956Zm0,0" transform="translate(-341.59 -28.464)"/>
      <path id="Path_1249672" data-name="Path 1249672" d="M56.016,240.008v22.1a.884.884,0,0,0,.884.884H92.261a.884.884,0,0,0,.884-.884V255.92H91.377v5.3H57.784V240.008Zm0,0" transform="translate(-49.835 -213.479)"/>
      <path id="Path_1249673" data-name="Path 1249673" d="M84.67.1c-.028-.013-.054-.019-.082-.029a.879.879,0,0,0-.229-.046A.338.338,0,0,0,84.3.008H56.9a.884.884,0,0,0-.884.884V2.66h1.768V1.776H83.42V8.848a.884.884,0,0,0,.884.884h7.072v4.42h1.768v-5.3c0-.019-.009-.035-.011-.055a.862.862,0,0,0-.046-.229c-.01-.028-.017-.055-.029-.082a.878.878,0,0,0-.177-.259L84.926.267A.886.886,0,0,0,84.67.1Zm5.456,7.868H85.188V3.026Zm0,0" transform="translate(-49.835)"/>
      <path id="Path_1249674" data-name="Path 1249674" d="M184.016,328.892v7.072a.884.884,0,0,0,.884.884h11.492V335.08H185.784v-5.3h4.42v-1.768h-5.3A.884.884,0,0,0,184.016,328.892Zm0,0" transform="translate(-163.69 -291.755)"/>
      <path id="Path_1249675" data-name="Path 1249675" d="M216.016,360.008h5.3v1.768h-5.3Zm0,0" transform="translate(-192.154 -320.219)"/>
      <path id="Path_1249676" data-name="Path 1249676" d="M132.261,136.008a6.2,6.2,0,0,0-6.188,6.188v.089l-4.509,4.759-2.823-2.823a.884.884,0,0,0-1.25,0l-7.956,7.956a.884.884,0,0,0,0,1.25L121.911,165.8a.884.884,0,0,0,1.25,0l2.652-2.652,4.679-4.677v13.778H96.016v1.768h35.361a.884.884,0,0,0,.884-.884V151.92h-1.768v4.054l-3.082-3.082,4.761-4.509h.088a6.188,6.188,0,1,0,0-12.376Zm-9.724,27.923L111.41,152.8l1.4-1.4,11.126,11.126Zm6.706-6.706-4.054,4.054-11.126-11.126,4.054-4.054,2.231,2.231-1.989,2.1a.884.884,0,0,0,.017,1.238l4.42,4.42a.884.884,0,0,0,1.232.017l2.1-1.989Zm3.018-10.608h-.442a.886.886,0,0,0-.608.242l-7.773,7.361-3.2-3.2,7.364-7.773a.884.884,0,0,0,.239-.608V142.2a4.42,4.42,0,1,1,4.42,4.42Zm0,0" transform="translate(-85.415 -120.972)"/>
      <path id="Path_1249677" data-name="Path 1249677" d="M152.016,232.008h8.84v1.768h-8.84Zm0,0" transform="translate(-135.226 -206.363)"/>
      <path id="Path_1249678" data-name="Path 1249678" d="M104.016,264.008h10.608v1.768H104.016Zm0,0" transform="translate(-92.531 -234.827)"/>
      <path id="Path_1249679" data-name="Path 1249679" d="M176.016,200.008h10.608v1.768H176.016Zm0,0" transform="translate(-156.574 -177.899)"/>
      <path id="Path_1249680" data-name="Path 1249680" d="M104.016,296.008h5.3v1.768h-5.3Zm0,0" transform="translate(-92.531 -263.291)"/>
      <path id="Path_1249681" data-name="Path 1249681" d="M104.016,328.008h7.072v1.768h-7.072Zm0,0" transform="translate(-92.531 -291.755)"/>
      <path id="Path_1249682" data-name="Path 1249682" d="M104.016,360.008h7.072v1.768h-7.072Zm0,0" transform="translate(-92.531 -320.219)"/>
      <path id="Path_1249683" data-name="Path 1249683" d="M104.016,392.008h7.072v1.768h-7.072Zm0,0" transform="translate(-92.531 -348.683)"/>
      <path id="Path_1249684" data-name="Path 1249684" d="M104.016,232.008h3.536v1.768h-3.536Zm0,0" transform="translate(-92.531 -206.363)"/>
      <path id="Path_1249685" data-name="Path 1249685" d="M168.016,296.008h3.536v1.768h-3.536Zm0,0" transform="translate(-149.458 -263.291)"/>
      <path id="Path_1249686" data-name="Path 1249686" d="M200.016,160.008h8.84v1.768h-8.84Zm0,0" transform="translate(-177.922 -142.32)"/>
      <path id="Path_1249687" data-name="Path 1249687" d="M10.6,53.212a10.609,10.609,0,0,0,10.59-10.237,2.337,2.337,0,0,0,1.714.536,2.4,2.4,0,0,0,3.681,0,2.4,2.4,0,0,0,2.6-2.6,2.4,2.4,0,0,0,0-3.681,2.4,2.4,0,0,0-2.6-2.6,2.4,2.4,0,0,0-3.681,0,2.4,2.4,0,0,0-2.6,2.6,2.3,2.3,0,0,0-.354.364A10.608,10.608,0,1,0,10.6,53.212Zm11.02-14.728a.883.883,0,0,0,.5-1.212.619.619,0,0,1,.827-.827.883.883,0,0,0,1.212-.5.619.619,0,0,1,1.167,0,.884.884,0,0,0,1.212.5.618.618,0,0,1,.826.827.883.883,0,0,0,.5,1.212.619.619,0,0,1,0,1.167.884.884,0,0,0-.5,1.212.6.6,0,0,1-.122.707.6.6,0,0,1-.707.122.884.884,0,0,0-1.212.5.619.619,0,0,1-1.167,0,.882.882,0,0,0-.5-.521.9.9,0,0,0-.338-.067.866.866,0,0,0-.379.088.619.619,0,0,1-.826-.827.884.884,0,0,0-.5-1.212.619.619,0,0,1,0-1.167ZM10.6,33.763a8.84,8.84,0,1,1-8.84,8.84A8.84,8.84,0,0,1,10.6,33.763Zm0,0" transform="translate(0 -28.451)"/>
      <path id="Path_1249688" data-name="Path 1249688" d="M37.011,92.442a.884.884,0,0,0,1.25,0L47.1,83.6l-1.25-1.25-8.215,8.215L35.609,88.54l-1.25,1.25Zm0,0" transform="translate(-30.572 -73.245)"/>
    </g>
  </g>
</svg>
