<svg xmlns="http://www.w3.org/2000/svg" xmlns:xlink="http://www.w3.org/1999/xlink" width="98" height="98" viewBox="0 0 98 98">
  <defs>
    <filter id="Path_874925" x="0" y="0" width="98" height="98" filterUnits="userSpaceOnUse">
      <feOffset dy="3" input="SourceAlpha"/>
      <feGaussianBlur stdDeviation="3" result="blur"/>
      <feFlood flood-opacity="0.161"/>
      <feComposite operator="in" in2="blur"/>
      <feComposite in="SourceGraphic"/>
    </filter>
  </defs>
  <g id="Group_1210763" data-name="Group 1210763" transform="translate(-751.051 -1468)">
    <g id="Group_1209732" data-name="Group 1209732" transform="translate(475.359 -4623)">
      <g id="Group_1200231" data-name="Group 1200231" transform="translate(-0.309 -0.407)">
        <g id="Group_1187153" data-name="Group 1187153">
          <g id="Group_1182177" data-name="Group 1182177">
            <g id="Group_1181903" data-name="Group 1181903">
              <g id="Group_1181438" data-name="Group 1181438">
                <g id="Group_1111314" data-name="Group 1111314" transform="translate(-734.73 3020.407)">
                  <g transform="matrix(1, 0, 0, 1, 1010.73, 3071)" filter="url(#Path_874925)">
                    <g id="Path_874925-2" data-name="Path 874925" transform="translate(9 6)" fill="#fd9826">
                      <path d="M 39.99997329711914 79.50040435791016 C 34.66728591918945 79.50040435791016 29.494384765625 78.45610046386719 24.62495040893555 76.39649963378906 C 19.92138481140137 74.40706634521484 15.69705104827881 71.55889892578125 12.06927299499512 67.93113708496094 C 8.441506385803223 64.30335998535156 5.593339920043945 60.07902526855469 3.603906631469727 55.37545776367188 C 1.544306635856628 50.50602340698242 0.5000066161155701 45.33312606811523 0.5000066161155701 40.00043487548828 C 0.5000066161155701 34.66728973388672 1.544306635856628 29.4943904876709 3.603906631469727 24.62495803833008 C 5.593339920043945 19.92139053344727 8.441506385803223 15.69704627990723 12.06927299499512 12.06927967071533 C 15.69705104827881 8.441502571105957 19.92138481140137 5.59334659576416 24.62495040893555 3.603902101516724 C 29.494384765625 1.544302225112915 34.66728591918945 0.5000022053718567 39.99997329711914 0.5000022053718567 C 45.33266067504883 0.5000022053718567 50.50556182861328 1.544302225112915 55.37499618530273 3.603902101516724 C 60.07856369018555 5.59334659576416 64.30290985107422 8.441502571105957 67.93067169189453 12.06927967071533 C 71.55844879150391 15.69704627990723 74.40660858154297 19.92139053344727 76.39604949951172 24.62495803833008 C 78.45565032958984 29.4943904876709 79.49995422363281 34.66728973388672 79.49995422363281 39.99998092651367 C 79.49995422363281 45.33312606811523 78.45565032958984 50.50602340698242 76.39604949951172 55.37545776367188 C 74.40660858154297 60.07902526855469 71.55844879150391 64.30335998535156 67.93067169189453 67.93113708496094 C 64.30290985107422 71.55889892578125 60.07856369018555 74.40706634521484 55.37499618530273 76.39649963378906 C 50.50556182861328 78.45610046386719 45.33266067504883 79.50040435791016 39.99997329711914 79.50040435791016 Z" stroke="none"/>
                      <path d="M 39.99997329711914 1 C 34.73457336425781 1 29.627197265625 2.031013488769531 24.81972885131836 4.064399719238281 C 20.17576217651367 6.028633117675781 16.00484085083008 8.840812683105469 12.42282867431641 12.42282104492188 C 8.840805053710938 16.00483703613281 6.02862548828125 20.17575836181641 4.06439208984375 24.81973648071289 C 2.031005859375 29.62720108032227 0.9999923706054688 34.73456954956055 0.9999923706054688 40.00043487548828 C 0.9999923706054688 45.26583480834961 2.031005859375 50.37321472167969 4.06439208984375 55.18067932128906 C 6.02862548828125 59.82464599609375 8.840805053710938 63.99556732177734 12.42282867431641 67.57757568359375 C 16.00484085083008 71.15959167480469 20.17576217651367 73.97177124023438 24.81972885131836 75.93600463867188 C 29.627197265625 77.96939086914062 34.73457336425781 79.00040435791016 39.99997329711914 79.00040435791016 C 45.26537322998047 79.00040435791016 50.37274932861328 77.96939086914062 55.18021774291992 75.93600463867188 C 59.82418441772461 73.97177124023438 63.9951057434082 71.15959167480469 67.57711791992188 67.57757568359375 C 71.15912628173828 63.99556732177734 73.97130584716797 59.82464599609375 75.93553924560547 55.18067932128906 C 77.96892547607422 50.37321472167969 78.99993896484375 45.26583480834961 78.99993896484375 39.99998092651367 C 78.99993896484375 34.73456954956055 77.96892547607422 29.62720108032227 75.93553924560547 24.81973648071289 C 73.97130584716797 20.17575836181641 71.15912628173828 16.00483703613281 67.57711791992188 12.42282104492188 C 63.9951057434082 8.840812683105469 59.82418441772461 6.028633117675781 55.18021774291992 4.064399719238281 C 50.37274932861328 2.031013488769531 45.26537322998047 1 39.99997329711914 1 M 39.99997329711914 0 C 62.09135055541992 0 79.99993896484375 17.90859222412109 79.99993896484375 39.99998092651367 L 79.99993896484375 40.00043487548828 C 79.99993896484375 62.09181213378906 62.09135055541992 80.00040435791016 39.99997329711914 80.00040435791016 C 17.90859603881836 80.00040435791016 -7.62939453125e-06 62.09181213378906 -7.62939453125e-06 40.00043487548828 L -7.62939453125e-06 39.99998092651367 C -7.62939453125e-06 17.90859222412109 17.90859603881836 0 39.99997329711914 0 Z" stroke="none" fill="#af6a1a"/>
                    </g>
                  </g>
                </g>
              </g>
            </g>
          </g>
        </g>
      </g>
    </g>
    <g id="administracion-del-dinero" transform="translate(775.332 1491)">
      <g id="Group_1210761" data-name="Group 1210761" transform="translate(0.741 0.741)">
        <circle id="Ellipse_12787" data-name="Ellipse 12787" cx="7" cy="7" r="7" transform="translate(32.259 32.259)" fill="#ffbe1d"/>
        <ellipse id="Ellipse_12788" data-name="Ellipse 12788" cx="7" cy="6.5" rx="7" ry="6.5" transform="translate(32.259 0.259)" fill="#ffbe1d"/>
        <ellipse id="Ellipse_12789" data-name="Ellipse 12789" cx="7" cy="6.5" rx="7" ry="6.5" transform="translate(32.259 16.259)" fill="#f4971e"/>
        <ellipse id="Ellipse_12790" data-name="Ellipse 12790" cx="4" cy="4.5" rx="4" ry="4.5" transform="translate(35.259 18.259)" fill="#ffbe1d"/>
        <ellipse id="Ellipse_12791" data-name="Ellipse 12791" cx="4" cy="4.5" rx="4" ry="4.5" transform="translate(35.259 2.259)" fill="#f4971e"/>
        <circle id="Ellipse_12792" data-name="Ellipse 12792" cx="4" cy="4" r="4" transform="translate(35.259 35.259)" fill="#f4971e"/>
        <path id="Path_1249729" data-name="Path 1249729" d="M18.342,32V43.118a7.359,7.359,0,0,0-3.825,3.825H8.825A7.359,7.359,0,0,0,5,43.118V32a6.671,6.671,0,0,0,13.342,0Z" transform="translate(-2.035 -9.022)" fill="#a1cea6"/>
        <path id="Path_1249730" data-name="Path 1249730" d="M20.271,7.84V43.655H1V7.84ZM17.307,36.866V14.629A7.359,7.359,0,0,1,13.482,10.8H7.789a7.359,7.359,0,0,1-3.825,3.825V36.866A7.359,7.359,0,0,1,7.789,40.69h5.693A7.359,7.359,0,0,1,17.307,36.866Z" transform="translate(-1 -2.77)" fill="#679955"/>
        <path id="Path_1249731" data-name="Path 1249731" d="M18.342,15.665V26.783A6.671,6.671,0,0,0,5,26.783V15.665A7.359,7.359,0,0,0,8.825,11.84h5.693A7.359,7.359,0,0,0,18.342,15.665Z" transform="translate(-2.035 -3.805)" fill="#a1cea6"/>
        <circle id="Ellipse_12793" data-name="Ellipse 12793" cx="6.5" cy="6.5" r="6.5" transform="translate(3.259 16.259)" fill="#71af6d"/>
        <circle id="Ellipse_12794" data-name="Ellipse 12794" cx="1.287" cy="1.287" r="1.287" transform="translate(14.824 36.711)" fill="#507f3e"/>
        <g id="Group_1210760" data-name="Group 1210760" transform="translate(8.153 11.859)">
          <circle id="Ellipse_12795" data-name="Ellipse 12795" cx="1.482" cy="1.482" r="1.482" transform="translate(3.261 0.36)" fill="#c3e2c5"/>
          <circle id="Ellipse_12796" data-name="Ellipse 12796" cx="1" cy="1" r="1" transform="translate(0.105 0.399)" fill="#c3e2c5"/>
        </g>
      </g>
      <g id="Group_1210762" data-name="Group 1210762">
        <path id="Path_1249732" data-name="Path 1249732" d="M51.224,8.93h2.965a.741.741,0,0,1,0,1.482H50.482a.741.741,0,0,0,0,1.482h1.482v.741a.741.741,0,0,0,1.482,0v-.741h.741a2.224,2.224,0,0,0,0-4.447H51.224a.741.741,0,0,1,0-1.482H54.93a.741.741,0,0,0,0-1.482H53.447V3.741a.741.741,0,0,0-1.482,0v.741h-.741a2.224,2.224,0,0,0,0,4.447Z" transform="translate(-12.681 -0.776)" fill="#252525"/>
        <path id="Path_1249733" data-name="Path 1249733" d="M51.412,14.824A7.412,7.412,0,1,0,44,7.412,7.421,7.421,0,0,0,51.412,14.824Zm0-13.342a5.93,5.93,0,1,1-5.93,5.93A5.937,5.937,0,0,1,51.412,1.482Z" transform="translate(-11.387)" fill="#252525"/>
        <path id="Path_1249734" data-name="Path 1249734" d="M54.188,29.447H51.224a.741.741,0,0,1,0-1.482H54.93a.741.741,0,0,0,0-1.482H53.447v-.741a.741.741,0,0,0-1.482,0v.741h-.741a2.224,2.224,0,0,0,0,4.447h2.965a.741.741,0,0,1,0,1.482H50.482a.741.741,0,0,0,0,1.482h1.482v.741a.741.741,0,0,0,1.482,0v-.741h.741a2.224,2.224,0,0,0,0-4.447Z" transform="translate(-12.681 -6.47)" fill="#252525"/>
        <path id="Path_1249735" data-name="Path 1249735" d="M51.412,22a7.412,7.412,0,1,0,7.412,7.412A7.421,7.421,0,0,0,51.412,22Zm0,13.342a5.93,5.93,0,1,1,5.93-5.93A5.937,5.937,0,0,1,51.412,35.342Z" transform="translate(-11.387 -5.693)" fill="#252525"/>
        <path id="Path_1249736" data-name="Path 1249736" d="M54.188,51.447H51.224a.741.741,0,0,1,0-1.482H54.93a.741.741,0,0,0,0-1.482H53.447v-.741a.741.741,0,0,0-1.482,0v.741h-.741a2.224,2.224,0,0,0,0,4.447h2.965a.741.741,0,0,1,0,1.482H50.482a.741.741,0,0,0,0,1.482h1.482v.741a.741.741,0,0,0,1.482,0v-.741h.741a2.224,2.224,0,0,0,0-4.447Z" transform="translate(-12.681 -12.163)" fill="#252525"/>
        <path id="Path_1249737" data-name="Path 1249737" d="M51.412,44a7.412,7.412,0,1,0,7.412,7.412A7.421,7.421,0,0,0,51.412,44Zm0,13.342a5.93,5.93,0,1,1,5.93-5.93A5.937,5.937,0,0,1,51.412,57.342Z" transform="translate(-11.387 -11.387)" fill="#252525"/>
        <path id="Path_1249738" data-name="Path 1249738" d="M11.224,30.93h2.965a.742.742,0,0,1,.741.741.725.725,0,0,1-.227.528.715.715,0,0,1-.514.213H10.482a.741.741,0,0,0,0,1.482h1.482v.741a.741.741,0,0,0,1.482,0v-.741h.741a2.235,2.235,0,0,0,2.224-2.224,2.226,2.226,0,0,0-2.224-2.224H11.224a.725.725,0,0,1-.528-.227.71.71,0,0,1-.213-.514.742.742,0,0,1,.741-.741H14.93a.741.741,0,0,0,0-1.482H13.447v-.741a.741.741,0,0,0-1.482,0v.741h-.741A2.226,2.226,0,0,0,9,28.706a2.236,2.236,0,0,0,2.224,2.224Z" transform="translate(-2.329 -6.47)" fill="#252525"/>
        <path id="Path_1249739" data-name="Path 1249739" d="M14.939,11.286a.743.743,0,0,0-.68-.447H8.566a.742.742,0,0,0-.68.447,6.581,6.581,0,0,1-3.439,3.439.742.742,0,0,0-.446.68V37.642a.742.742,0,0,0,.447.68,6.584,6.584,0,0,1,3.439,3.439.743.743,0,0,0,.68.447h5.692a.742.742,0,0,0,.68-.447,6.581,6.581,0,0,1,3.439-3.439.743.743,0,0,0,.445-.68V15.406a.742.742,0,0,0-.447-.68,6.58,6.58,0,0,1-3.438-3.439Zm2.4,25.885a8.054,8.054,0,0,0-3.554,3.554H9.037a8.054,8.054,0,0,0-3.554-3.554V30.952a7.383,7.383,0,0,0,11.859,0ZM5.482,26.524a5.93,5.93,0,1,1,5.93,5.93A5.937,5.937,0,0,1,5.482,26.524Zm5.93-7.412A7.4,7.4,0,0,0,5.482,22.1v-6.22a8.054,8.054,0,0,0,3.554-3.554h4.751a8.054,8.054,0,0,0,3.554,3.554V22.1A7.4,7.4,0,0,0,11.412,19.112Z" transform="translate(-1.035 -2.805)" fill="#252525"/>
        <path id="Path_1249740" data-name="Path 1249740" d="M30.39,9.923a.741.741,0,0,0,0-1.482H25.942a.741.741,0,0,0-.741.741V24.748H20.754V7.581a.741.741,0,0,0-.741-.741H.741A.741.741,0,0,0,0,7.581V43.4a.741.741,0,0,0,.741.741H20.013a.741.741,0,0,0,.741-.741V32.9a.741.741,0,0,0-1.482,0v9.754H1.482V8.322H19.271V25.489a.741.741,0,0,0,.741.741H25.2V41.8a.741.741,0,0,0,.741.741H30.39a.741.741,0,0,0,0-1.482H26.684V26.23H30.39a.741.741,0,0,0,0-1.482H26.684V9.923Z" transform="translate(0 -1.77)" fill="#252525"/>
        <path id="Path_1249741" data-name="Path 1249741" d="M26.741,35a.741.741,0,0,0-.741.741v1.482a.741.741,0,0,0,1.482,0V35.741A.741.741,0,0,0,26.741,35Z" transform="translate(-6.729 -9.058)" fill="#252525"/>
      </g>
    </g>
  </g>
</svg>
