<svg xmlns="http://www.w3.org/2000/svg" xmlns:xlink="http://www.w3.org/1999/xlink" width="98" height="98" viewBox="0 0 98 98">
  <defs>
    <filter id="Path_874925" x="0" y="0" width="98" height="98" filterUnits="userSpaceOnUse">
      <feOffset dy="3" input="SourceAlpha"/>
      <feGaussianBlur stdDeviation="3" result="blur"/>
      <feFlood flood-opacity="0.161"/>
      <feComposite operator="in" in2="blur"/>
      <feComposite in="SourceGraphic"/>
    </filter>
    <clipPath id="clip-path">
      <path id="path3237" d="M0-682.665H48.816v48.816H0Z" transform="translate(0 682.665)"/>
    </clipPath>
  </defs>
  <g id="Group_1210829" data-name="Group 1210829" transform="translate(-282.051 -1809)">
    <g id="Group_1210793" data-name="Group 1210793" transform="translate(6.359 -4282)">
      <g id="Group_1200231" data-name="Group 1200231" transform="translate(-0.309 -0.407)">
        <g id="Group_1187153" data-name="Group 1187153">
          <g id="Group_1182177" data-name="Group 1182177">
            <g id="Group_1181903" data-name="Group 1181903">
              <g id="Group_1181438" data-name="Group 1181438">
                <g id="Group_1111314" data-name="Group 1111314" transform="translate(-734.73 3020.407)">
                  <g transform="matrix(1, 0, 0, 1, 1010.73, 3071)" filter="url(#Path_874925)">
                    <g id="Path_874925-2" data-name="Path 874925" transform="translate(9 6)" fill="#fd9826">
                      <path d="M 39.99997329711914 79.50040435791016 C 34.66728591918945 79.50040435791016 29.494384765625 78.45610046386719 24.62495040893555 76.39649963378906 C 19.92138481140137 74.40706634521484 15.69705104827881 71.55889892578125 12.06927299499512 67.93113708496094 C 8.441506385803223 64.30335998535156 5.593339920043945 60.07902526855469 3.603906631469727 55.37545776367188 C 1.544306635856628 50.50602340698242 0.5000066161155701 45.33312606811523 0.5000066161155701 40.00043487548828 C 0.5000066161155701 34.66728973388672 1.544306635856628 29.4943904876709 3.603906631469727 24.62495803833008 C 5.593339920043945 19.92139053344727 8.441506385803223 15.69704627990723 12.06927299499512 12.06927967071533 C 15.69705104827881 8.441502571105957 19.92138481140137 5.59334659576416 24.62495040893555 3.603902101516724 C 29.494384765625 1.544302225112915 34.66728591918945 0.5000022053718567 39.99997329711914 0.5000022053718567 C 45.33266067504883 0.5000022053718567 50.50556182861328 1.544302225112915 55.37499618530273 3.603902101516724 C 60.07856369018555 5.59334659576416 64.30290985107422 8.441502571105957 67.93067169189453 12.06927967071533 C 71.55844879150391 15.69704627990723 74.40660858154297 19.92139053344727 76.39604949951172 24.62495803833008 C 78.45565032958984 29.4943904876709 79.49995422363281 34.66728973388672 79.49995422363281 39.99998092651367 C 79.49995422363281 45.33312606811523 78.45565032958984 50.50602340698242 76.39604949951172 55.37545776367188 C 74.40660858154297 60.07902526855469 71.55844879150391 64.30335998535156 67.93067169189453 67.93113708496094 C 64.30290985107422 71.55889892578125 60.07856369018555 74.40706634521484 55.37499618530273 76.39649963378906 C 50.50556182861328 78.45610046386719 45.33266067504883 79.50040435791016 39.99997329711914 79.50040435791016 Z" stroke="none"/>
                      <path d="M 39.99997329711914 1 C 34.73457336425781 1 29.627197265625 2.031013488769531 24.81972885131836 4.064399719238281 C 20.17576217651367 6.028633117675781 16.00484085083008 8.840812683105469 12.42282867431641 12.42282104492188 C 8.840805053710938 16.00483703613281 6.02862548828125 20.17575836181641 4.06439208984375 24.81973648071289 C 2.031005859375 29.62720108032227 0.9999923706054688 34.73456954956055 0.9999923706054688 40.00043487548828 C 0.9999923706054688 45.26583480834961 2.031005859375 50.37321472167969 4.06439208984375 55.18067932128906 C 6.02862548828125 59.82464599609375 8.840805053710938 63.99556732177734 12.42282867431641 67.57757568359375 C 16.00484085083008 71.15959167480469 20.17576217651367 73.97177124023438 24.81972885131836 75.93600463867188 C 29.627197265625 77.96939086914062 34.73457336425781 79.00040435791016 39.99997329711914 79.00040435791016 C 45.26537322998047 79.00040435791016 50.37274932861328 77.96939086914062 55.18021774291992 75.93600463867188 C 59.82418441772461 73.97177124023438 63.9951057434082 71.15959167480469 67.57711791992188 67.57757568359375 C 71.15912628173828 63.99556732177734 73.97130584716797 59.82464599609375 75.93553924560547 55.18067932128906 C 77.96892547607422 50.37321472167969 78.99993896484375 45.26583480834961 78.99993896484375 39.99998092651367 C 78.99993896484375 34.73456954956055 77.96892547607422 29.62720108032227 75.93553924560547 24.81973648071289 C 73.97130584716797 20.17575836181641 71.15912628173828 16.00483703613281 67.57711791992188 12.42282104492188 C 63.9951057434082 8.840812683105469 59.82418441772461 6.028633117675781 55.18021774291992 4.064399719238281 C 50.37274932861328 2.031013488769531 45.26537322998047 1 39.99997329711914 1 M 39.99997329711914 0 C 62.09135055541992 0 79.99993896484375 17.90859222412109 79.99993896484375 39.99998092651367 L 79.99993896484375 40.00043487548828 C 79.99993896484375 62.09181213378906 62.09135055541992 80.00040435791016 39.99997329711914 80.00040435791016 C 17.90859603881836 80.00040435791016 -7.62939453125e-06 62.09181213378906 -7.62939453125e-06 40.00043487548828 L -7.62939453125e-06 39.99998092651367 C -7.62939453125e-06 17.90859222412109 17.90859603881836 0 39.99997329711914 0 Z" stroke="none" fill="#af6a1a"/>
                    </g>
                  </g>
                </g>
              </g>
            </g>
          </g>
        </g>
      </g>
    </g>
    <g id="g3231" transform="translate(307.051 2513.665)">
      <g id="g3233" transform="translate(0 -682.665)">
        <g id="g3235" clip-path="url(#clip-path)">
          <g id="g3241" transform="translate(3.766 0.715)">
            <path id="path3243" d="M-120.98-529.479h-8.767a.552.552,0,0,1-.551-.551v-39.677a.552.552,0,0,1,.551-.551h24.972c.165,0,.212.066.5.339l6.023,5.744c.245.237.314.264.314.421v33.723a.552.552,0,0,1-.551.551h-22.49Z" transform="translate(130.297 570.257)" fill="#f3eae6" fill-rule="evenodd"/>
          </g>
          <g id="g3245" transform="translate(8.675 5.485)">
            <path id="path3247" d="M-4.129-8.57H-9.285A.715.715,0,0,1-10-9.285.715.715,0,0,1-9.285-10h5.156a.715.715,0,0,1,.715.715A.715.715,0,0,1-4.129-8.57Z" transform="translate(10 10)"/>
          </g>
          <g id="g3249" transform="translate(8.675 8.754)">
            <path id="path3251" d="M-5.782-8.57h-3.5A.715.715,0,0,1-10-9.285.715.715,0,0,1-9.285-10h3.5a.715.715,0,0,1,.715.715A.715.715,0,0,1-5.782-8.57Z" transform="translate(10 10)"/>
          </g>
          <g id="g3253" transform="translate(17.98 0.715)">
            <path id="path3255" d="M-169.793-170.082v10.106a.574.574,0,0,1-.57.573h-3.349c-.039,1.135-.13,2.25-.267,3.337a34.983,34.983,0,0,1-.656,3.668,28.46,28.46,0,0,1-4.36,10h6.153a8.627,8.627,0,0,1,1.831-7.647c.028-.033.055-.063.083-.1a8.627,8.627,0,0,1,2.33-1.867,8.68,8.68,0,0,1,2.437-.889c.118-.025.237-.044.353-.063a8.388,8.388,0,0,1,1.082-.1v-23.607a.284.284,0,0,0-.025-.124h-4.459a2.219,2.219,0,0,1-2.214-2.211l.006-4.141a.342.342,0,0,0-.143-.028H-182.87c3.495,2.649,6.285,7.093,7.835,12.526h4.671a.574.574,0,0,1,.57.573" transform="translate(182.87 183.181)" fill="#e0d2ce" fill-rule="evenodd"/>
          </g>
          <g id="g3257" transform="translate(8.66 13.241)">
            <path id="path3259" d="M-283.407,0h-21.254a.576.576,0,0,0-.573.573v3.1h22.4V.573a.574.574,0,0,0-.57-.573" transform="translate(305.234)" fill="#fece85" fill-rule="evenodd"/>
          </g>
          <path id="path3261" d="M126.765-446.126h-5.657v3.789h5.657Z" transform="translate(-112.447 463.04)" fill="#6bd9e7" fill-rule="evenodd"/>
          <path id="path3263" d="M205.76-446.126h-5.541v3.789h5.541Z" transform="translate(-185.901 463.04)" fill="#6bd9e7" fill-rule="evenodd"/>
          <path id="path3265" d="M277.711-442.337h5.541v-3.789h-5.541Z" transform="translate(-257.853 463.04)" fill="#6bd9e7" fill-rule="evenodd"/>
          <g id="g3267" transform="translate(25.4 20.704)">
            <path id="path3269" d="M-73.453,0H-79.11V3.789h5.087a.574.574,0,0,0,.57-.573Z" transform="translate(79.11)" fill="#6bd9e7" fill-rule="evenodd"/>
          </g>
          <path id="path3271" d="M360.86-446.126H355.2v3.789h5.657Z" transform="translate(-329.803 463.04)" fill="#6bd9e7" fill-rule="evenodd"/>
          <path id="path3273" d="M283.251-393.139H277.71v3.789h5.541Z" transform="translate(-257.851 413.843)" fill="#6bd9e7" fill-rule="evenodd"/>
          <path id="path3275" d="M205.76-393.139h-5.541v3.789h5.541Z" transform="translate(-185.901 413.843)" fill="#6bd9e7" fill-rule="evenodd"/>
          <g id="g3277" transform="translate(8.66 20.704)">
            <path id="path3279" d="M-73.453,0H-79.11V3.216a.576.576,0,0,0,.573.573h5.084Z" transform="translate(79.11)" fill="#6bd9e7" fill-rule="evenodd"/>
          </g>
          <g id="g3281" transform="translate(7.945 16.2)">
            <path id="path3283" d="M13.112-8.57h-22.4A.715.715,0,0,1-10-9.285.715.715,0,0,1-9.285-10h22.4a.715.715,0,0,1,.715.715A.715.715,0,0,1,13.112-8.57Z" transform="translate(10 10)"/>
          </g>
          <g id="g3285" transform="translate(7.945 19.988)">
            <path id="path3287" d="M13.112-8.57h-22.4A.715.715,0,0,1-10-9.285.715.715,0,0,1-9.285-10h22.4a.715.715,0,0,1,.715.715A.715.715,0,0,1,13.112-8.57Z" transform="translate(10 10)"/>
          </g>
          <g id="g3289" transform="translate(13.602 16.2)">
            <path id="path3291" d="M-9.285-.992A.715.715,0,0,1-10-1.707V-9.285A.715.715,0,0,1-9.285-10a.715.715,0,0,1,.715.715v7.578A.715.715,0,0,1-9.285-.992Z" transform="translate(10 10)"/>
          </g>
          <g id="g3293" transform="translate(19.144 16.2)">
            <path id="path3295" d="M-9.285-.992A.715.715,0,0,1-10-1.707V-9.285A.715.715,0,0,1-9.285-10a.715.715,0,0,1,.715.715v7.578A.715.715,0,0,1-9.285-.992Z" transform="translate(10 10)"/>
          </g>
          <g id="g3297" transform="translate(24.685 16.2)">
            <path id="path3299" d="M-9.285-.992A.715.715,0,0,1-10-1.707V-9.285A.715.715,0,0,1-9.285-10a.715.715,0,0,1,.715.715v7.578A.715.715,0,0,1-9.285-.992Z" transform="translate(10 10)"/>
          </g>
          <g id="g3301" transform="translate(13.602 16.2)">
            <path id="path3303" d="M-9.285-.992A.715.715,0,0,1-10-1.707V-9.285A.715.715,0,0,1-9.285-10a.715.715,0,0,1,.715.715v7.578A.715.715,0,0,1-9.285-.992Z" transform="translate(10 10)"/>
          </g>
          <g id="g3305" transform="translate(7.945 12.526)">
            <path id="path3307" d="M4.53-154.66H-16.724a1.289,1.289,0,0,1-1.288-1.288v-10.106a1.289,1.289,0,0,1,1.288-1.288H4.53a1.288,1.288,0,0,1,1.285,1.288v10.106A1.288,1.288,0,0,1,4.53-154.66Zm-21.112-1.43H4.385v-9.821H-16.582Z" transform="translate(18.012 167.341)"/>
          </g>
          <g id="g3309" transform="translate(8.064 27.115)">
            <path id="path3311" d="M13.112-8.57h-22.4A.715.715,0,0,1-10-9.285.715.715,0,0,1-9.285-10h22.4a.715.715,0,0,1,.715.715A.715.715,0,0,1,13.112-8.57Z" transform="translate(10 10)"/>
          </g>
          <g id="g3313" transform="translate(22.399 30.783)">
            <path id="path3315" d="M-5.256-8.57H-9.285A.715.715,0,0,1-10-9.285.715.715,0,0,1-9.285-10h4.029a.715.715,0,0,1,.715.715A.715.715,0,0,1-5.256-8.57Z" transform="translate(10 10)"/>
          </g>
          <g id="g3317" transform="translate(29.427 0.743)">
            <path id="path3319" d="M0-53.774a2.219,2.219,0,0,0,2.214,2.211H6.673a1.688,1.688,0,0,0-.289-.3L.361-57.6a2.007,2.007,0,0,0-.355-.311Z" transform="translate(0 57.916)" fill="#b8acac" fill-rule="evenodd"/>
          </g>
          <g id="g3321" transform="translate(28.711 0.028)">
            <path id="path3323" d="M-2.665-2.217H-7.149a2.931,2.931,0,0,1-2.93-2.926l.006-4.142A.715.715,0,0,1-9.357-10a.715.715,0,0,1,.714.716l-.006,4.141a1.5,1.5,0,0,0,1.5,1.495h4.484a.715.715,0,0,1,.715.715A.715.715,0,0,1-2.665-2.217Z" transform="translate(10.079 10)"/>
          </g>
          <g id="g3325" transform="translate(3.051 0)">
            <path id="path3327" d="M-341.773-538.043h-5.974a1.267,1.267,0,0,1-1.266-1.266v-39.677a1.267,1.267,0,0,1,1.266-1.266h24.972a1.209,1.209,0,0,1,.9.451l.089.085,6.024,5.745.115.108a1.062,1.062,0,0,1,.421.83v23.607a.715.715,0,0,1-.715.715.715.715,0,0,1-.715-.715v-23.423l-.1-.091-6.113-5.83-.053-.052h-24.666v39.348h5.81a.715.715,0,0,1,.715.715A.715.715,0,0,1-341.773-538.043Z" transform="translate(349.012 580.252)"/>
          </g>
          <g id="g3329" transform="translate(27.767 30.821)">
            <path id="path3331" d="M-26.915-39.28a8.631,8.631,0,0,0-1.818,7.7,8.6,8.6,0,0,0,2.674,4.4,8.647,8.647,0,0,0,12.2-.774,8.642,8.642,0,0,0-.774-12.2A8.627,8.627,0,0,0-21.712-42.2a8.663,8.663,0,0,0-2.79.953,8.627,8.627,0,0,0-2.33,1.867l-.083.1" transform="translate(28.988 42.305)" fill="#fece85" fill-rule="evenodd"/>
          </g>
          <g id="g3333" transform="translate(34.687 30.821)">
            <path id="path3335" d="M-51.853-27.982a8.643,8.643,0,0,1,.774,12.2,8.614,8.614,0,0,1-4.767,2.756,8.636,8.636,0,0,0,8.207-2.756,8.643,8.643,0,0,0-.774-12.2,8.627,8.627,0,0,0-7.078-2.046c-.116.019-.234.039-.353.063.118.022.237.05.353.077a8.612,8.612,0,0,1,3.638,1.905" transform="translate(55.847 30.137)" fill="#fdb440" fill-rule="evenodd"/>
          </g>
          <g id="g3337" transform="translate(35.79 35.051)">
            <path id="path3339" d="M-9.285-93.893A.715.715,0,0,1-10-94.608v-1.2a.715.715,0,0,1,.715-.715.715.715,0,0,1,.715.715v1.2A.715.715,0,0,1-9.285-93.893Z" transform="translate(10 96.526)"/>
          </g>
          <g id="g3341" transform="translate(33.87 36.254)">
            <path id="path3343" d="M-6.688-73.284h-2.6A.715.715,0,0,1-10-74a.715.715,0,0,1,.715-.715h2.6a.54.54,0,0,0,.533-.532.533.533,0,0,0-.522-.53H-8.04A1.962,1.962,0,0,1-10-77.736,1.963,1.963,0,0,1-8.04-79.7h2.6a.715.715,0,0,1,.715.715.715.715,0,0,1-.715.715h-2.6a.532.532,0,0,0-.53.532.537.537,0,0,0,.53.53h1.363a1.958,1.958,0,0,1,1.952,1.96A1.965,1.965,0,0,1-6.688-73.284Z" transform="translate(10 79.698)"/>
          </g>
          <g id="g3345" transform="translate(27.057 30.093)">
            <path id="path3347" d="M-214.059-34.654a9.321,9.321,0,0,1-6.178-2.328,9.371,9.371,0,0,1-.838-13.205,9.319,9.319,0,0,1,11.452-2.06.715.715,0,0,1,.291.969.715.715,0,0,1-.969.291,7.894,7.894,0,0,0-9.7,1.746,7.938,7.938,0,0,0,.71,11.186,7.9,7.9,0,0,0,5.233,1.972,7.917,7.917,0,0,0,5.956-2.682,7.972,7.972,0,0,0,.127-10.329.715.715,0,0,1,.088-1.007.715.715,0,0,1,1.007.088,9.411,9.411,0,0,1-.149,12.195A9.346,9.346,0,0,1-214.059-34.654Z" transform="translate(223.404 53.372)"/>
          </g>
        </g>
      </g>
    </g>
  </g>
</svg>
